999
dxflib 3.1.0.0
  0
SECTION
  2
HEADER
  9
$ACADVER
  1
AC1015
  9
$HANDSEED
  5
FFFF
  9
$DIMADEC
 70
0
  9
$DIMASZ
 40
2.5
  9
$DIMAUNIT
 70
0
  9
$DIMAZIN
 70
2
  9
$DIMDEC
 70
4
  9
$DIMEXE
 40
1.25
  9
$DIMEXO
 40
0.625
  9
$DIMGAP
 40
0.625
  9
$DIMLUNIT
 70
2
  9
$DIMTSZ
 40
0.0
  9
$DIMTXT
 40
2.5
  9
$DIMZIN
 70
8
  9
$INSUNITS
 70
4
  9
$LTSCALE
 40
1.0
  0
SECTION
  2
TABLES
  0
TABLE
  2
VPORT
  5
8
100
AcDbSymbolTable
 70
1
  0
VPORT
  5
30
100
AcDbSymbolTableRecord
100
AcDbViewportTableRecord
  2
*Active
 70
0
 10
0.0
 20
0.0
 11
1.0
 21
1.0
 12
286.3055555555554861
 22
148.5
 13
0.0
 23
0.0
 14
10.0
 24
10.0
 15
10.0
 25
10.0
 16
0.0
 26
0.0
 36
1.0
 17
0.0
 27
0.0
 37
0.0
 40
297.0
 41
1.92798353909465
 42
50.0
 43
0.0
 44
0.0
 50
0.0
 51
0.0
 71
0
 72
100
 73
1
 74
3
 75
1
 76
1
 77
0
 78
0
281
0
 65
1
110
0.0
120
0.0
130
0.0
111
1.0
121
0.0
131
0.0
112
0.0
122
1.0
132
0.0
 79
0
146
0.0
  0
ENDTAB
  0
TABLE
  2
LTYPE
  5
5
100
AcDbSymbolTable
 70
21
  0
LTYPE
  5
31
100
AcDbSymbolTableRecord
100
AcDbLinetypeTableRecord
  2
CENTER2
 70
0
  3
Center (.5x) ___ _ ___ _ ___ _ ___ _ ___ _ ___
 72
65
 73
4
 40
28.5749999999999993
 49
19.0500000000000007
 74
0
 49
-3.1749999999999998
 74
0
 49
3.1749999999999998
 74
0
 49
-3.1749999999999998
 74
0
  0
LTYPE
  5
32
100
AcDbSymbolTableRecord
100
AcDbLinetypeTableRecord
  2
DIVIDEX2
 70
0
  3
Divide (2x) ________  .  .  ________  .  .  _
 72
65
 73
6
 40
63.5
 49
25.3999999999999986
 74
0
 49
-12.6999999999999993
 74
0
 49
0.0
 74
0
 49
-12.6999999999999993
 74
0
 49
0.0
 74
0
 49
-12.6999999999999993
 74
0
  0
LTYPE
  5
33
100
AcDbSymbolTableRecord
100
AcDbLinetypeTableRecord
  2
DOT2
 70
0
  3
Dot (.5x) .....................................
 72
65
 73
2
 40
3.1749999999999998
 49
0.0
 74
0
 49
-3.1749999999999998
 74
0
  0
LTYPE
  5
34
100
AcDbSymbolTableRecord
100
AcDbLinetypeTableRecord
  2
DASHDOT2
 70
0
  3
Dash dot (.5x) _._._._._._._._._._._._._._._.
 72
65
 73
4
 40
12.6999999999999993
 49
6.3499999999999996
 74
0
 49
-3.1749999999999998
 74
0
 49
0.0
 74
0
 49
-3.1749999999999998
 74
0
  0
LTYPE
  5
35
100
AcDbSymbolTableRecord
100
AcDbLinetypeTableRecord
  2
DIVIDE
 70
0
  3
Divide ____ . . ____ . . ____ . . ____ . . ____
 72
65
 73
6
 40
31.75
 49
12.6999999999999993
 74
0
 49
-6.3499999999999996
 74
0
 49
0.0
 74
0
 49
-6.3499999999999996
 74
0
 49
0.0
 74
0
 49
-6.3499999999999996
 74
0
  0
LTYPE
  5
36
100
AcDbSymbolTableRecord
100
AcDbLinetypeTableRecord
  2
DASHDOT
 70
0
  3
Dash dot __ . __ . __ . __ . __ . __ . __ . __
 72
65
 73
4
 40
25.3999999999999986
 49
12.6999999999999993
 74
0
 49
-6.3499999999999996
 74
0
 49
0.0
 74
0
 49
-6.3499999999999996
 74
0
  0
LTYPE
  5
37
100
AcDbSymbolTableRecord
100
AcDbLinetypeTableRecord
  2
BORDER
 70
0
  3
Border __ __ . __ __ . __ __ . __ __ . __ __ .
 72
65
 73
6
 40
44.4500000000000028
 49
12.6999999999999993
 74
0
 49
-6.3499999999999996
 74
0
 49
12.6999999999999993
 74
0
 49
-6.3499999999999996
 74
0
 49
0.0
 74
0
 49
-6.3499999999999996
 74
0
  0
LTYPE
  5
38
100
AcDbSymbolTableRecord
100
AcDbLinetypeTableRecord
  2
DASHDOTX2
 70
0
  3
Dash dot (2x) ____  .  ____  .  ____  .  ___
 72
65
 73
4
 40
50.7999999999999972
 49
25.3999999999999986
 74
0
 49
-12.6999999999999993
 74
0
 49
0.0
 74
0
 49
-12.6999999999999993
 74
0
  0
LTYPE
  5
39
100
AcDbSymbolTableRecord
100
AcDbLinetypeTableRecord
  2
CENTERX2
 70
0
  3
Center (2x) ________  __  ________  __  _____
 72
65
 73
4
 40
101.5999999999999943
 49
63.5
 74
0
 49
-12.6999999999999993
 74
0
 49
12.6999999999999993
 74
0
 49
-12.6999999999999993
 74
0
  0
LTYPE
  5
3A
100
AcDbSymbolTableRecord
100
AcDbLinetypeTableRecord
  2
BORDER2
 70
0
  3
Border (.5x) __.__.__.__.__.__.__.__.__.__.__.
 72
65
 73
6
 40
22.2250000000000014
 49
6.3499999999999996
 74
0
 49
-3.1749999999999998
 74
0
 49
6.3499999999999996
 74
0
 49
-3.1749999999999998
 74
0
 49
0.0
 74
0
 49
-3.1749999999999998
 74
0
  0
LTYPE
  5
3B
100
AcDbSymbolTableRecord
100
AcDbLinetypeTableRecord
  2
BORDERX2
 70
0
  3
Border (2x) ____  ____  .  ____  ____  .  ___
 72
65
 73
6
 40
88.9000000000000057
 49
25.3999999999999986
 74
0
 49
-12.6999999999999993
 74
0
 49
25.3999999999999986
 74
0
 49
-12.6999999999999993
 74
0
 49
0.0
 74
0
 49
-12.6999999999999993
 74
0
  0
LTYPE
  5
16
100
AcDbSymbolTableRecord
100
AcDbLinetypeTableRecord
  2
CONTINUOUS
 70
0
  3
Solid line
 72
65
 73
0
 40
0.0
  0
LTYPE
  5
14
100
AcDbSymbolTableRecord
100
AcDbLinetypeTableRecord
  2
BYBLOCK
 70
0
  3

 72
65
 73
0
 40
0.0
  0
LTYPE
  5
15
100
AcDbSymbolTableRecord
100
AcDbLinetypeTableRecord
  2
BYLAYER
 70
0
  3

 72
65
 73
0
 40
0.0
  0
LTYPE
  5
3C
100
AcDbSymbolTableRecord
100
AcDbLinetypeTableRecord
  2
DASHED2
 70
0
  3
Dashed (.5x) _ _ _ _ _ _ _ _ _ _ _ _ _ _ _ _ _
 72
65
 73
2
 40
9.5250000000000004
 49
6.3499999999999996
 74
0
 49
-3.1749999999999998
 74
0
  0
LTYPE
  5
3D
100
AcDbSymbolTableRecord
100
AcDbLinetypeTableRecord
  2
CENTER
 70
0
  3
Center ____ _ ____ _ ____ _ ____ _ ____ _ ____
 72
65
 73
4
 40
50.7999999999999972
 49
31.75
 74
0
 49
-6.3499999999999996
 74
0
 49
6.3499999999999996
 74
0
 49
-6.3499999999999996
 74
0
  0
LTYPE
  5
3E
100
AcDbSymbolTableRecord
100
AcDbLinetypeTableRecord
  2
DIVIDE2
 70
0
  3
Divide (.5x) __..__..__..__..__..__..__..__.._
 72
65
 73
6
 40
15.875
 49
6.3499999999999996
 74
0
 49
-3.1749999999999998
 74
0
 49
0.0
 74
0
 49
-3.1749999999999998
 74
0
 49
0.0
 74
0
 49
-3.1749999999999998
 74
0
  0
LTYPE
  5
3F
100
AcDbSymbolTableRecord
100
AcDbLinetypeTableRecord
  2
DASHED
 70
0
  3
Dashed __ __ __ __ __ __ __ __ __ __ __ __ __ _
 72
65
 73
2
 40
19.0500000000000007
 49
12.6999999999999993
 74
0
 49
-6.3499999999999996
 74
0
  0
LTYPE
  5
40
100
AcDbSymbolTableRecord
100
AcDbLinetypeTableRecord
  2
DOTX2
 70
0
  3
Dot (2x) .  .  .  .  .  .  .  .  .  .  .  .  .
 72
65
 73
2
 40
12.6999999999999993
 49
0.0
 74
0
 49
-12.6999999999999993
 74
0
  0
LTYPE
  5
41
100
AcDbSymbolTableRecord
100
AcDbLinetypeTableRecord
  2
DASHEDX2
 70
0
  3
Dashed (2x) ____  ____  ____  ____  ____  ___
 72
65
 73
2
 40
38.1000000000000014
 49
25.3999999999999986
 74
0
 49
-12.6999999999999993
 74
0
  0
LTYPE
  5
42
100
AcDbSymbolTableRecord
100
AcDbLinetypeTableRecord
  2
DOT
 70
0
  3
Dot . . . . . . . . . . . . . . . . . . . . . .
 72
65
 73
2
 40
6.3499999999999996
 49
0.0
 74
0
 49
-6.3499999999999996
 74
0
  0
ENDTAB
  0
TABLE
  2
LAYER
  5
2
100
AcDbSymbolTable
 70
2
  0
LAYER
  5
43
100
AcDbSymbolTableRecord
100
AcDbLayerTableRecord
  2
bemassung
 70
0
 62
59
420
2894892
  6
CONTINUOUS
370
13
390
F
  0
LAYER
  5
10
100
AcDbSymbolTableRecord
100
AcDbLayerTableRecord
  2
0
 70
0
 62
7
420
0
  6
CONTINUOUS
370
25
390
F
  0
ENDTAB
  0
TABLE
  2
STYLE
  5
3
100
AcDbSymbolTable
 70
3
  0
STYLE
  5
44
100
AcDbSymbolTableRecord
100
AcDbTextStyleTableRecord
  2
textstyle0
 70
0
 40
0.0
 41
1.0
 50
0.0
 71
0
 42
1.0
  3
Arial
  4

1001
ACAD
1000
textstyle0
1071
0
  0
STYLE
  5
45
100
AcDbSymbolTableRecord
100
AcDbTextStyleTableRecord
  2
textstyle1
 70
0
 40
0.0
 41
1.0
 50
0.0
 71
0
 42
2.0
  3
Arial
  4

1001
ACAD
1000
textstyle1
1071
0
  0
STYLE
  5
46
100
AcDbSymbolTableRecord
100
AcDbTextStyleTableRecord
  2
textstyle2
 70
0
 40
0.0
 41
1.0
 50
0.0
 71
0
 42
2.0
  3
Arial
  4

1001
ACAD
1000
textstyle2
1071
0
  0
ENDTAB
  0
TABLE
  2
VIEW
  5
6
100
AcDbSymbolTable
 70
0
  0
ENDTAB
  0
TABLE
  2
UCS
  5
7
100
AcDbSymbolTable
 70
0
  0
ENDTAB
  0
TABLE
  2
APPID
  5
9
100
AcDbSymbolTable
 70
1
  0
APPID
  5
47
100
AcDbSymbolTableRecord
100
AcDbRegAppTableRecord
  2
QCAD
 70
0
  0
ENDTAB
  0
TABLE
  2
DIMSTYLE
  5
A
100
AcDbSymbolTable
 70
1
100
AcDbDimStyleTable
 71
0
  0
DIMSTYLE
105
27
100
AcDbSymbolTableRecord
100
AcDbDimStyleTableRecord
  2
Standard
 41
2.5
 42
0.625
 43
3.75
 44
1.25
 70
0
 73
0
 74
0
 77
1
 78
8
140
2.5
141
2.5
143
0.03937007874016
147
0.625
171
3
172
1
271
2
272
2
274
3
278
44
283
0
284
8
340
11
  0
ENDTAB
  0
TABLE
  2
BLOCK_RECORD
  5
1
100
AcDbSymbolTable
 70
1
  0
BLOCK_RECORD
  5
1F
100
AcDbSymbolTableRecord
100
AcDbBlockTableRecord
  2
*Model_Space
340
22
  0
BLOCK_RECORD
  5
1B
100
AcDbSymbolTableRecord
100
AcDbBlockTableRecord
  2
*Paper_Space
340
1E
  0
BLOCK_RECORD
  5
23
100
AcDbSymbolTableRecord
100
AcDbBlockTableRecord
  2
*Paper_Space0
340
26
  0
BLOCK_RECORD
  5
48
100
AcDbSymbolTableRecord
100
AcDbBlockTableRecord
  2
*Model_Space
340
0
  0
ENDTAB
  0
ENDSEC
  0
SECTION
  2
BLOCKS
  0
BLOCK
  5
20
100
AcDbEntity
  8
0
100
AcDbBlockBegin
  2
*Model_Space
 70
0
 10
0.0
 20
0.0
 30
0.0
  3
*Model_Space
  1

  0
ENDSEC
  0
SECTION
  2
ENTITIES
  0
LINE
  5
49
100
AcDbEntity
100
AcDbLine
  8
0
 62
256
370
-1
  6
BYLAYER
 10
114.5734795237739263
 20
25.8269056905526497
 30
0.0
 11
154.5734795237739263
 21
25.8269056905526497
 31
0.0
  0
LINE
  5
4A
100
AcDbEntity
100
AcDbLine
  8
0
 62
256
370
-1
  6
BYLAYER
 10
154.5734795237739263
 20
25.8269056905526497
 30
0.0
 11
154.5734795237739263
 21
105.8269056905526497
 31
0.0
  0
LINE
  5
4B
100
AcDbEntity
100
AcDbLine
  8
0
 62
256
370
-1
  6
BYLAYER
 10
154.5734795237739263
 20
105.8269056905526497
 30
0.0
 11
114.5734795237739263
 21
105.8269056905526497
 31
0.0
  0
LINE
  5
4C
100
AcDbEntity
100
AcDbLine
  8
0
 62
256
370
-1
  6
BYLAYER
 10
114.5734795237739263
 20
105.8269056905526497
 30
0.0
 11
114.5734795237739263
 21
25.8269056905526497
 31
0.0
  0
LINE
  5
4D
100
AcDbEntity
100
AcDbLine
  8
0
 62
256
370
-1
  6
BYLAYER
 10
129.5734795237739263
 20
25.8269056905526497
 30
0.0
 11
139.5734795237739263
 21
25.8269056905526497
 31
0.0
  0
LINE
  5
4E
100
AcDbEntity
100
AcDbLine
  8
0
 62
256
370
-1
  6
BYLAYER
 10
139.5734795237739263
 20
25.8269056905526497
 30
0.0
 11
139.5734795237739263
 21
105.8269056905526497
 31
0.0
  0
LINE
  5
4F
100
AcDbEntity
100
AcDbLine
  8
0
 62
256
370
-1
  6
BYLAYER
 10
139.5734795237739263
 20
105.8269056905526497
 30
0.0
 11
129.5734795237739263
 21
105.8269056905526497
 31
0.0
  0
LINE
  5
50
100
AcDbEntity
100
AcDbLine
  8
0
 62
256
370
-1
  6
BYLAYER
 10
129.5734795237739263
 20
105.8269056905526497
 30
0.0
 11
129.5734795237739263
 21
25.8269056905526497
 31
0.0
  0
CIRCLE
  5
51
100
AcDbEntity
100
AcDbCircle
  8
0
 62
256
370
-1
  6
BYLAYER
 10
124.5734795237739263
 20
40.8269056905526497
 30
0.0
 40
1.5
  0
CIRCLE
  5
52
100
AcDbEntity
100
AcDbCircle
  8
0
 62
256
370
-1
  6
BYLAYER
 10
144.5734795237739263
 20
40.8269056905526497
 30
0.0
 40
1.5
  0
CIRCLE
  5
53
100
AcDbEntity
100
AcDbCircle
  8
0
 62
256
370
-1
  6
BYLAYER
 10
124.5734795237739263
 20
90.8269056905526497
 30
0.0
 40
1.5
  0
CIRCLE
  5
54
100
AcDbEntity
100
AcDbCircle
  8
0
 62
256
370
-1
  6
BYLAYER
 10
144.5734795237739263
 20
90.8269056905526497
 30
0.0
 40
1.5
  0
CIRCLE
  5
55
100
AcDbEntity
100
AcDbCircle
  8
0
 62
256
370
-1
  6
BYLAYER
 10
124.5734795237739263
 20
90.8269056905526497
 30
0.0
 40
1.1000000000000001
  0
CIRCLE
  5
56
100
AcDbEntity
100
AcDbCircle
  8
0
 62
256
370
-1
  6
BYLAYER
 10
144.5734795237739263
 20
90.8269056905526497
 30
0.0
 40
1.1000000000000001
  0
CIRCLE
  5
57
100
AcDbEntity
100
AcDbCircle
  8
0
 62
256
370
-1
  6
BYLAYER
 10
144.5734795237739263
 20
40.8269056905526497
 30
0.0
 40
1.1000000000000001
  0
CIRCLE
  5
58
100
AcDbEntity
100
AcDbCircle
  8
0
 62
256
370
-1
  6
BYLAYER
 10
124.5734795237739263
 20
40.8269056905526497
 30
0.0
 40
1.1000000000000001
  0
DIMENSION
  5
59
100
AcDbEntity
  8
bemassung
 62
256
370
-1
  6
BYLAYER
100
AcDbDimension
 10
125.6341396955537419
 20
41.8875658623324725
 30
0.0
 11
126.6162324472017104
 21
45.5213090434300156
 31
0.0
 70
3
 71
8
 72
2
 41
1.0
 42
0.0
  1
M3t
  3
Standard
100
AcDbDiametricDimension
 15
123.5128193519941107
 25
39.766245518772827
 35
0.0
 40
0.0
  0
DIMENSION
  5
5A
100
AcDbEntity
  8
bemassung
 62
256
370
-1
  6
BYLAYER
100
AcDbDimension
 10
145.6341396955537562
 20
41.8875658623324725
 30
0.0
 11
146.6162324472017531
 21
45.5213090434300085
 31
0.0
 70
3
 71
8
 72
2
 41
1.0
 42
0.0
  1
M3t
  3
Standard
100
AcDbDiametricDimension
 15
143.5128193519940965
 25
39.766245518772827
 35
0.0
 40
0.0
  0
DIMENSION
  5
5B
100
AcDbEntity
  8
bemassung
 62
256
370
-1
  6
BYLAYER
100
AcDbDimension
 10
145.6341396955537562
 20
91.8875658623324654
 30
0.0
 11
146.6162324472017531
 21
95.5213090434299943
 31
0.0
 70
3
 71
8
 72
2
 41
1.0
 42
0.0
  1
M3t
  3
Standard
100
AcDbDiametricDimension
 15
143.5128193519940965
 25
89.7662455187728341
 35
0.0
 40
0.0
  0
DIMENSION
  5
5C
100
AcDbEntity
  8
bemassung
 62
256
370
-1
  6
BYLAYER
100
AcDbDimension
 10
154.2399127224902884
 20
11.3719709662228183
 30
0.0
 11
134.5734795237739263
 21
13.2469709662228183
 31
0.0
 70
128
 71
8
 72
2
 41
1.0
 42
0.0
  1

  3
Standard
100
AcDbAlignedDimension
 13
114.5734795237739263
 23
25.8269056905526497
 33
0.0
 14
154.5734795237739263
 24
25.8269056905526497
 34
0.0
 50
0.0
100
AcDbRotatedDimension
  0
DIMENSION
  5
5D
100
AcDbEntity
  8
bemassung
 62
256
370
-1
  6
BYLAYER
100
AcDbDimension
 10
129.4719127224902309
 20
19.723970966222808
 30
0.0
 11
122.0734795237739263
 21
21.598970966222808
 31
0.0
 70
128
 71
8
 72
2
 41
1.0
 42
0.0
  1

  3
Standard
100
AcDbAlignedDimension
 13
114.5734795237739263
 23
25.8269056905526497
 33
0.0
 14
129.5734795237739263
 24
25.8269056905526497
 34
0.0
 50
0.0
100
AcDbRotatedDimension
  0
DIMENSION
  5
5E
100
AcDbEntity
  8
bemassung
 62
256
370
-1
  6
BYLAYER
100
AcDbDimension
 10
139.9839127224902597
 20
19.723970966222808
 30
0.0
 11
134.5734795237739263
 21
21.598970966222808
 31
0.0
 70
128
 71
8
 72
2
 41
1.0
 42
0.0
  1

  3
Standard
100
AcDbAlignedDimension
 13
129.5734795237739263
 23
25.8269056905526497
 33
0.0
 14
139.5734795237739263
 24
25.8269056905526497
 34
0.0
 50
0.0
100
AcDbRotatedDimension
  0
DIMENSION
  5
5F
100
AcDbEntity
  8
bemassung
 62
256
370
-1
  6
BYLAYER
100
AcDbDimension
 10
154.6719127224902479
 20
19.723970966222808
 30
0.0
 11
147.0734795237739263
 21
21.598970966222808
 31
0.0
 70
128
 71
8
 72
2
 41
1.0
 42
0.0
  1

  3
Standard
100
AcDbAlignedDimension
 13
139.5734795237739263
 23
25.8269056905526497
 33
0.0
 14
154.5734795237739263
 24
25.8269056905526497
 34
0.0
 50
0.0
100
AcDbRotatedDimension
  0
DIMENSION
  5
60
100
AcDbEntity
  8
bemassung
 62
256
370
-1
  6
BYLAYER
100
AcDbDimension
 10
167.2184460558235344
 20
103.4330376328894658
 30
0.0
 11
165.3434460558235344
 21
65.8269056905526497
 31
0.0
 70
128
 71
8
 72
2
 41
1.0
 42
0.0
  1

  3
Standard
100
AcDbAlignedDimension
 13
154.5734795237739263
 23
25.8269056905526497
 33
0.0
 14
154.5734795237739263
 24
105.8269056905526497
 34
0.0
 50
90.0
100
AcDbRotatedDimension
  0
DIMENSION
  5
61
100
AcDbEntity
  8
bemassung
 62
256
370
-1
  6
BYLAYER
100
AcDbDimension
 10
161.0411127224902543
 20
101.3342376328894545
 30
0.0
 11
159.1661127224902543
 21
98.3269056905526497
 31
0.0
 70
128
 71
8
 72
2
 41
1.0
 42
0.0
  1

  3
Standard
100
AcDbAlignedDimension
 13
124.5734795237739263
 23
90.8269056905526497
 33
0.0
 14
124.5734795237739263
 24
105.8269056905526497
 34
0.0
 50
90.0
100
AcDbRotatedDimension
  0
DIMENSION
  5
62
100
AcDbEntity
  8
bemassung
 62
256
370
-1
  6
BYLAYER
100
AcDbDimension
 10
161.0744460558235858
 20
27.3842376328894801
 30
0.0
 11
159.1994460558235858
 21
33.3269056905526497
 31
0.0
 70
128
 71
8
 72
2
 41
1.0
 42
0.0
  1

  3
Standard
100
AcDbAlignedDimension
 13
124.5734795237739263
 23
40.8269056905526497
 33
0.0
 14
154.5734795237739263
 24
25.8269056905526497
 34
0.0
 50
90.0
100
AcDbRotatedDimension
  0
DIMENSION
  5
63
100
AcDbEntity
  8
bemassung
 62
256
370
-1
  6
BYLAYER
100
AcDbDimension
 10
161.0411127224902543
 20
90.8269056905526497
 30
0.0
 11
159.1661127224902543
 21
65.8269056905526497
 31
0.0
 70
128
 71
8
 72
2
 41
1.0
 42
0.0
  1

  3
Standard
100
AcDbAlignedDimension
 13
161.0744460558235858
 23
40.8269056905526497
 33
0.0
 14
161.0411127224902543
 24
90.8269056905526497
 34
0.0
 50
90.0
100
AcDbRotatedDimension
  0
DIMENSION
  5
64
100
AcDbEntity
  8
bemassung
 62
256
370
-1
  6
BYLAYER
100
AcDbDimension
 10
125.6341396955537562
 20
91.8875658623324654
 30
0.0
 11
126.6162324472017815
 21
95.5213090434299943
 31
0.0
 70
3
 71
8
 72
2
 41
1.0
 42
0.0
  1
M3t
  3
Standard
100
AcDbDiametricDimension
 15
123.5128193519940965
 25
89.7662455187728341
 35
0.0
 40
0.0
  0
LINE
  5
65
100
AcDbEntity
100
AcDbLine
  8
0
 62
256
370
-1
  6
DASHDOT2
 10
114.5734795237739263
 20
95.8269056905526497
 30
0.0
 11
129.5734795237739263
 21
95.8269056905526497
 31
0.0
  0
LINE
  5
66
100
AcDbEntity
100
AcDbLine
  8
0
 62
256
370
-1
  6
BYLAYER
 10
114.5734795237739263
 20
96.8269056905526497
 30
0.0
 11
129.5734795237739263
 21
96.8269056905526497
 31
0.0
  0
LINE
  5
67
100
AcDbEntity
100
AcDbLine
  8
0
 62
256
370
-1
  6
BYLAYER
 10
114.5734795237739263
 20
94.8269056905526497
 30
0.0
 11
129.5734795237739263
 21
94.8269056905526497
 31
0.0
  0
LINE
  5
68
100
AcDbEntity
100
AcDbLine
  8
0
 62
256
370
-1
  6
BYLAYER
 10
114.5734795237739263
 20
95.1269056905526469
 30
0.0
 11
129.5734795237739263
 21
95.1269056905526469
 31
0.0
  0
LINE
  5
69
100
AcDbEntity
100
AcDbLine
  8
0
 62
256
370
-1
  6
BYLAYER
 10
114.5734795237739263
 20
96.5269056905526526
 30
0.0
 11
129.5734795237739263
 21
96.5269056905526526
 31
0.0
  0
DIMENSION
  5
6A
100
AcDbEntity
  8
bemassung
 62
256
370
-1
  6
BYLAYER
100
AcDbDimension
 10
111.0573580377165683
 20
94.99358587404177
 30
0.0
 11
109.1823580377165683
 21
100.8269056905526497
 31
0.0
 70
128
 71
8
 72
2
 41
1.0
 42
0.0
  1

  3
Standard
100
AcDbAlignedDimension
 13
114.5734795237739263
 23
105.8269056905526497
 33
0.0
 14
114.5734795237739263
 24
95.8269056905526497
 34
0.0
 50
90.0
100
AcDbRotatedDimension
  0
LEADER
  5
6B
  8
bemassung
 62
256
370
-1
  6
BYLAYER
100
AcDbEntity
100
AcDbLeader
  3
Standard
 71
1
 72
0
 73
3
 74
0
 75
0
 40
1.0
 41
10.0
 76
3
 10
114.5734795237739263
 20
95.8269056905526497
 10
110.9740247043832397
 20
91.1102525407084443
 10
92.6740247043832426
 20
91.1102525407084443
  0
MTEXT
  5
6C
100
AcDbEntity
100
AcDbMText
  8
bemassung
 62
256
370
-1
  6
BYLAYER
 10
93.0059944492391679
 20
93.5128351061405425
 30
0.0
 40
1.0
 41
0.0
 71
1
 72
1
  1
\H2;M2t\H1.5; for grub screw
  7
textstyle0
 50
0.0
 73
2
 44
1.0
  0
LINE
  5
6D
100
AcDbEntity
100
AcDbLine
  8
0
 62
256
370
-1
  6
BYLAYER
 10
24.5734795237739263
 20
25.8269056905526497
 30
0.0
 11
74.5734795237739263
 21
25.8269056905526497
 31
0.0
  0
LINE
  5
6E
100
AcDbEntity
100
AcDbLine
  8
0
 62
256
370
-1
  6
BYLAYER
 10
74.5734795237739263
 20
105.8269056905526497
 30
0.0
 11
24.5734795237739263
 21
105.8269056905526497
 31
0.0
  0
LINE
  5
6F
100
AcDbEntity
100
AcDbLine
  8
0
 62
256
370
-1
  6
BYLAYER
 10
24.5734795237739263
 20
105.8269056905526497
 30
0.0
 11
24.5734795237739263
 21
25.8269056905526497
 31
0.0
  0
LINE
  5
70
100
AcDbEntity
100
AcDbLine
  8
0
 62
256
370
-1
  6
BYLAYER
 10
74.5734795237739263
 20
25.8269056905526497
 30
0.0
 11
74.5734795237739263
 21
45.8269056905526497
 31
0.0
  0
LINE
  5
71
100
AcDbEntity
100
AcDbLine
  8
0
 62
256
370
-1
  6
BYLAYER
 10
74.5734795237739263
 20
45.8269056905526497
 30
0.0
 11
44.5734795237739263
 21
45.8269056905526497
 31
0.0
  0
LINE
  5
72
100
AcDbEntity
100
AcDbLine
  8
0
 62
256
370
-1
  6
BYLAYER
 10
44.5734795237739263
 20
45.8269056905526497
 30
0.0
 11
44.5734795237739263
 21
85.8269056905526497
 31
0.0
  0
LINE
  5
73
100
AcDbEntity
100
AcDbLine
  8
0
 62
256
370
-1
  6
BYLAYER
 10
44.5734795237739263
 20
85.8269056905526497
 30
0.0
 11
74.5734795237739263
 21
85.8269056905526497
 31
0.0
  0
LINE
  5
74
100
AcDbEntity
100
AcDbLine
  8
0
 62
256
370
-1
  6
BYLAYER
 10
74.5734795237739263
 20
85.8269056905526497
 30
0.0
 11
74.5734795237739263
 21
105.8269056905526497
 31
0.0
  0
LINE
  5
75
100
AcDbEntity
100
AcDbLine
  8
0
 62
256
370
-1
  6
DASHDOT2
 10
59.5734795237739263
 20
45.8269056905526497
 30
0.0
 11
59.5734795237739263
 21
25.8269056905526497
 31
0.0
  0
LINE
  5
76
100
AcDbEntity
100
AcDbLine
  8
0
 62
256
370
-1
  6
BYLAYER
 10
55.5734795237739263
 20
45.8269056905526497
 30
0.0
 11
55.5734795237739263
 21
25.8269056905526497
 31
0.0
  0
LINE
  5
77
100
AcDbEntity
100
AcDbLine
  8
0
 62
256
370
-1
  6
BYLAYER
 10
63.5734795237739263
 20
45.8269056905526497
 30
0.0
 11
63.5734795237739263
 21
25.8269056905526497
 31
0.0
  0
LINE
  5
78
100
AcDbEntity
100
AcDbLine
  8
0
 62
256
370
-1
  6
BYLAYER
 10
63.0734795237739263
 20
45.8269056905526497
 30
0.0
 11
63.0734795237739263
 21
25.8269056905526497
 31
0.0
  0
LINE
  5
79
100
AcDbEntity
100
AcDbLine
  8
0
 62
256
370
-1
  6
BYLAYER
 10
56.0734795237739263
 20
45.8269056905526497
 30
0.0
 11
56.0734795237739263
 21
25.8269056905526497
 31
0.0
  0
LINE
  5
7A
100
AcDbEntity
100
AcDbLine
  8
0
 62
256
370
-1
  6
DASHED
 10
34.5734795237739263
 20
105.8269056905526497
 30
0.0
 11
34.5734795237739263
 21
25.8269056905526497
 31
0.0
  0
LINE
  5
7B
100
AcDbEntity
100
AcDbLine
  8
0
 62
256
370
-1
  6
BYLAYER
 10
24.5734795237739263
 20
40.8269056905526497
 30
0.0
 11
39.5734795237739263
 21
40.8269056905526497
 31
0.0
  0
LINE
  5
7C
100
AcDbEntity
100
AcDbLine
  8
0
 62
256
370
-1
  6
BYLAYER
 10
24.5734795237739263
 20
90.8269056905526497
 30
0.0
 11
39.5734795237739263
 21
90.8269056905526497
 31
0.0
  0
LINE
  5
7D
100
AcDbEntity
100
AcDbLine
  8
0
 62
256
370
-1
  6
BYLAYER
 10
24.5734795237739263
 20
92.3269056905526497
 30
0.0
 11
39.5734795237739263
 21
92.3269056905526497
 31
0.0
  0
LINE
  5
7E
100
AcDbEntity
100
AcDbLine
  8
0
 62
256
370
-1
  6
BYLAYER
 10
24.5734795237739263
 20
89.3269056905526497
 30
0.0
 11
39.5734795237739263
 21
89.3269056905526497
 31
0.0
  0
LINE
  5
7F
100
AcDbEntity
100
AcDbLine
  8
0
 62
256
370
-1
  6
BYLAYER
 10
24.5734795237739263
 20
42.3269056905526497
 30
0.0
 11
39.5734795237739263
 21
42.3269056905526497
 31
0.0
  0
LINE
  5
80
100
AcDbEntity
100
AcDbLine
  8
0
 62
256
370
-1
  6
BYLAYER
 10
24.5734795237739263
 20
39.3269056905526497
 30
0.0
 11
39.5734795237739263
 21
39.3269056905526497
 31
0.0
  0
LINE
  5
81
100
AcDbEntity
100
AcDbLine
  8
0
 62
256
370
-1
  6
BYLAYER
 10
39.5734795237739263
 20
92.3269056905526497
 30
0.0
 11
39.5734795237739263
 21
89.3269056905526497
 31
0.0
  0
LINE
  5
82
100
AcDbEntity
100
AcDbLine
  8
0
 62
256
370
-1
  6
BYLAYER
 10
39.5734795237739263
 20
42.3269056905526497
 30
0.0
 11
39.5734795237739263
 21
39.3269056905526497
 31
0.0
  0
LINE
  5
83
100
AcDbEntity
100
AcDbLine
  8
0
 62
256
370
-1
  6
BYLAYER
 10
24.5734795237739263
 20
91.926905690552644
 30
0.0
 11
39.5734795237739263
 21
91.926905690552644
 31
0.0
  0
LINE
  5
84
100
AcDbEntity
100
AcDbLine
  8
0
 62
256
370
-1
  6
BYLAYER
 10
24.5734795237739263
 20
41.9269056905526512
 30
0.0
 11
39.5734795237739263
 21
41.9269056905526512
 31
0.0
  0
LINE
  5
85
100
AcDbEntity
100
AcDbLine
  8
0
 62
256
370
-1
  6
BYLAYER
 10
24.5734795237739263
 20
39.7269056905526483
 30
0.0
 11
39.5734795237739263
 21
39.7269056905526483
 31
0.0
  0
LINE
  5
86
100
AcDbEntity
100
AcDbLine
  8
0
 62
256
370
-1
  6
BYLAYER
 10
24.5734795237739263
 20
89.7269056905526554
 30
0.0
 11
39.5734795237739263
 21
89.7269056905526554
 31
0.0
  0
DIMENSION
  5
87
100
AcDbEntity
  8
0
 62
256
370
-1
  6
BYLAYER
100
AcDbDimension
 10
80.6869659348359107
 20
85.7459917055918908
 30
0.0
 11
78.8119659348359107
 21
95.8269056905526497
 31
0.0
 70
0
 71
8
 72
2
 41
1.0
 42
0.0
  1

  3
Standard
100
AcDbAlignedDimension
 13
74.5734795237739263
 23
105.8269056905526497
 33
0.0
 14
74.5734795237739263
 24
85.8269056905526497
 34
0.0
 50
90.0
100
AcDbRotatedDimension
  0
DIMENSION
  5
88
100
AcDbEntity
  8
bemassung
 62
256
370
-1
  6
BYLAYER
100
AcDbDimension
 10
80.6869659348359107
 20
45.569991705591903
 30
0.0
 11
78.8119659348359107
 21
65.8269056905526497
 31
0.0
 70
0
 71
8
 72
2
 41
1.0
 42
0.0
  1

  3
Standard
100
AcDbAlignedDimension
 13
74.5734795237739263
 23
85.8269056905526497
 33
0.0
 14
74.5734795237739263
 24
45.8269056905526497
 34
0.0
 50
90.0
100
AcDbRotatedDimension
  0
DIMENSION
  5
89
100
AcDbEntity
  8
bemassung
 62
256
370
-1
  6
BYLAYER
100
AcDbDimension
 10
80.6869659348359107
 20
24.9779917055919043
 30
0.0
 11
78.8119659348359107
 21
35.8269056905526497
 31
0.0
 70
0
 71
8
 72
2
 41
1.0
 42
0.0
  1

  3
Standard
100
AcDbAlignedDimension
 13
74.5734795237739263
 23
45.8269056905526497
 33
0.0
 14
74.5734795237739263
 24
25.8269056905526497
 34
0.0
 50
90.0
100
AcDbRotatedDimension
  0
DIMENSION
  5
8A
100
AcDbEntity
  8
bemassung
 62
256
370
-1
  6
BYLAYER
100
AcDbDimension
 10
54.3349659348359211
 20
110.0819917055918893
 30
0.0
 11
49.5734795237739263
 21
111.9569917055918893
 31
0.0
 70
0
 71
8
 72
2
 41
1.0
 42
0.0
  1

  3
Standard
100
AcDbAlignedDimension
 13
24.5734795237739263
 23
105.8269056905526497
 33
0.0
 14
74.5734795237739263
 24
105.8269056905526497
 34
0.0
 50
0.0
100
AcDbRotatedDimension
  0
DIMENSION
  5
8B
100
AcDbEntity
  8
bemassung
 62
256
370
-1
  6
BYLAYER
100
AcDbDimension
 10
59.5189659348358973
 20
18.9299917055919096
 30
0.0
 11
67.0734795237739263
 21
20.8049917055919096
 31
0.0
 70
0
 71
8
 72
2
 41
1.0
 42
0.0
  1

  3
Standard
100
AcDbAlignedDimension
 13
74.5734795237739263
 23
25.8269056905526497
 33
0.0
 14
59.5734795237739263
 24
25.8269056905526497
 34
0.0
 50
0.0
100
AcDbRotatedDimension
  0
DIMENSION
  5
8C
100
AcDbEntity
  8
bemassung
 62
256
370
-1
  6
BYLAYER
100
AcDbDimension
 10
33.8869659348359065
 20
18.7859917055919183
 30
0.0
 11
29.5734795237739263
 21
20.6609917055919183
 31
0.0
 70
0
 71
8
 72
2
 41
1.0
 42
0.0
  1

  3
Standard
100
AcDbAlignedDimension
 13
24.5734795237739263
 23
25.8269056905526497
 33
0.0
 14
34.5734795237739263
 24
25.8269056905526497
 34
0.0
 50
0.0
100
AcDbRotatedDimension
  0
DIMENSION
  5
8D
100
AcDbEntity
  8
bemassung
 62
256
370
-1
  6
BYLAYER
100
AcDbDimension
 10
44.5429659348358982
 20
80.273991705591925
 30
0.0
 11
59.5734795237739263
 21
82.148991705591925
 31
0.0
 70
0
 71
8
 72
2
 41
1.0
 42
0.0
  1

  3
Standard
100
AcDbAlignedDimension
 13
74.5734795237739263
 23
85.8269056905526497
 33
0.0
 14
44.5734795237739263
 24
85.8269056905526497
 34
0.0
 50
0.0
100
AcDbRotatedDimension
  0
DIMENSION
  5
8E
100
AcDbEntity
  8
bemassung
 62
256
370
-1
  6
BYLAYER
100
AcDbDimension
 10
17.3758965939717527
 20
92.3972304495013788
 30
0.0
 11
15.5008965939717527
 21
98.3269056905526497
 31
0.0
 70
0
 71
8
 72
2
 41
1.0
 42
0.0
  1

  3
Standard
100
AcDbAlignedDimension
 13
24.5734795237739263
 23
105.8269056905526497
 33
0.0
 14
24.5734795237739263
 24
90.8269056905526497
 34
0.0
 50
90.0
100
AcDbRotatedDimension
  0
DIMENSION
  5
8F
100
AcDbEntity
  8
bemassung
 62
256
370
-1
  6
BYLAYER
100
AcDbDimension
 10
20.2250406015025774
 20
26.527223705591922
 30
0.0
 11
18.3500406015025774
 21
33.3269056905526497
 31
0.0
 70
0
 71
8
 72
2
 41
1.0
 42
0.0
  1

  3
Standard
100
AcDbAlignedDimension
 13
24.5734795237739263
 23
40.8269056905526497
 33
0.0
 14
24.5734795237739263
 24
25.8269056905526497
 34
0.0
 50
90.0
100
AcDbRotatedDimension
  0
DIMENSION
  5
90
100
AcDbEntity
  8
bemassung
 62
256
370
-1
  6
BYLAYER
100
AcDbDimension
 10
43.7450406015025663
 20
88.6872237055919044
 30
0.0
 11
41.8700406015025663
 21
95.5907945794415355
 31
0.0
 70
0
 71
8
 72
2
 41
1.0
 42
0.0
  1
M3t
  3
Standard
100
AcDbAlignedDimension
 13
39.5734795237739263
 23
92.3269056905526497
 33
0.0
 14
39.5734795237739263
 24
89.3269056905526497
 34
0.0
 50
90.0
100
AcDbRotatedDimension
  0
DIMENSION
  5
91
100
AcDbEntity
  8
bemassung
 62
256
370
-1
  6
BYLAYER
100
AcDbDimension
 10
43.6250406015025689
 20
58.567223705591914
 30
0.0
 11
41.7500406015025689
 21
45.5907945794415355
 31
0.0
 70
0
 71
8
 72
2
 41
1.0
 42
0.0
  1
M3t
  3
Standard
100
AcDbAlignedDimension
 13
39.5734795237739263
 23
42.3269056905526497
 33
0.0
 14
39.5734795237739263
 24
39.3269056905526497
 34
0.0
 50
90.0
100
AcDbRotatedDimension
  0
LINE
  5
92
100
AcDbEntity
100
AcDbLine
  8
0
 62
256
370
-1
  6
BYLAYER
 10
24.5734795237739263
 20
125.8269056905526497
 30
0.0
 11
74.5734795237739263
 21
125.8269056905526497
 31
0.0
  0
LINE
  5
93
100
AcDbEntity
100
AcDbLine
  8
0
 62
256
370
-1
  6
BYLAYER
 10
74.5734795237739263
 20
125.8269056905526497
 30
0.0
 11
74.5734795237739263
 21
165.8269056905526497
 31
0.0
  0
LINE
  5
94
100
AcDbEntity
100
AcDbLine
  8
0
 62
256
370
-1
  6
BYLAYER
 10
74.5734795237739263
 20
165.8269056905526497
 30
0.0
 11
24.5734795237739263
 21
165.8269056905526497
 31
0.0
  0
LINE
  5
95
100
AcDbEntity
100
AcDbLine
  8
0
 62
256
370
-1
  6
BYLAYER
 10
24.5734795237739263
 20
140.8269056905526497
 30
0.0
 11
24.5734795237739263
 21
125.8269056905526497
 31
0.0
  0
LINE
  5
96
100
AcDbEntity
100
AcDbLine
  8
0
 62
256
370
-1
  6
BYLAYER
 10
24.5734795237739263
 20
150.8269056905526497
 30
0.0
 11
34.5734795237739263
 21
150.8269056905526497
 31
0.0
  0
LINE
  5
97
100
AcDbEntity
100
AcDbLine
  8
0
 62
256
370
-1
  6
BYLAYER
 10
34.5734795237739263
 20
150.8269056905526497
 30
0.0
 11
34.5734795237739263
 21
140.8269056905526497
 31
0.0
  0
LINE
  5
98
100
AcDbEntity
100
AcDbLine
  8
0
 62
256
370
-1
  6
BYLAYER
 10
34.5734795237739263
 20
140.8269056905526497
 30
0.0
 11
24.5734795237739263
 21
140.8269056905526497
 31
0.0
  0
LINE
  5
99
100
AcDbEntity
100
AcDbLine
  8
0
 62
256
370
-1
  6
BYLAYER
 10
24.5734795237739263
 20
165.8269056905526497
 30
0.0
 11
24.5734795237739263
 21
150.8269056905526497
 31
0.0
  0
CIRCLE
  5
9A
100
AcDbEntity
100
AcDbCircle
  8
0
 62
256
370
-1
  6
BYLAYER
 10
29.5734795237739263
 20
95.8269056905526497
 30
0.0
 40
1.0
  0
CIRCLE
  5
9B
100
AcDbEntity
100
AcDbCircle
  8
0
 62
256
370
-1
  6
BYLAYER
 10
29.5734795237739263
 20
95.8269056905526497
 30
0.0
 40
0.7
  0
DIMENSION
  5
9C
100
AcDbEntity
  8
bemassung
 62
256
370
-1
  6
BYLAYER
100
AcDbDimension
 10
21.4908965939717511
 20
102.0930082272791566
 30
0.0
 11
19.6158965939717511
 21
100.8269056905526497
 31
0.0
 70
0
 71
8
 72
2
 41
1.0
 42
0.0
  1

  3
Standard
100
AcDbAlignedDimension
 13
29.5734795237739263
 23
95.8269056905526497
 33
0.0
 14
24.5734795237739263
 24
105.8269056905526497
 34
0.0
 50
90.0
100
AcDbRotatedDimension
  0
CIRCLE
  5
9D
100
AcDbEntity
100
AcDbCircle
  8
0
 62
256
370
-1
  6
DASHED
 10
59.5734795237739263
 20
145.8269056905526497
 30
0.0
 40
4.0
  0
CIRCLE
  5
9E
100
AcDbEntity
100
AcDbCircle
  8
0
 62
256
370
-1
  6
DASHED
 10
59.5734795237739263
 20
145.8269056905526497
 30
0.0
 40
3.6000000000000001
  0
DIMENSION
  5
9F
100
AcDbEntity
  8
bemassung
 62
256
370
-1
  6
BYLAYER
100
AcDbDimension
 10
63.388907367305066
 20
51.1577576459459067
 30
0.0
 11
59.5734795237739263
 21
53.0327576459459067
 31
0.0
 70
0
 71
8
 72
2
 41
1.0
 42
0.0
  1
M8t
  3
Standard
100
AcDbAlignedDimension
 13
55.5734795237739263
 23
45.8269056905526497
 33
0.0
 14
63.5734795237739263
 24
45.8269056905526497
 34
0.0
 50
0.0
100
AcDbRotatedDimension
  0
DIMENSION
  5
A0
100
AcDbEntity
  8
bemassung
 62
256
370
-1
  6
BYLAYER
100
AcDbDimension
 10
62.4019066485201179
 20
148.6553328152988342
 30
0.0
 11
58.2476543090491532
 21
147.1527309052774228
 31
0.0
 70
131
 71
8
 72
2
 41
1.0
 42
0.0
  1
M8t
  3
Standard
100
AcDbDiametricDimension
 15
56.7450523990277347
 25
142.9984785658064652
 35
0.0
 40
0.0
  0
LINE
  5
A1
100
AcDbEntity
100
AcDbLine
  8
0
 62
256
370
-1
  6
DASHDOT2
 10
29.5734795237739263
 20
165.8269056905526497
 30
0.0
 11
29.5734795237739263
 21
150.8269056905526497
 31
0.0
  0
LINE
  5
A2
100
AcDbEntity
100
AcDbLine
  8
0
 62
256
370
-1
  6
DASHDOT2
 10
24.5734795237739263
 20
155.8269056905526497
 30
0.0
 11
39.5734795237739263
 21
155.8269056905526497
 31
0.0
  0
LINE
  5
A3
100
AcDbEntity
100
AcDbLine
  8
0
 62
256
370
-1
  6
DASHDOT2
 10
24.5734795237739263
 20
135.8269056905526497
 30
0.0
 11
39.5734795237739263
 21
135.8269056905526497
 31
0.0
  0
LINE
  5
A4
100
AcDbEntity
100
AcDbLine
  8
0
 62
256
370
-1
  6
DASHED
 10
44.5734795237739263
 20
125.8269056905526497
 30
0.0
 11
44.5734795237739263
 21
165.8269056905526497
 31
0.0
  0
LINE
  5
A5
100
AcDbEntity
100
AcDbLine
  8
0
 62
256
370
-1
  6
BYLAYER
 10
24.5734795237739263
 20
157.3269056905526497
 30
0.0
 11
39.5734795237739263
 21
157.3269056905526497
 31
0.0
  0
LINE
  5
A6
100
AcDbEntity
100
AcDbLine
  8
0
 62
256
370
-1
  6
BYLAYER
 10
24.5734795237739263
 20
154.3269056905526497
 30
0.0
 11
39.5734795237739263
 21
154.3269056905526497
 31
0.0
  0
LINE
  5
A7
100
AcDbEntity
100
AcDbLine
  8
0
 62
256
370
-1
  6
BYLAYER
 10
24.5734795237739263
 20
137.3269056905526497
 30
0.0
 11
39.5734795237739263
 21
137.3269056905526497
 31
0.0
  0
LINE
  5
A8
100
AcDbEntity
100
AcDbLine
  8
0
 62
256
370
-1
  6
BYLAYER
 10
24.5734795237739263
 20
134.3269056905526497
 30
0.0
 11
39.5734795237739263
 21
134.3269056905526497
 31
0.0
  0
LINE
  5
A9
100
AcDbEntity
100
AcDbLine
  8
0
 62
256
370
-1
  6
BYLAYER
 10
28.5734795237739263
 20
165.8269056905526497
 30
0.0
 11
28.5734795237739263
 21
150.8269056905526497
 31
0.0
  0
LINE
  5
AA
100
AcDbEntity
100
AcDbLine
  8
0
 62
256
370
-1
  6
BYLAYER
 10
30.5734795237739263
 20
165.8269056905526497
 30
0.0
 11
30.5734795237739263
 21
150.8269056905526497
 31
0.0
  0
LINE
  5
AB
100
AcDbEntity
100
AcDbLine
  8
0
 62
256
370
-1
  6
BYLAYER
 10
39.5734795237739263
 20
157.3269056905526497
 30
0.0
 11
39.5734795237739263
 21
154.3269056905526497
 31
0.0
  0
LINE
  5
AC
100
AcDbEntity
100
AcDbLine
  8
0
 62
256
370
-1
  6
BYLAYER
 10
39.5734795237739263
 20
137.3269056905526497
 30
0.0
 11
39.5734795237739263
 21
134.3269056905526497
 31
0.0
  0
LINE
  5
AD
100
AcDbEntity
100
AcDbLine
  8
0
 62
256
370
-1
  6
BYLAYER
 10
24.5734795237739263
 20
156.926905690552644
 30
0.0
 11
39.5734795237739263
 21
156.926905690552644
 31
0.0
  0
LINE
  5
AE
100
AcDbEntity
100
AcDbLine
  8
0
 62
256
370
-1
  6
BYLAYER
 10
24.5734795237739263
 20
154.7269056905526554
 30
0.0
 11
39.5734795237739263
 21
154.7269056905526554
 31
0.0
  0
LINE
  5
AF
100
AcDbEntity
100
AcDbLine
  8
0
 62
256
370
-1
  6
BYLAYER
 10
24.5734795237739263
 20
136.926905690552644
 30
0.0
 11
39.5734795237739263
 21
136.926905690552644
 31
0.0
  0
LINE
  5
B0
100
AcDbEntity
100
AcDbLine
  8
0
 62
256
370
-1
  6
BYLAYER
 10
24.5734795237739263
 20
134.7269056905526554
 30
0.0
 11
39.5734795237739263
 21
134.7269056905526554
 31
0.0
  0
LINE
  5
B1
100
AcDbEntity
100
AcDbLine
  8
0
 62
256
370
-1
  6
BYLAYER
 10
28.9734795237739249
 20
165.8269056905526497
 30
0.0
 11
28.9734795237739249
 21
150.8269056905526497
 31
0.0
  0
LINE
  5
B2
100
AcDbEntity
100
AcDbLine
  8
0
 62
256
370
-1
  6
BYLAYER
 10
30.1734795237739277
 20
165.8269056905526497
 30
0.0
 11
30.1734795237739277
 21
150.8269056905526497
 31
0.0
  0
DIMENSION
  5
B3
100
AcDbEntity
  8
bemassung
 62
256
370
-1
  6
BYLAYER
100
AcDbDimension
 10
70.893769712984124
 20
120.6602275224890661
 30
0.0
 11
67.0734795237739263
 21
122.5352275224890661
 31
0.0
 70
0
 71
8
 72
2
 41
1.0
 42
0.0
  1

  3
Standard
100
AcDbAlignedDimension
 13
59.5734795237739263
 23
145.8269056905526497
 33
0.0
 14
74.5734795237739263
 24
140.8269056905526497
 34
0.0
 50
0.0
100
AcDbRotatedDimension
  0
LINE
  5
B4
100
AcDbEntity
100
AcDbLine
  8
0
 62
256
370
-1
  6
BYLAYER
 10
135.1906284289748044
 20
180.9025578016475038
 30
0.0
 11
175.1906284289748044
 21
180.9025578016475038
 31
0.0
  0
LINE
  5
B5
100
AcDbEntity
100
AcDbLine
  8
0
 62
256
370
-1
  6
BYLAYER
 10
175.1906284289748044
 20
180.9025578016475038
 30
0.0
 11
175.1906284289748044
 21
260.9025578016475038
 31
0.0
  0
LINE
  5
B6
100
AcDbEntity
100
AcDbLine
  8
0
 62
256
370
-1
  6
BYLAYER
 10
175.1906284289748044
 20
260.9025578016475038
 30
0.0
 11
135.1906284289748044
 21
260.9025578016475038
 31
0.0
  0
LINE
  5
B7
100
AcDbEntity
100
AcDbLine
  8
0
 62
256
370
-1
  6
BYLAYER
 10
135.1906284289748044
 20
260.9025578016475038
 30
0.0
 11
135.1906284289748044
 21
180.9025578016475038
 31
0.0
  0
LINE
  5
B8
100
AcDbEntity
100
AcDbLine
  8
0
 62
256
370
-1
  6
BYLAYER
 10
150.1906284289748044
 20
180.9025578016475038
 30
0.0
 11
160.1906284289748044
 21
180.9025578016475038
 31
0.0
  0
LINE
  5
B9
100
AcDbEntity
100
AcDbLine
  8
0
 62
256
370
-1
  6
BYLAYER
 10
160.1906284289748044
 20
260.9025578016475038
 30
0.0
 11
150.1906284289748044
 21
260.9025578016475038
 31
0.0
  0
CIRCLE
  5
BA
100
AcDbEntity
100
AcDbCircle
  8
0
 62
256
370
-1
  6
BYLAYER
 10
145.1906284289748044
 20
195.9025578016475038
 30
0.0
 40
1.5
  0
CIRCLE
  5
BB
100
AcDbEntity
100
AcDbCircle
  8
0
 62
256
370
-1
  6
BYLAYER
 10
165.1906284289748044
 20
195.9025578016475038
 30
0.0
 40
1.5
  0
CIRCLE
  5
BC
100
AcDbEntity
100
AcDbCircle
  8
0
 62
256
370
-1
  6
BYLAYER
 10
145.1906284289748044
 20
245.9025578016475038
 30
0.0
 40
1.5
  0
CIRCLE
  5
BD
100
AcDbEntity
100
AcDbCircle
  8
0
 62
256
370
-1
  6
BYLAYER
 10
165.1906284289748044
 20
245.9025578016475038
 30
0.0
 40
1.5
  0
DIMENSION
  5
BE
100
AcDbEntity
  8
bemassung
 62
256
370
-1
  6
BYLAYER
100
AcDbDimension
 10
146.2512886007546342
 20
196.9632179734273052
 30
0.0
 11
147.2333813524026311
 21
200.5969611545248483
 31
0.0
 70
3
 71
8
 72
2
 41
1.0
 42
0.0
  1
M3c
  3
Standard
100
AcDbDiametricDimension
 15
144.1299682571950029
 25
194.8418976298676739
 35
0.0
 40
0.0
  0
DIMENSION
  5
BF
100
AcDbEntity
  8
bemassung
 62
256
370
-1
  6
BYLAYER
100
AcDbDimension
 10
166.2512886007546342
 20
196.9632179734272768
 30
0.0
 11
167.2333813524026311
 21
200.5969611545248199
 31
0.0
 70
3
 71
8
 72
2
 41
1.0
 42
0.0
  1
M3c
  3
Standard
100
AcDbDiametricDimension
 15
164.1299682571949745
 25
194.8418976298676171
 35
0.0
 40
0.0
  0
DIMENSION
  5
C0
100
AcDbEntity
  8
bemassung
 62
256
370
-1
  6
BYLAYER
100
AcDbDimension
 10
166.2512886007546342
 20
246.9632179734272768
 30
0.0
 11
167.233381352402688
 21
250.5969611545247915
 31
0.0
 70
3
 71
8
 72
2
 41
1.0
 42
0.0
  1
M3c
  3
Standard
100
AcDbDiametricDimension
 15
164.1299682571949745
 25
244.8418976298676739
 35
0.0
 40
0.0
  0
DIMENSION
  5
C1
100
AcDbEntity
  8
bemassung
 62
256
370
-1
  6
BYLAYER
100
AcDbDimension
 10
187.8355949610244124
 20
258.5086897439842915
 30
0.0
 11
185.9605949610244124
 21
220.9025578016475038
 31
0.0
 70
0
 71
8
 72
2
 41
1.0
 42
0.0
  1

  3
Standard
100
AcDbAlignedDimension
 13
175.1906284289748044
 23
180.9025578016475038
 33
0.0
 14
175.1906284289748044
 24
260.9025578016475038
 34
0.0
 50
90.0
100
AcDbRotatedDimension
  0
DIMENSION
  5
C2
100
AcDbEntity
  8
bemassung
 62
256
370
-1
  6
BYLAYER
100
AcDbDimension
 10
181.6582616276911324
 20
256.4098897439843086
 30
0.0
 11
179.7832616276911324
 21
253.4025578016475038
 31
0.0
 70
0
 71
8
 72
2
 41
1.0
 42
0.0
  1

  3
Standard
100
AcDbAlignedDimension
 13
145.1906284289748044
 23
245.9025578016475038
 33
0.0
 14
145.1906284289748044
 24
260.9025578016475038
 34
0.0
 50
90.0
100
AcDbRotatedDimension
  0
DIMENSION
  5
C3
100
AcDbEntity
  8
bemassung
 62
256
370
-1
  6
BYLAYER
100
AcDbDimension
 10
181.6915949610244354
 20
182.4598897439831262
 30
0.0
 11
179.8165949610244354
 21
188.4025578016475038
 31
0.0
 70
0
 71
8
 72
2
 41
1.0
 42
0.0
  1

  3
Standard
100
AcDbAlignedDimension
 13
145.1906284289748044
 23
195.9025578016475322
 33
0.0
 14
175.1906284289748044
 24
180.9025578016475038
 34
0.0
 50
90.0
100
AcDbRotatedDimension
  0
DIMENSION
  5
C4
100
AcDbEntity
  8
bemassung
 62
256
370
-1
  6
BYLAYER
100
AcDbDimension
 10
181.6582616276911324
 20
245.9025578016475322
 30
0.0
 11
179.7832616276911324
 21
220.9025578016475038
 31
0.0
 70
0
 71
8
 72
2
 41
1.0
 42
0.0
  1

  3
Standard
100
AcDbAlignedDimension
 13
181.6915949610244638
 23
195.9025578016475038
 33
0.0
 14
181.6582616276911324
 24
245.9025578016475322
 34
0.0
 50
90.0
100
AcDbRotatedDimension
  0
DIMENSION
  5
C5
100
AcDbEntity
  8
bemassung
 62
256
370
-1
  6
BYLAYER
100
AcDbDimension
 10
146.2512886007546342
 20
246.9632179734273336
 30
0.0
 11
147.2333813524026027
 21
250.5969611545249052
 31
0.0
 70
3
 71
8
 72
2
 41
1.0
 42
0.0
  1
M3c
  3
Standard
100
AcDbDiametricDimension
 15
144.1299682571949745
 25
244.8418976298676455
 35
0.0
 40
0.0
  0
DIMENSION
  5
C6
100
AcDbEntity
  8
bemassung
 62
256
370
-1
  6
BYLAYER
100
AcDbDimension
 10
172.687469085304258
 20
173.9337000394826021
 30
0.0
 11
155.1906284289748328
 21
175.8087000394826021
 31
0.0
 70
0
 71
8
 72
2
 41
1.0
 42
0.0
  1

  3
Standard
100
AcDbAlignedDimension
 13
135.1906284289748328
 23
180.9025578016475038
 33
0.0
 14
175.1906284289748328
 24
180.9025578016475038
 34
0.0
 50
0.0
100
AcDbRotatedDimension
  0
LINE
  5
C7
100
AcDbEntity
100
AcDbLine
  8
0
 62
256
370
-1
  6
BYLAYER
 10
128.9777362689750078
 20
181.2996726816474506
 30
0.0
 11
118.9777362689750078
 21
181.2996726816474506
 31
0.0
  0
LINE
  5
C8
100
AcDbEntity
100
AcDbLine
  8
0
 62
256
370
-1
  6
BYLAYER
 10
118.9777362689750078
 20
181.2996726816474506
 30
0.0
 11
118.9777362689750078
 21
261.2996726816475075
 31
0.0
  0
LINE
  5
C9
100
AcDbEntity
100
AcDbLine
  8
0
 62
256
370
-1
  6
BYLAYER
 10
118.9777362689750078
 20
261.2996726816475075
 30
0.0
 11
128.9777362689750078
 21
261.2996726816475075
 31
0.0
  0
LINE
  5
CA
100
AcDbEntity
100
AcDbLine
  8
0
 62
256
370
-1
  6
BYLAYER
 10
128.9777362689750078
 20
261.2996726816475075
 30
0.0
 11
128.9777362689750078
 21
181.2996726816474506
 31
0.0
  0
LINE
  5
CB
100
AcDbEntity
100
AcDbLine
  8
0
 62
256
370
-1
  6
DASHDOT2
 10
118.9777362689750078
 20
196.2996726816474506
 30
0.0
 11
128.9777362689750078
 21
196.2996726816474506
 31
0.0
  0
LINE
  5
CC
100
AcDbEntity
100
AcDbLine
  8
0
 62
256
370
-1
  6
DASHDOT2
 10
128.9777362689750078
 20
246.2996726816474506
 30
0.0
 11
118.9777362689750078
 21
246.2996726816474506
 31
0.0
  0
LINE
  5
CD
100
AcDbEntity
100
AcDbLine
  8
0
 62
256
370
-1
  6
BYLAYER
 10
128.9777362689750078
 20
247.7996726816474506
 30
0.0
 11
118.9777362689750078
 21
247.7996726816474506
 31
0.0
  0
LINE
  5
CE
100
AcDbEntity
100
AcDbLine
  8
0
 62
256
370
-1
  6
BYLAYER
 10
128.9777362689750078
 20
244.7996726816474506
 30
0.0
 11
118.9777362689750078
 21
244.7996726816474506
 31
0.0
  0
LINE
  5
CF
100
AcDbEntity
100
AcDbLine
  8
0
 62
256
370
-1
  6
BYLAYER
 10
118.9777362689750078
 20
197.7996726816474506
 30
0.0
 11
128.9777362689750078
 21
197.7996726816474506
 31
0.0
  0
LINE
  5
D0
100
AcDbEntity
100
AcDbLine
  8
0
 62
256
370
-1
  6
BYLAYER
 10
118.9777362689750078
 20
194.7996726816474506
 30
0.0
 11
128.9777362689750078
 21
194.7996726816474506
 31
0.0
  0
DIMENSION
  5
D1
100
AcDbEntity
  8
bemassung
 62
256
370
-1
  6
BYLAYER
100
AcDbDimension
 10
113.2529362689750201
 20
246.6180726816474476
 30
0.0
 11
111.3779362689750201
 21
253.7996726816475075
 31
0.0
 70
0
 71
8
 72
2
 41
1.0
 42
0.0
  1

  3
Standard
100
AcDbAlignedDimension
 13
118.9777362689750078
 23
261.2996726816475075
 33
0.0
 14
118.9777362689750078
 24
246.2996726816474791
 34
0.0
 50
90.0
100
AcDbRotatedDimension
  0
DIMENSION
  5
D2
100
AcDbEntity
  8
bemassung
 62
256
370
-1
  6
BYLAYER
100
AcDbDimension
 10
113.2529362689750201
 20
195.4692726816474533
 30
0.0
 11
111.3779362689750201
 21
188.7996726816474506
 31
0.0
 70
0
 71
8
 72
2
 41
1.0
 42
0.0
  1

  3
Standard
100
AcDbAlignedDimension
 13
118.9777362689750078
 23
181.2996726816474506
 33
0.0
 14
118.9777362689750078
 24
196.2996726816474506
 34
0.0
 50
90.0
100
AcDbRotatedDimension
  0
DIMENSION
  5
D3
100
AcDbEntity
  8
bemassung
 62
256
370
-1
  6
BYLAYER
100
AcDbDimension
 10
113.2529362689750201
 20
246.2996726816474791
 30
0.0
 11
111.3779362689750201
 21
221.2996726816474506
 31
0.0
 70
0
 71
8
 72
2
 41
1.0
 42
0.0
  1

  3
Standard
100
AcDbAlignedDimension
 13
118.9777362689750078
 23
196.2996726816474506
 33
0.0
 14
118.9777362689750078
 24
246.2996726816474791
 34
0.0
 50
90.0
100
AcDbRotatedDimension
  0
DIMENSION
  5
D4
100
AcDbEntity
  8
bemassung
 62
256
370
-1
  6
BYLAYER
100
AcDbDimension
 10
128.4593362689749938
 20
176.4612726816474719
 30
0.0
 11
123.9777362689750078
 21
178.3362726816474719
 31
0.0
 70
0
 71
8
 72
2
 41
1.0
 42
0.0
  1

  3
Standard
100
AcDbAlignedDimension
 13
118.9777362689750078
 23
181.2996726816474506
 33
0.0
 14
128.9777362689750078
 24
181.2996726816474506
 34
0.0
 50
0.0
100
AcDbRotatedDimension
  0
DIMENSION
  5
D5
100
AcDbEntity
  8
bemassung
 62
256
370
-1
  6
BYLAYER
100
AcDbDimension
 10
82.5780849639487684
 20
163.7660775694504594
 30
0.0
 11
80.7030849639487684
 21
155.5144056905526497
 31
0.0
 70
0
 71
8
 72
2
 41
1.0
 42
0.0
  1
20
  3
Standard
100
AcDbAlignedDimension
 13
59.5734795237739263
 23
145.2019056905526497
 33
0.0
 14
74.5734795237739263
 24
165.8269056905526497
 34
0.0
 50
90.0
100
AcDbRotatedDimension
  0
DIMENSION
  5
D6
100
AcDbEntity
  8
bemassung
 62
256
370
-1
  6
BYLAYER
100
AcDbDimension
 10
19.6788849639487822
 20
155.2988775694504682
 30
0.0
 11
17.8038849639487822
 21
160.8269056905526497
 31
0.0
 70
0
 71
8
 72
2
 41
1.0
 42
0.0
  1

  3
Standard
100
AcDbAlignedDimension
 13
24.5734795237739263
 23
155.8269056905526497
 33
0.0
 14
24.5734795237739263
 24
165.8269056905526497
 34
0.0
 50
90.0
100
AcDbRotatedDimension
  0
DIMENSION
  5
D7
100
AcDbEntity
  8
bemassung
 62
256
370
-1
  6
BYLAYER
100
AcDbDimension
 10
19.6788849639487822
 20
140.7836775694504752
 30
0.0
 11
17.8038849639487822
 21
145.8269056905526497
 31
0.0
 70
0
 71
8
 72
2
 41
1.0
 42
0.0
  1

  3
Standard
100
AcDbAlignedDimension
 13
24.5734795237739263
 23
150.8269056905526497
 33
0.0
 14
24.5734795237739263
 24
140.8269056905526497
 34
0.0
 50
90.0
100
AcDbRotatedDimension
  0
DIMENSION
  5
D8
100
AcDbEntity
  8
bemassung
 62
256
370
-1
  6
BYLAYER
100
AcDbDimension
 10
24.344484963948787
 20
169.9868775694504563
 30
0.0
 11
27.0734795237739263
 21
171.8618775694504563
 31
0.0
 70
0
 71
8
 72
2
 41
1.0
 42
0.0
  1

  3
Standard
100
AcDbAlignedDimension
 13
29.5734795237739263
 23
165.8269056905526497
 33
0.0
 14
24.5734795237739263
 24
165.8269056905526497
 34
0.0
 50
0.0
100
AcDbRotatedDimension
  0
DIMENSION
  5
D9
100
AcDbEntity
  8
bemassung
 62
256
370
-1
  6
BYLAYER
100
AcDbDimension
 10
19.6788849639487822
 20
135.7724775694504729
 30
0.0
 11
17.8038849639487822
 21
130.8269056905526497
 31
0.0
 70
0
 71
8
 72
2
 41
1.0
 42
0.0
  1

  3
Standard
100
AcDbAlignedDimension
 13
24.5734795237739263
 23
125.8269056905526497
 33
0.0
 14
24.5734795237739263
 24
135.8269056905526497
 34
0.0
 50
90.0
100
AcDbRotatedDimension
  0
DIMENSION
  5
DA
100
AcDbEntity
  8
bemassung
 62
256
370
-1
  6
BYLAYER
100
AcDbDimension
 10
13.4580849639487852
 20
140.7836775694504752
 30
0.0
 11
11.5830849639487852
 21
133.3269056905526497
 31
0.0
 70
0
 71
8
 72
2
 41
1.0
 42
0.0
  1

  3
Standard
100
AcDbAlignedDimension
 13
24.5734795237739263
 23
125.8269056905526497
 33
0.0
 14
24.5734795237739263
 24
140.8269056905526497
 34
0.0
 50
90.0
100
AcDbRotatedDimension
  0
LINE
  5
DB
100
AcDbEntity
100
AcDbLine
  8
0
 62
256
370
-1
  6
BYLAYER
 10
135.2317394959983403
 20
267.8193255694504842
 30
0.0
 11
175.2317394959983403
 21
267.8193255694504842
 31
0.0
  0
LINE
  5
DC
100
AcDbEntity
100
AcDbLine
  8
0
 62
256
370
-1
  6
BYLAYER
 10
175.2317394959983403
 20
267.8193255694504842
 30
0.0
 11
175.2317394959983403
 21
277.8193255694504842
 31
0.0
  0
LINE
  5
DD
100
AcDbEntity
100
AcDbLine
  8
0
 62
256
370
-1
  6
BYLAYER
 10
175.2317394959983403
 20
277.8193255694504842
 30
0.0
 11
135.2317394959983403
 21
277.8193255694504842
 31
0.0
  0
LINE
  5
DE
100
AcDbEntity
100
AcDbLine
  8
0
 62
256
370
-1
  6
BYLAYER
 10
135.2317394959983403
 20
277.8193255694504842
 30
0.0
 11
135.2317394959983403
 21
267.8193255694504842
 31
0.0
  0
LINE
  5
DF
100
AcDbEntity
100
AcDbLine
  8
0
 62
256
370
-1
  6
DASHDOT2
 10
145.2317394959983403
 20
267.8193255694504842
 30
0.0
 11
145.2317394959983403
 21
277.8193255694504842
 31
0.0
  0
LINE
  5
E0
100
AcDbEntity
100
AcDbLine
  8
0
 62
256
370
-1
  6
DASHDOT2
 10
165.2317394959983403
 20
277.8193255694504842
 30
0.0
 11
165.2317394959983403
 21
267.8193255694504842
 31
0.0
  0
LINE
  5
E1
100
AcDbEntity
100
AcDbLine
  8
0
 62
256
370
-1
  6
BYLAYER
 10
143.7317394959983403
 20
267.8193255694504842
 30
0.0
 11
143.7317394959983403
 21
277.8193255694504842
 31
0.0
  0
LINE
  5
E2
100
AcDbEntity
100
AcDbLine
  8
0
 62
256
370
-1
  6
BYLAYER
 10
146.7317394959983403
 20
267.8193255694504842
 30
0.0
 11
146.7317394959983403
 21
277.8193255694504842
 31
0.0
  0
LINE
  5
E3
100
AcDbEntity
100
AcDbLine
  8
0
 62
256
370
-1
  6
BYLAYER
 10
163.7317394959983403
 20
277.8193255694504842
 30
0.0
 11
163.7317394959983403
 21
267.8193255694504842
 31
0.0
  0
LINE
  5
E4
100
AcDbEntity
100
AcDbLine
  8
0
 62
256
370
-1
  6
BYLAYER
 10
166.7317394959983403
 20
277.8193255694504842
 30
0.0
 11
166.7317394959983403
 21
267.8193255694504842
 31
0.0
  0
DIMENSION
  5
E5
100
AcDbEntity
  8
bemassung
 62
256
370
-1
  6
BYLAYER
100
AcDbDimension
 10
145.5997394959983353
 20
281.9198055694504319
 30
0.0
 11
140.2317394959983403
 21
283.7948055694504319
 31
0.0
 70
0
 71
8
 72
2
 41
1.0
 42
0.0
  1

  3
Standard
100
AcDbAlignedDimension
 13
135.2317394959983403
 23
277.8193255694504842
 33
0.0
 14
145.2317394959983403
 24
277.8193255694504842
 34
0.0
 50
0.0
100
AcDbRotatedDimension
  0
DIMENSION
  5
E6
100
AcDbEntity
  8
bemassung
 62
256
370
-1
  6
BYLAYER
100
AcDbDimension
 10
165.0915794959983316
 20
281.9198055694504319
 30
0.0
 11
155.2317394959983403
 21
283.7948055694504319
 31
0.0
 70
0
 71
8
 72
2
 41
1.0
 42
0.0
  1

  3
Standard
100
AcDbAlignedDimension
 13
145.2317394959983403
 23
281.9198055694504319
 33
0.0
 14
165.2317394959983403
 24
277.8193255694504842
 34
0.0
 50
0.0
100
AcDbRotatedDimension
  0
DIMENSION
  5
E7
100
AcDbEntity
  8
bemassung
 62
256
370
-1
  6
BYLAYER
100
AcDbDimension
 10
174.0080594959983387
 20
281.9198055694504319
 30
0.0
 11
170.2317394959983403
 21
283.7948055694504319
 31
0.0
 70
0
 71
8
 72
2
 41
1.0
 42
0.0
  1

  3
Standard
100
AcDbAlignedDimension
 13
165.2317394959983403
 23
277.8193255694504842
 33
0.0
 14
175.2317394959983403
 24
277.8193255694504842
 34
0.0
 50
0.0
100
AcDbRotatedDimension
  0
DIMENSION
  5
E8
100
AcDbEntity
  8
bemassung
 62
256
370
-1
  6
BYLAYER
100
AcDbDimension
 10
181.6803794959983236
 20
267.8193255694504842
 30
0.0
 11
179.8053794959983236
 21
272.8193255694504842
 31
0.0
 70
0
 71
8
 72
2
 41
1.0
 42
0.0
  1

  3
Standard
100
AcDbAlignedDimension
 13
175.2317394959983403
 23
277.8193255694504842
 33
0.0
 14
175.2317394959983403
 24
267.8193255694504842
 34
0.0
 50
90.0
100
AcDbRotatedDimension
  0
LINE
  5
E9
100
AcDbEntity
100
AcDbLine
  8
0
 62
256
370
-1
  6
BYLAYER
 10
99.8056914471525829
 20
286.9953923960140969
 30
0.0
 11
99.8056914471525829
 21
166.9953923960140969
 31
0.0
  0
LINE
  5
EA
100
AcDbEntity
100
AcDbLine
  8
0
 62
256
370
-1
  6
BYLAYER
 10
99.8056914471525829
 20
166.9953923960140969
 30
0.0
 11
199.8056914471525829
 21
166.9953923960140969
 31
0.0
  0
LINE
  5
EB
100
AcDbEntity
100
AcDbLine
  8
0
 62
256
370
-1
  6
BYLAYER
 10
199.8056914471525829
 20
166.9953923960140969
 30
0.0
 11
199.8056914471525829
 21
286.9953923960140969
 31
0.0
  0
LINE
  5
EC
100
AcDbEntity
100
AcDbLine
  8
0
 62
256
370
-1
  6
BYLAYER
 10
199.8056914471525829
 20
286.9953923960140969
 30
0.0
 11
99.8056914471525829
 21
286.9953923960140969
 31
0.0
  0
TEXT
  5
ED
100
AcDbEntity
100
AcDbText
  8
0
 62
256
370
-1
  6
BYLAYER
 10
90.517597900213687
 20
-0.8056272809096185
 30
0.0
 40
2.0
  1
4
 50
0.0
 41
1.0
  7
textstyle1
 71
0
 72
0
 11
102.4898284202659084
 21
284.7624731893257604
 31
0.0
 73
3
  0
TEXT
  5
EE
100
AcDbEntity
100
AcDbText
  8
0
 62
256
370
-1
  6
BYLAYER
 10
0.95755263806622
 20
-109.3048935841563036
 30
0.0
 40
2.0
  1
5
 50
0.0
 41
1.0
  7
textstyle2
 71
0
 72
0
 11
12.9297831581184379
 21
176.2632068860790753
 31
0.0
 73
3
  0
ENDSEC
  0
SECTION
  2
OBJECTS
  0
DICTIONARY
  5
C
100
AcDbDictionary
280
0
281
1
  3
ACAD_GROUP
350
D
  3
ACAD_LAYOUT
350
1A
  3
ACAD_MLINESTYLE
350
17
  3
ACAD_PLOTSETTINGS
350
19
  3
ACAD_PLOTSTYLENAME
350
E
  3
AcDbVariableDictionary
350
EF
  3
QCAD_OBJECTS
350
F0
  0
DICTIONARY
  5
D
100
AcDbDictionary
280
0
281
1
  0
ACDBDICTIONARYWDFLT
  5
E
100
AcDbDictionary
281
1
  3
Normal
350
F
100
AcDbDictionaryWithDefault
340
F
  0
ACDBPLACEHOLDER
  5
F
  0
DICTIONARY
  5
17
100
AcDbDictionary
280
0
281
1
  3
Standard
350
18
  0
MLINESTYLE
  5
18
100
AcDbMlineStyle
  2
STANDARD
 70
0
  3

 62
256
 51
90.0
 52
90.0
 71
2
 49
0.5
 62
256
  6
BYLAYER
 49
-0.5
 62
256
  6
BYLAYER
  0
DICTIONARY
  5
19
100
AcDbDictionary
280
0
281
1
  0
DICTIONARY
  5
1A
100
AcDbDictionary
281
1
  3
Layout1
350
1E
  3
Layout2
350
26
  3
Model
350
22
  0
LAYOUT
  5
1E
100
AcDbPlotSettings
  1

  2
C:\Program Files\AutoCAD 2002\plotters\DWF ePlot (optimized for plotting).pc3
  4

  6

 40
0.0
 41
0.0
 42
0.0
 43
0.0
 44
0.0
 45
0.0
 46
0.0
 47
0.0
 48
0.0
 49
0.0
140
0.0
141
0.0
142
1.0
143
1.0
 70
688
 72
0
 73
0
 74
5
  7

 75
16
147
1.0
148
0.0
149
0.0
100
AcDbLayout
  1
Layout1
 70
1
 71
1
 10
0.0
 20
0.0
 11
420.0
 21
297.0
 12
0.0
 22
0.0
 32
0.0
 14
100000000000000000000.0
 24
100000000000000000000.0
 34
100000000000000000000.0
 15
-100000000000000000000.0
 25
-100000000000000000000.0
 35
-100000000000000000000.0
146
0.0
 13
0.0
 23
0.0
 33
0.0
 16
1.0
 26
0.0
 36
0.0
 17
0.0
 27
1.0
 37
0.0
 76
0
330
1B
  0
LAYOUT
  5
22
100
AcDbPlotSettings
  1

  2
C:\Program Files\AutoCAD 2002\plotters\DWF ePlot (optimized for plotting).pc3
  4

  6

 40
0.0
 41
0.0
 42
0.0
 43
0.0
 44
0.0
 45
0.0
 46
0.0
 47
0.0
 48
0.0
 49
0.0
140
0.0
141
0.0
142
1.0
143
1.0
 70
1712
 72
0
 73
0
 74
0
  7

 75
0
147
1.0
148
0.0
149
0.0
100
AcDbLayout
  1
Model
 70
1
 71
0
 10
0.0
 20
0.0
 11
12.0
 21
9.0
 12
0.0
 22
0.0
 32
0.0
 14
0.0
 24
0.0
 34
0.0
 15
0.0
 25
0.0
 35
0.0
146
0.0
 13
0.0
 23
0.0
 33
0.0
 16
1.0
 26
0.0
 36
0.0
 17
0.0
 27
1.0
 37
0.0
 76
0
330
1F
  0
LAYOUT
  5
26
100
AcDbPlotSettings
  1

  2
C:\Program Files\AutoCAD 2002\plotters\DWF ePlot (optimized for plotting).pc3
  4

  6

 40
0.0
 41
0.0
 42
0.0
 43
0.0
 44
0.0
 45
0.0
 46
0.0
 47
0.0
 48
0.0
 49
0.0
140
0.0
141
0.0
142
1.0
143
1.0
 70
688
 72
0
 73
0
 74
5
  7

 75
16
147
1.0
148
0.0
149
0.0
100
AcDbLayout
  1
Layout2
 70
1
 71
2
 10
0.0
 20
0.0
 11
12.0
 21
9.0
 12
0.0
 22
0.0
 32
0.0
 14
0.0
 24
0.0
 34
0.0
 15
0.0
 25
0.0
 35
0.0
146
0.0
 13
0.0
 23
0.0
 33
0.0
 16
1.0
 26
0.0
 36
0.0
 17
0.0
 27
1.0
 37
0.0
 76
0
330
23
  0
DICTIONARY
  5
EF
100
AcDbDictionary
281
1
  3
DIMASSOC
350
F2
  3
HIDETEXT
350
F1
  0
DICTIONARYVAR
  5
F1
100
DictionaryVariables
280
0
  1
2
  0
DICTIONARYVAR
  5
F2
100
DictionaryVariables
280
0
  1
1
  0
DICTIONARY
  5
F0
100
AcDbDictionary
281
1
  3
Grid/DisplayGrid00
350
F3
  3
Grid/DisplayGrid01
350
F4
  3
Grid/DisplayGrid02
350
F5
  3
Grid/DisplayGrid03
350
F6
  3
Grid/GridSpacingX00
350
F7
  3
Grid/GridSpacingX01
350
F8
  3
Grid/GridSpacingX02
350
F9
  3
Grid/GridSpacingX03
350
FA
  3
Grid/GridSpacingY00
350
FB
  3
Grid/GridSpacingY01
350
FC
  3
Grid/GridSpacingY02
350
FD
  3
Grid/GridSpacingY03
350
FE
  3
Grid/IsometricGrid00
350
FF
  3
Grid/IsometricGrid01
350
100
  3
Grid/IsometricGrid02
350
101
  3
Grid/IsometricGrid03
350
102
  3
Grid/IsometricProjection00
350
103
  3
Grid/IsometricProjection01
350
104
  3
Grid/IsometricProjection02
350
105
  3
Grid/IsometricProjection03
350
106
  3
Grid/MetaGridSpacingX00
350
107
  3
Grid/MetaGridSpacingX01
350
108
  3
Grid/MetaGridSpacingX02
350
109
  3
Grid/MetaGridSpacingX03
350
10A
  3
Grid/MetaGridSpacingY00
350
10B
  3
Grid/MetaGridSpacingY01
350
10C
  3
Grid/MetaGridSpacingY02
350
10D
  3
Grid/MetaGridSpacingY03
350
10E
  3
MultiPageSettings/Columns
350
10F
  3
MultiPageSettings/GlueMarginsBottom
350
110
  3
MultiPageSettings/GlueMarginsLeft
350
111
  3
MultiPageSettings/GlueMarginsRight
350
112
  3
MultiPageSettings/GlueMarginsTop
350
113
  3
MultiPageSettings/PrintCropMarks
350
114
  3
MultiPageSettings/Rows
350
115
  3
PageSettings/OffsetX
350
116
  3
PageSettings/OffsetY
350
117
  3
PageSettings/PageOrientation
350
118
  3
PageSettings/PaperHeight
350
119
  3
PageSettings/PaperWidth
350
11A
  3
PageSettings/Scale
350
11B
  3
PageSettings/ShowPaperBorders
350
11C
  3
UnitSettings/PaperUnit
350
11D
  0
XRECORD
  5
F3
330
F0
100
AcDbXrecord
280
1
290
1
  0
XRECORD
  5
F4
330
F0
100
AcDbXrecord
280
1
290
1
  0
XRECORD
  5
F5
330
F0
100
AcDbXrecord
280
1
290
1
  0
XRECORD
  5
F6
330
F0
100
AcDbXrecord
280
1
290
1
  0
XRECORD
  5
F7
330
F0
100
AcDbXrecord
280
1
1000
auto
  0
XRECORD
  5
F8
330
F0
100
AcDbXrecord
280
1
1000
auto
  0
XRECORD
  5
F9
330
F0
100
AcDbXrecord
280
1
1000
auto
  0
XRECORD
  5
FA
330
F0
100
AcDbXrecord
280
1
1000
auto
  0
XRECORD
  5
FB
330
F0
100
AcDbXrecord
280
1
1000
auto
  0
XRECORD
  5
FC
330
F0
100
AcDbXrecord
280
1
1000
auto
  0
XRECORD
  5
FD
330
F0
100
AcDbXrecord
280
1
1000
auto
  0
XRECORD
  5
FE
330
F0
100
AcDbXrecord
280
1
1000
auto
  0
XRECORD
  5
FF
330
F0
100
AcDbXrecord
280
1
290
0
  0
XRECORD
  5
100
330
F0
100
AcDbXrecord
280
1
290
0
  0
XRECORD
  5
101
330
F0
100
AcDbXrecord
280
1
290
0
  0
XRECORD
  5
102
330
F0
100
AcDbXrecord
280
1
290
0
  0
XRECORD
  5
103
330
F0
100
AcDbXrecord
280
1
 90
0
  0
XRECORD
  5
104
330
F0
100
AcDbXrecord
280
1
 90
0
  0
XRECORD
  5
105
330
F0
100
AcDbXrecord
280
1
 90
0
  0
XRECORD
  5
106
330
F0
100
AcDbXrecord
280
1
 90
0
  0
XRECORD
  5
107
330
F0
100
AcDbXrecord
280
1
1000
auto
  0
XRECORD
  5
108
330
F0
100
AcDbXrecord
280
1
1000
auto
  0
XRECORD
  5
109
330
F0
100
AcDbXrecord
280
1
1000
auto
  0
XRECORD
  5
10A
330
F0
100
AcDbXrecord
280
1
1000
auto
  0
XRECORD
  5
10B
330
F0
100
AcDbXrecord
280
1
1000
auto
  0
XRECORD
  5
10C
330
F0
100
AcDbXrecord
280
1
1000
auto
  0
XRECORD
  5
10D
330
F0
100
AcDbXrecord
280
1
1000
auto
  0
XRECORD
  5
10E
330
F0
100
AcDbXrecord
280
1
1000
auto
  0
XRECORD
  5
10F
330
F0
100
AcDbXrecord
280
1
 90
1
  0
XRECORD
  5
110
330
F0
100
AcDbXrecord
280
1
 40
10.0
  0
XRECORD
  5
111
330
F0
100
AcDbXrecord
280
1
 40
10.0
  0
XRECORD
  5
112
330
F0
100
AcDbXrecord
280
1
 40
10.0
  0
XRECORD
  5
113
330
F0
100
AcDbXrecord
280
1
 40
10.0
  0
XRECORD
  5
114
330
F0
100
AcDbXrecord
280
1
290
0
  0
XRECORD
  5
115
330
F0
100
AcDbXrecord
280
1
 90
1
  0
XRECORD
  5
116
330
F0
100
AcDbXrecord
280
1
 40
0.0
  0
XRECORD
  5
117
330
F0
100
AcDbXrecord
280
1
 40
0.0
  0
XRECORD
  5
118
330
F0
100
AcDbXrecord
280
1
1000
Portrait
  0
XRECORD
  5
119
330
F0
100
AcDbXrecord
280
1
 40
297.0
  0
XRECORD
  5
11A
330
F0
100
AcDbXrecord
280
1
 40
210.0
  0
XRECORD
  5
11B
330
F0
100
AcDbXrecord
280
1
1000
1:1
  0
XRECORD
  5
11C
330
F0
100
AcDbXrecord
280
1
290
1
  0
XRECORD
  5
11D
330
F0
100
AcDbXrecord
280
1
 90
4
  0
ENDSEC
  0
EOF
