999
dxflib 3.1.0.0
  0
SECTION
  2
HEADER
  9
$ACADVER
  1
AC1015
  9
$HANDSEED
  5
FFFF
  9
$DIMADEC
 70
0
  9
$DIMASZ
 40
2.5
  9
$DIMAUNIT
 70
0
  9
$DIMAZIN
 70
2
  9
$DIMDEC
 70
4
  9
$DIMEXE
 40
1.25
  9
$DIMEXO
 40
0.625
  9
$DIMGAP
 40
0.625
  9
$DIMLUNIT
 70
2
  9
$DIMTSZ
 40
0.0
  9
$DIMTXT
 40
2.5
  9
$DIMZIN
 70
8
  9
$INSUNITS
 70
4
  9
$LTSCALE
 40
1.0
  0
SECTION
  2
TABLES
  0
TABLE
  2
VPORT
  5
8
100
AcDbSymbolTable
 70
1
  0
VPORT
  5
30
100
AcDbSymbolTableRecord
100
AcDbViewportTableRecord
  2
*Active
 70
0
 10
0.0
 20
0.0
 11
1.0
 21
1.0
 12
286.3055555555554861
 22
148.5
 13
0.0
 23
0.0
 14
10.0
 24
10.0
 15
10.0
 25
10.0
 16
0.0
 26
0.0
 36
1.0
 17
0.0
 27
0.0
 37
0.0
 40
297.0
 41
1.92798353909465
 42
50.0
 43
0.0
 44
0.0
 50
0.0
 51
0.0
 71
0
 72
100
 73
1
 74
3
 75
1
 76
1
 77
0
 78
0
281
0
 65
1
110
0.0
120
0.0
130
0.0
111
1.0
121
0.0
131
0.0
112
0.0
122
1.0
132
0.0
 79
0
146
0.0
  0
ENDTAB
  0
TABLE
  2
LTYPE
  5
5
100
AcDbSymbolTable
 70
21
  0
LTYPE
  5
31
100
AcDbSymbolTableRecord
100
AcDbLinetypeTableRecord
  2
CENTER2
 70
0
  3
Center (.5x) ___ _ ___ _ ___ _ ___ _ ___ _ ___
 72
65
 73
4
 40
28.5749999999999993
 49
19.0500000000000007
 74
0
 49
-3.1749999999999998
 74
0
 49
3.1749999999999998
 74
0
 49
-3.1749999999999998
 74
0
  0
LTYPE
  5
32
100
AcDbSymbolTableRecord
100
AcDbLinetypeTableRecord
  2
DIVIDEX2
 70
0
  3
Divide (2x) ________  .  .  ________  .  .  _
 72
65
 73
6
 40
63.5
 49
25.3999999999999986
 74
0
 49
-12.6999999999999993
 74
0
 49
0.0
 74
0
 49
-12.6999999999999993
 74
0
 49
0.0
 74
0
 49
-12.6999999999999993
 74
0
  0
LTYPE
  5
33
100
AcDbSymbolTableRecord
100
AcDbLinetypeTableRecord
  2
DOT2
 70
0
  3
Dot (.5x) .....................................
 72
65
 73
2
 40
3.1749999999999998
 49
0.0
 74
0
 49
-3.1749999999999998
 74
0
  0
LTYPE
  5
34
100
AcDbSymbolTableRecord
100
AcDbLinetypeTableRecord
  2
DASHDOT2
 70
0
  3
Dash dot (.5x) _._._._._._._._._._._._._._._.
 72
65
 73
4
 40
12.6999999999999993
 49
6.3499999999999996
 74
0
 49
-3.1749999999999998
 74
0
 49
0.0
 74
0
 49
-3.1749999999999998
 74
0
  0
LTYPE
  5
35
100
AcDbSymbolTableRecord
100
AcDbLinetypeTableRecord
  2
DIVIDE
 70
0
  3
Divide ____ . . ____ . . ____ . . ____ . . ____
 72
65
 73
6
 40
31.75
 49
12.6999999999999993
 74
0
 49
-6.3499999999999996
 74
0
 49
0.0
 74
0
 49
-6.3499999999999996
 74
0
 49
0.0
 74
0
 49
-6.3499999999999996
 74
0
  0
LTYPE
  5
36
100
AcDbSymbolTableRecord
100
AcDbLinetypeTableRecord
  2
DASHDOT
 70
0
  3
Dash dot __ . __ . __ . __ . __ . __ . __ . __
 72
65
 73
4
 40
25.3999999999999986
 49
12.6999999999999993
 74
0
 49
-6.3499999999999996
 74
0
 49
0.0
 74
0
 49
-6.3499999999999996
 74
0
  0
LTYPE
  5
37
100
AcDbSymbolTableRecord
100
AcDbLinetypeTableRecord
  2
BORDER
 70
0
  3
Border __ __ . __ __ . __ __ . __ __ . __ __ .
 72
65
 73
6
 40
44.4500000000000028
 49
12.6999999999999993
 74
0
 49
-6.3499999999999996
 74
0
 49
12.6999999999999993
 74
0
 49
-6.3499999999999996
 74
0
 49
0.0
 74
0
 49
-6.3499999999999996
 74
0
  0
LTYPE
  5
38
100
AcDbSymbolTableRecord
100
AcDbLinetypeTableRecord
  2
DASHDOTX2
 70
0
  3
Dash dot (2x) ____  .  ____  .  ____  .  ___
 72
65
 73
4
 40
50.7999999999999972
 49
25.3999999999999986
 74
0
 49
-12.6999999999999993
 74
0
 49
0.0
 74
0
 49
-12.6999999999999993
 74
0
  0
LTYPE
  5
39
100
AcDbSymbolTableRecord
100
AcDbLinetypeTableRecord
  2
CENTERX2
 70
0
  3
Center (2x) ________  __  ________  __  _____
 72
65
 73
4
 40
101.5999999999999943
 49
63.5
 74
0
 49
-12.6999999999999993
 74
0
 49
12.6999999999999993
 74
0
 49
-12.6999999999999993
 74
0
  0
LTYPE
  5
3A
100
AcDbSymbolTableRecord
100
AcDbLinetypeTableRecord
  2
BORDER2
 70
0
  3
Border (.5x) __.__.__.__.__.__.__.__.__.__.__.
 72
65
 73
6
 40
22.2250000000000014
 49
6.3499999999999996
 74
0
 49
-3.1749999999999998
 74
0
 49
6.3499999999999996
 74
0
 49
-3.1749999999999998
 74
0
 49
0.0
 74
0
 49
-3.1749999999999998
 74
0
  0
LTYPE
  5
3B
100
AcDbSymbolTableRecord
100
AcDbLinetypeTableRecord
  2
BORDERX2
 70
0
  3
Border (2x) ____  ____  .  ____  ____  .  ___
 72
65
 73
6
 40
88.9000000000000057
 49
25.3999999999999986
 74
0
 49
-12.6999999999999993
 74
0
 49
25.3999999999999986
 74
0
 49
-12.6999999999999993
 74
0
 49
0.0
 74
0
 49
-12.6999999999999993
 74
0
  0
LTYPE
  5
16
100
AcDbSymbolTableRecord
100
AcDbLinetypeTableRecord
  2
CONTINUOUS
 70
0
  3
Solid line
 72
65
 73
0
 40
0.0
  0
LTYPE
  5
14
100
AcDbSymbolTableRecord
100
AcDbLinetypeTableRecord
  2
BYBLOCK
 70
0
  3

 72
65
 73
0
 40
0.0
  0
LTYPE
  5
15
100
AcDbSymbolTableRecord
100
AcDbLinetypeTableRecord
  2
BYLAYER
 70
0
  3

 72
65
 73
0
 40
0.0
  0
LTYPE
  5
3C
100
AcDbSymbolTableRecord
100
AcDbLinetypeTableRecord
  2
DASHED2
 70
0
  3
Dashed (.5x) _ _ _ _ _ _ _ _ _ _ _ _ _ _ _ _ _
 72
65
 73
2
 40
9.5250000000000004
 49
6.3499999999999996
 74
0
 49
-3.1749999999999998
 74
0
  0
LTYPE
  5
3D
100
AcDbSymbolTableRecord
100
AcDbLinetypeTableRecord
  2
CENTER
 70
0
  3
Center ____ _ ____ _ ____ _ ____ _ ____ _ ____
 72
65
 73
4
 40
50.7999999999999972
 49
31.75
 74
0
 49
-6.3499999999999996
 74
0
 49
6.3499999999999996
 74
0
 49
-6.3499999999999996
 74
0
  0
LTYPE
  5
3E
100
AcDbSymbolTableRecord
100
AcDbLinetypeTableRecord
  2
DIVIDE2
 70
0
  3
Divide (.5x) __..__..__..__..__..__..__..__.._
 72
65
 73
6
 40
15.875
 49
6.3499999999999996
 74
0
 49
-3.1749999999999998
 74
0
 49
0.0
 74
0
 49
-3.1749999999999998
 74
0
 49
0.0
 74
0
 49
-3.1749999999999998
 74
0
  0
LTYPE
  5
3F
100
AcDbSymbolTableRecord
100
AcDbLinetypeTableRecord
  2
DASHED
 70
0
  3
Dashed __ __ __ __ __ __ __ __ __ __ __ __ __ _
 72
65
 73
2
 40
19.0500000000000007
 49
12.6999999999999993
 74
0
 49
-6.3499999999999996
 74
0
  0
LTYPE
  5
40
100
AcDbSymbolTableRecord
100
AcDbLinetypeTableRecord
  2
DOTX2
 70
0
  3
Dot (2x) .  .  .  .  .  .  .  .  .  .  .  .  .
 72
65
 73
2
 40
12.6999999999999993
 49
0.0
 74
0
 49
-12.6999999999999993
 74
0
  0
LTYPE
  5
41
100
AcDbSymbolTableRecord
100
AcDbLinetypeTableRecord
  2
DASHEDX2
 70
0
  3
Dashed (2x) ____  ____  ____  ____  ____  ___
 72
65
 73
2
 40
38.1000000000000014
 49
25.3999999999999986
 74
0
 49
-12.6999999999999993
 74
0
  0
LTYPE
  5
42
100
AcDbSymbolTableRecord
100
AcDbLinetypeTableRecord
  2
DOT
 70
0
  3
Dot . . . . . . . . . . . . . . . . . . . . . .
 72
65
 73
2
 40
6.3499999999999996
 49
0.0
 74
0
 49
-6.3499999999999996
 74
0
  0
ENDTAB
  0
TABLE
  2
LAYER
  5
2
100
AcDbSymbolTable
 70
7
  0
LAYER
  5
43
100
AcDbSymbolTableRecord
100
AcDbLayerTableRecord
  2
bemassung_top
 70
0
 62
59
420
2434341
  6
CONTINUOUS
370
18
390
F
  0
LAYER
  5
44
100
AcDbSymbolTableRecord
100
AcDbLayerTableRecord
  2
bemassung_0
 70
0
 62
59
420
2829099
  6
CONTINUOUS
370
13
390
F
  0
LAYER
  5
45
100
AcDbSymbolTableRecord
100
AcDbLayerTableRecord
  2
layout
 70
0
 62
7
420
0
  6
CONTINUOUS
370
25
390
F
  0
LAYER
  5
46
100
AcDbSymbolTableRecord
100
AcDbLayerTableRecord
  2
bar
 70
0
 62
7
420
0
  6
CONTINUOUS
370
25
390
F
  0
LAYER
  5
10
100
AcDbSymbolTableRecord
100
AcDbLayerTableRecord
  2
0
 70
0
 62
7
420
0
  6
CONTINUOUS
370
25
390
F
  0
LAYER
  5
47
100
AcDbSymbolTableRecord
100
AcDbLayerTableRecord
  2
top
 70
0
 62
7
420
0
  6
CONTINUOUS
370
25
390
F
  0
LAYER
  5
48
100
AcDbSymbolTableRecord
100
AcDbLayerTableRecord
  2
bemassung_bar
 70
0
 62
59
420
2368548
  6
CONTINUOUS
370
13
390
F
  0
ENDTAB
  0
TABLE
  2
STYLE
  5
3
100
AcDbSymbolTable
 70
8
  0
STYLE
  5
49
100
AcDbSymbolTableRecord
100
AcDbTextStyleTableRecord
  2
textstyle0
 70
0
 40
0.0
 41
1.0
 50
0.0
 71
0
 42
1.0
  3
Arial
  4

1001
ACAD
1000
textstyle0
1071
0
  0
STYLE
  5
4A
100
AcDbSymbolTableRecord
100
AcDbTextStyleTableRecord
  2
textstyle1
 70
0
 40
0.0
 41
1.0
 50
0.0
 71
0
 42
1.0
  3
Arial
  4

1001
ACAD
1000
textstyle1
1071
0
  0
STYLE
  5
4B
100
AcDbSymbolTableRecord
100
AcDbTextStyleTableRecord
  2
textstyle2
 70
0
 40
0.0
 41
1.0
 50
0.0
 71
0
 42
1.0
  3
Arial
  4

1001
ACAD
1000
textstyle2
1071
0
  0
STYLE
  5
4C
100
AcDbSymbolTableRecord
100
AcDbTextStyleTableRecord
  2
textstyle3
 70
0
 40
0.0
 41
1.0
 50
0.0
 71
0
 42
2.0
  3
Arial
  4

1001
ACAD
1000
textstyle3
1071
0
  0
STYLE
  5
4D
100
AcDbSymbolTableRecord
100
AcDbTextStyleTableRecord
  2
textstyle4
 70
0
 40
0.0
 41
1.0
 50
0.0
 71
0
 42
1.0
  3
Arial
  4

1001
ACAD
1000
textstyle4
1071
0
  0
STYLE
  5
4E
100
AcDbSymbolTableRecord
100
AcDbTextStyleTableRecord
  2
textstyle5
 70
0
 40
0.0
 41
1.0
 50
0.0
 71
0
 42
1.0
  3
Arial
  4

1001
ACAD
1000
textstyle5
1071
0
  0
STYLE
  5
4F
100
AcDbSymbolTableRecord
100
AcDbTextStyleTableRecord
  2
textstyle6
 70
0
 40
0.0
 41
1.0
 50
0.0
 71
0
 42
2.0
  3
Arial
  4

1001
ACAD
1000
textstyle6
1071
0
  0
STYLE
  5
50
100
AcDbSymbolTableRecord
100
AcDbTextStyleTableRecord
  2
textstyle7
 70
0
 40
0.0
 41
1.0
 50
0.0
 71
0
 42
2.0
  3
Arial
  4

1001
ACAD
1000
textstyle7
1071
0
  0
ENDTAB
  0
TABLE
  2
VIEW
  5
6
100
AcDbSymbolTable
 70
0
  0
ENDTAB
  0
TABLE
  2
UCS
  5
7
100
AcDbSymbolTable
 70
0
  0
ENDTAB
  0
TABLE
  2
APPID
  5
9
100
AcDbSymbolTable
 70
1
  0
APPID
  5
51
100
AcDbSymbolTableRecord
100
AcDbRegAppTableRecord
  2
QCAD
 70
0
  0
ENDTAB
  0
TABLE
  2
DIMSTYLE
  5
A
100
AcDbSymbolTable
 70
1
100
AcDbDimStyleTable
 71
0
  0
DIMSTYLE
105
27
100
AcDbSymbolTableRecord
100
AcDbDimStyleTableRecord
  2
Standard
 41
2.5
 42
0.625
 43
3.75
 44
1.25
 70
0
 73
0
 74
0
 77
1
 78
8
140
2.5
141
2.5
143
0.03937007874016
147
0.625
171
3
172
1
271
2
272
2
274
3
278
44
283
0
284
8
340
11
  0
ENDTAB
  0
TABLE
  2
BLOCK_RECORD
  5
1
100
AcDbSymbolTable
 70
1
  0
BLOCK_RECORD
  5
1F
100
AcDbSymbolTableRecord
100
AcDbBlockTableRecord
  2
*Model_Space
340
22
  0
BLOCK_RECORD
  5
1B
100
AcDbSymbolTableRecord
100
AcDbBlockTableRecord
  2
*Paper_Space
340
1E
  0
BLOCK_RECORD
  5
23
100
AcDbSymbolTableRecord
100
AcDbBlockTableRecord
  2
*Paper_Space0
340
26
  0
BLOCK_RECORD
  5
52
100
AcDbSymbolTableRecord
100
AcDbBlockTableRecord
  2
*Model_Space
340
0
  0
ENDTAB
  0
ENDSEC
  0
SECTION
  2
BLOCKS
  0
BLOCK
  5
20
100
AcDbEntity
  8
0
100
AcDbBlockBegin
  2
*Model_Space
 70
0
 10
0.0
 20
0.0
 30
0.0
  3
*Model_Space
  1

  0
ENDSEC
  0
SECTION
  2
ENTITIES
  0
LINE
  5
53
100
AcDbEntity
100
AcDbLine
  8
top
 62
256
370
-1
  6
BYLAYER
 10
128.0621043203820193
 20
270.2353293678154387
 30
0.0
 11
148.0621043203820477
 21
270.2353293678154387
 31
0.0
  0
HATCH
  5
54
  8
top
 62
252
420
10526884
370
-1
  6
BYLAYER
100
AcDbEntity
100
AcDbHatch
 10
0.0
 20
0.0
 30
0.0
210
0.0
220
0.0
230
1.0
  2
ANSI31
 70
0
 71
0
 91
1
 92
1
 93
4
 72
1
 10
22.6677776443382157
 20
40.6223057409316652
 11
32.6677776443382157
 21
40.6223057409316652
 72
1
 10
32.6677776443382157
 20
40.6223057409316652
 11
32.6135774283918849
 21
12.8865962809022498
 72
1
 10
32.6135774283918849
 20
12.8865962809022498
 11
22.6361365825675165
 21
11.588162198226474
 72
1
 10
22.6361365825675165
 20
11.588162198226474
 11
22.6677776443382157
 21
40.6223057409316652
 97
0
 75
0
 76
1
 52
0.0
 41
0.25
 77
0
 78
1
 53
45.0
 43
0.0
 44
0.0
 45
-0.0883883476483184
 46
0.0883883476483185
 79
0
 98
0
  0
LINE
  5
55
100
AcDbEntity
100
AcDbLine
  8
top
 62
256
370
-1
  6
BYLAYER
 10
32.6421795382912165
 20
143.246887363032414
 30
0.0
 11
32.6421795382912165
 21
93.246887363032414
 31
0.0
  0
HATCH
  5
56
  8
top
 62
9
420
12632256
370
-1
  6
BYLAYER
100
AcDbEntity
100
AcDbHatch
 10
0.0
 20
0.0
 30
0.0
210
0.0
220
0.0
230
1.0
  2
ANSI31
 70
0
 71
0
 91
1
 92
1
 93
4
 72
1
 10
32.6421795382912165
 20
138.246887363032414
 11
22.6421795382912165
 21
138.246887363032414
 72
1
 10
22.6421795382912165
 20
138.246887363032414
 11
22.6421795382912165
 21
128.246887363032414
 72
1
 10
22.6421795382912165
 20
128.246887363032414
 11
32.6421795382912165
 21
128.246887363032414
 72
1
 10
32.6421795382912165
 20
128.246887363032414
 11
32.6421795382912165
 21
138.246887363032414
 97
0
 75
0
 76
1
 52
0.0
 41
0.25
 77
0
 78
1
 53
45.0
 43
0.0
 44
0.0
 45
-0.0883883476483184
 46
0.0883883476483185
 79
0
 98
0
  0
LINE
  5
57
100
AcDbEntity
100
AcDbLine
  8
0
 62
256
370
-1
  6
BYLAYER
 10
28.2170369413314646
 20
166.4528171655206279
 30
0.0
 11
78.2170369413314575
 21
166.4528171655206279
 31
0.0
  0
LINE
  5
58
100
AcDbEntity
100
AcDbLine
  8
0
 62
256
370
-1
  6
BYLAYER
 10
78.2170369413314575
 20
166.4528171655206279
 30
0.0
 11
78.2170369413314575
 21
216.4528171655206279
 31
0.0
  0
LINE
  5
59
100
AcDbEntity
100
AcDbLine
  8
0
 62
256
370
-1
  6
BYLAYER
 10
78.2170369413314575
 20
216.4528171655206279
 30
0.0
 11
28.2170369413314646
 21
216.4528171655206279
 31
0.0
  0
LINE
  5
5A
100
AcDbEntity
100
AcDbLine
  8
0
 62
256
370
-1
  6
BYLAYER
 10
28.2170369413314646
 20
216.4528171655206279
 30
0.0
 11
28.2170369413314646
 21
166.4528171655206279
 31
0.0
  0
LINE
  5
5B
100
AcDbEntity
100
AcDbLine
  8
0
 62
256
370
-1
  6
BYLAYER
 10
28.2170369413314646
 20
166.4528171655206279
 30
0.0
 11
32.7170369413314646
 21
166.4528171655206279
 31
0.0
  0
LINE
  5
5C
100
AcDbEntity
100
AcDbLine
  8
0
 62
256
370
-1
  6
BYLAYER
 10
28.2170369413314646
 20
178.4528171655206279
 30
0.0
 11
28.2170369413314646
 21
166.4528171655206279
 31
0.0
  0
CIRCLE
  5
5D
100
AcDbEntity
100
AcDbCircle
  8
0
 62
256
370
-1
  6
BYLAYER
 10
45.8670369413314631
 20
191.4528171655206279
 30
0.0
 40
2.5
  0
CIRCLE
  5
5E
100
AcDbEntity
100
AcDbCircle
  8
0
 62
256
370
-1
  6
BYLAYER
 10
32.8670369413314631
 20
178.4528171655206279
 30
0.0
 40
1.5
  0
CIRCLE
  5
5F
100
AcDbEntity
100
AcDbCircle
  8
0
 62
256
370
-1
  6
BYLAYER
 10
32.8670369413314631
 20
204.4528171655206279
 30
0.0
 40
1.5
  0
CIRCLE
  5
60
100
AcDbEntity
100
AcDbCircle
  8
0
 62
256
370
-1
  6
BYLAYER
 10
58.8670369413314631
 20
178.4528171655206279
 30
0.0
 40
1.5
  0
CIRCLE
  5
61
100
AcDbEntity
100
AcDbCircle
  8
0
 62
256
370
-1
  6
BYLAYER
 10
68.2170369413314575
 20
178.4528171655206279
 30
0.0
 40
1.5
  0
CIRCLE
  5
62
100
AcDbEntity
100
AcDbCircle
  8
0
 62
256
370
-1
  6
BYLAYER
 10
58.8670369413314631
 20
204.4528171655206279
 30
0.0
 40
1.5
  0
CIRCLE
  5
63
100
AcDbEntity
100
AcDbCircle
  8
0
 62
256
370
-1
  6
BYLAYER
 10
68.2170369413314575
 20
204.4528171655206279
 30
0.0
 40
1.5
  0
LINE
  5
64
100
AcDbEntity
100
AcDbLine
  8
0
 62
256
370
-1
  6
BYLAYER
 10
58.2170369413314646
 20
186.4528171655206279
 30
0.0
 11
78.2170369413314575
 21
186.4528171655206279
 31
0.0
  0
LINE
  5
65
100
AcDbEntity
100
AcDbLine
  8
0
 62
256
370
-1
  6
BYLAYER
 10
78.2170369413314575
 20
186.4528171655206279
 30
0.0
 11
78.2170369413314575
 21
196.4528171655206279
 31
0.0
  0
LINE
  5
66
100
AcDbEntity
100
AcDbLine
  8
0
 62
256
370
-1
  6
BYLAYER
 10
78.2170369413314575
 20
196.4528171655206279
 30
0.0
 11
58.2170369413314646
 21
196.4528171655206279
 31
0.0
  0
LINE
  5
67
100
AcDbEntity
100
AcDbLine
  8
0
 62
256
370
-1
  6
BYLAYER
 10
58.2170369413314646
 20
196.4528171655206279
 30
0.0
 11
58.2170369413314646
 21
186.4528171655206279
 31
0.0
  0
HATCH
  5
68
  8
0
 62
256
370
-1
  6
BYLAYER
100
AcDbEntity
100
AcDbHatch
 10
0.0
 20
0.0
 30
0.0
210
0.0
220
0.0
230
1.0
  2
ACAD_ISO02W100
 70
0
 71
0
 91
1
 92
1
 93
4
 72
1
 10
58.2170369413314646
 20
186.4528171655206279
 11
78.2170369413314575
 21
186.4528171655206279
 72
1
 10
78.2170369413314575
 20
186.4528171655206279
 11
78.2170369413314575
 21
196.4528171655206279
 72
1
 10
78.2170369413314575
 20
196.4528171655206279
 11
58.2170369413314646
 21
196.4528171655206279
 72
1
 10
58.2170369413314646
 20
196.4528171655206279
 11
58.2170369413314646
 21
186.4528171655206279
 97
0
 75
0
 76
1
 52
45.0
 41
0.25
 77
0
 78
1
 53
45.0
 43
0.0
 44
0.0
 45
-0.0883883476483184
 46
0.0883883476483185
 79
0
 98
0
  0
DIMENSION
  5
69
100
AcDbEntity
  8
bemassung_0
 62
256
370
-1
  6
BYLAYER
100
AcDbDimension
 10
69.2776971131112873
 20
205.5134773373004577
 30
0.0
 11
70.2597898647592558
 21
209.1472205183980009
 31
0.0
 70
131
 71
8
 72
2
 41
1.0
 42
0.0
  1
M3t
  3
Standard
100
AcDbDiametricDimension
 15
67.1563767695516418
 25
203.392156993740798
 35
0.0
 40
0.0
  0
DIMENSION
  5
6A
100
AcDbEntity
  8
bemassung_0
 62
256
370
-1
  6
BYLAYER
100
AcDbDimension
 10
59.9276971131112859
 20
205.5134773373004577
 30
0.0
 11
60.9097898647592544
 21
209.1472205183980009
 31
0.0
 70
131
 71
8
 72
2
 41
1.0
 42
0.0
  1
M3c
  3
Standard
100
AcDbDiametricDimension
 15
57.8063767695516404
 25
203.392156993740798
 35
0.0
 40
0.0
  0
DIMENSION
  5
6B
100
AcDbEntity
  8
bemassung_0
 62
256
370
-1
  6
BYLAYER
100
AcDbDimension
 10
33.9276971131112859
 20
205.5134773373004577
 30
0.0
 11
34.9097898647592544
 21
209.1472205183980009
 31
0.0
 70
131
 71
8
 72
2
 41
1.0
 42
0.0
  1
M3c
  3
Standard
100
AcDbDiametricDimension
 15
31.8063767695516439
 25
203.392156993740798
 35
0.0
 40
0.0
  0
DIMENSION
  5
6C
100
AcDbEntity
  8
bemassung_0
 62
256
370
-1
  6
BYLAYER
100
AcDbDimension
 10
33.9276971131112859
 20
179.5134773373004293
 30
0.0
 11
34.9097898647592615
 21
183.1472205183979725
 31
0.0
 70
131
 71
8
 72
2
 41
1.0
 42
0.0
  1
M3c
  3
Standard
100
AcDbDiametricDimension
 15
31.8063767695516439
 25
177.392156993740798
 35
0.0
 40
0.0
  0
DIMENSION
  5
6D
100
AcDbEntity
  8
bemassung_0
 62
256
370
-1
  6
BYLAYER
100
AcDbDimension
 10
59.9276971131112859
 20
179.5134773373004293
 30
0.0
 11
60.9097898647592757
 21
183.1472205183979725
 31
0.0
 70
131
 71
8
 72
2
 41
1.0
 42
0.0
  1
M3c
  3
Standard
100
AcDbDiametricDimension
 15
57.8063767695516404
 25
177.392156993740798
 35
0.0
 40
0.0
  0
DIMENSION
  5
6E
100
AcDbEntity
  8
bemassung_0
 62
256
370
-1
  6
BYLAYER
100
AcDbDimension
 10
69.2776971131112873
 20
179.5134773373004293
 30
0.0
 11
70.2597898647592842
 21
183.1472205183979725
 31
0.0
 70
131
 71
8
 72
2
 41
1.0
 42
0.0
  1
M3t
  3
Standard
100
AcDbDiametricDimension
 15
67.1563767695516418
 25
177.392156993740798
 35
0.0
 40
0.0
  0
DIMENSION
  5
6F
100
AcDbEntity
  8
bemassung_0
 62
256
370
-1
  6
BYLAYER
100
AcDbDimension
 10
45.8670369413314631
 20
191.4528171655206279
 30
0.0
 11
52.1033259142961569
 21
187.8681786220054732
 31
0.0
 70
132
 71
8
 72
2
 41
1.0
 42
0.0
  1

  3
Standard
100
AcDbRadialDimension
 15
47.634803894297832
 25
189.6850502125542448
 35
0.0
 40
0.0
  0
CIRCLE
  5
70
100
AcDbEntity
100
AcDbCircle
  8
0
 62
256
370
-1
  6
BYLAYER
 10
68.2170369413314575
 20
204.4528171655206279
 30
0.0
 40
1.0
  0
CIRCLE
  5
71
100
AcDbEntity
100
AcDbCircle
  8
0
 62
256
370
-1
  6
BYLAYER
 10
68.2170369413314575
 20
178.4528171655206279
 30
0.0
 40
1.0
  0
DIMENSION
  5
72
100
AcDbEntity
  8
bemassung_0
 62
256
370
-1
  6
BYLAYER
100
AcDbDimension
 10
24.7048670779432129
 20
167.9335797035202518
 30
0.0
 11
22.8298670779432129
 21
172.4528171655206279
 31
0.0
 70
128
 71
8
 72
1
 41
1.0
 42
0.0
  1

  3
Standard
100
AcDbAlignedDimension
 13
32.8670369413314631
 23
178.4528171655206279
 33
0.0
 14
32.7170369413314646
 24
166.4528171655206279
 34
0.0
 50
90.0
100
AcDbRotatedDimension
  0
DIMENSION
  5
73
100
AcDbEntity
  8
bemassung_0
 62
256
370
-1
  6
BYLAYER
100
AcDbDimension
 10
24.7048670779432129
 20
214.7283981135620365
 30
0.0
 11
22.8298670779432129
 21
210.4528171655206279
 31
0.0
 70
128
 71
8
 72
1
 41
1.0
 42
0.0
  1

  3
Standard
100
AcDbAlignedDimension
 13
32.8670369413314631
 23
204.4528171655206279
 33
0.0
 14
32.8670369413314631
 24
216.4528171655206279
 34
0.0
 50
90.0
100
AcDbRotatedDimension
  0
DIMENSION
  5
74
100
AcDbEntity
  8
bemassung_0
 62
256
370
-1
  6
BYLAYER
100
AcDbDimension
 10
28.0932542467020667
 20
151.627312200033515
 30
0.0
 11
53.2170369413314646
 21
153.502312200033515
 31
0.0
 70
128
 71
8
 72
1
 41
1.0
 42
0.0
  1

  3
Standard
100
AcDbAlignedDimension
 13
78.2170369413314575
 23
166.4528171655206279
 33
0.0
 14
28.2170369413314646
 24
166.4528171655206279
 34
0.0
 50
0.0
100
AcDbRotatedDimension
  0
DIMENSION
  5
75
100
AcDbEntity
  8
bemassung_0
 62
256
370
-1
  6
BYLAYER
100
AcDbDimension
 10
29.0620910667857473
 20
218.7192619908284428
 30
0.0
 11
37.0420369413314603
 21
220.5942619908284428
 31
0.0
 70
128
 71
8
 72
1
 41
1.0
 42
0.0
  1

  3
Standard
100
AcDbAlignedDimension
 13
45.8670369413314631
 23
191.4528171655206279
 33
0.0
 14
28.2170369413314646
 24
191.4528171655206279
 34
0.0
 50
0.0
100
AcDbRotatedDimension
  0
DIMENSION
  5
76
100
AcDbEntity
  8
bemassung_0
 62
256
370
-1
  6
BYLAYER
100
AcDbDimension
 10
20.4636642885430788
 20
192.3184586435481265
 30
0.0
 11
18.5886642885430788
 21
203.9528171655206279
 31
0.0
 70
128
 71
8
 72
1
 41
1.0
 42
0.0
  1

  3
Standard
100
AcDbAlignedDimension
 13
28.2170369413314646
 23
216.4528171655206279
 33
0.0
 14
45.8670369413314631
 24
191.4528171655206279
 34
0.0
 50
90.0
100
AcDbRotatedDimension
  0
DIMENSION
  5
77
100
AcDbEntity
  8
bemassung_0
 62
256
370
-1
  6
BYLAYER
100
AcDbDimension
 10
15.6194801881246725
 20
174.5507933715816193
 30
0.0
 11
13.7444801881246725
 21
196.4528171655206279
 31
0.0
 70
128
 71
8
 72
1
 41
1.0
 42
0.0
  1

  3
Standard
100
AcDbAlignedDimension
 13
28.2170369413314646
 23
221.4528171655206279
 33
0.0
 14
28.2170369413314646
 24
171.4528171655206279
 34
0.0
 50
90.0
100
AcDbRotatedDimension
  0
DIMENSION
  5
78
100
AcDbEntity
  8
bemassung_0
 62
256
370
-1
  6
BYLAYER
100
AcDbDimension
 10
82.2270115688777423
 20
186.2632285180251301
 30
0.0
 11
80.3520115688777423
 21
191.4528171655206279
 31
0.0
 70
128
 71
8
 72
1
 41
1.0
 42
0.0
  1

  3
Standard
100
AcDbAlignedDimension
 13
78.2170369413314575
 23
196.4528171655206279
 33
0.0
 14
78.2170369413314575
 24
186.4528171655206279
 34
0.0
 50
90.0
100
AcDbRotatedDimension
  0
DIMENSION
  5
79
100
AcDbEntity
  8
bemassung_0
 62
256
370
-1
  6
BYLAYER
100
AcDbDimension
 10
78.4727688910534766
 20
218.7192619908284428
 30
0.0
 11
68.2170369413314575
 21
220.5942619908284428
 31
0.0
 70
128
 71
8
 72
1
 41
1.0
 42
0.0
  1

  3
Standard
100
AcDbAlignedDimension
 13
58.2170369413314646
 23
196.4528171655206279
 33
0.0
 14
78.2170369413314575
 24
196.4528171655206279
 34
0.0
 50
0.0
100
AcDbRotatedDimension
  0
DIMENSION
  5
7A
100
AcDbEntity
  8
bemassung_0
 62
256
370
-1
  6
BYLAYER
100
AcDbDimension
 10
27.9748277363105444
 20
162.4056218234644575
 30
0.0
 11
36.5475924968870203
 21
164.2806218234644575
 31
0.0
 70
128
 71
8
 72
1
 41
1.0
 42
0.0
  1

  3
Standard
100
AcDbAlignedDimension
 13
32.8670369413314631
 23
204.4528171655206279
 33
0.0
 14
28.2170369413314646
 24
204.4528171655206279
 34
0.0
 50
0.0
100
AcDbRotatedDimension
  0
DIMENSION
  5
7B
100
AcDbEntity
  8
bemassung_0
 62
256
370
-1
  6
BYLAYER
100
AcDbDimension
 10
28.0959323388210045
 20
158.897886816490967
 30
0.0
 11
43.5420369413314674
 21
160.772886816490967
 31
0.0
 70
128
 71
8
 72
1
 41
1.0
 42
0.0
  1

  3
Standard
100
AcDbAlignedDimension
 13
58.8670369413314631
 23
204.4528171655206279
 33
0.0
 14
28.2170369413314646
 24
204.4528171655206279
 34
0.0
 50
0.0
100
AcDbRotatedDimension
  0
DIMENSION
  5
7C
100
AcDbEntity
  8
bemassung_0
 62
256
370
-1
  6
BYLAYER
100
AcDbDimension
 10
28.1199515019578747
 20
155.332505673783885
 30
0.0
 11
48.2170369413314646
 21
157.207505673783885
 31
0.0
 70
128
 71
8
 72
1
 41
1.0
 42
0.0
  1

  3
Standard
100
AcDbAlignedDimension
 13
68.2170369413314575
 23
204.4528171655206279
 33
0.0
 14
28.2170369413314646
 24
158.897886816490967
 34
0.0
 50
0.0
100
AcDbRotatedDimension
  0
DIMENSION
  5
7D
100
AcDbEntity
  8
bemassung_0
 62
256
370
-1
  6
BYLAYER
100
AcDbDimension
 10
82.2098887135476275
 20
168.7885488255479061
 30
0.0
 11
80.3348887135476275
 21
176.4528171655206279
 31
0.0
 70
128
 71
8
 72
1
 41
1.0
 42
0.0
  1

  3
Standard
100
AcDbAlignedDimension
 13
78.2170369413314575
 23
186.4528171655206279
 33
0.0
 14
78.2170369413314575
 24
166.4528171655206279
 34
0.0
 50
90.0
100
AcDbRotatedDimension
  0
CIRCLE
  5
7E
100
AcDbEntity
100
AcDbCircle
  8
top
 62
256
370
-1
  6
BYLAYER
 10
138.0002596793962653
 20
204.5821732346569775
 30
0.0
 40
1.5
  0
CIRCLE
  5
7F
100
AcDbEntity
100
AcDbCircle
  8
top
 62
256
370
-1
  6
BYLAYER
 10
138.0002596793962653
 20
178.5821732346569775
 30
0.0
 40
1.5
  0
LINE
  5
80
100
AcDbEntity
100
AcDbLine
  8
top
 62
256
370
-1
  6
BYLAYER
 10
178.0002596793962653
 20
196.5821732346569775
 30
0.0
 11
128.0002596793962653
 21
196.5821732346569775
 31
0.0
  0
LINE
  5
81
100
AcDbEntity
100
AcDbLine
  8
0
 62
256
370
-1
  6
BYLAYER
 10
128.0002596793962653
 20
196.5821732346569775
 30
0.0
 11
128.0002596793962653
 21
186.5821732346569775
 31
0.0
  0
LINE
  5
82
100
AcDbEntity
100
AcDbLine
  8
top
 62
256
370
-1
  6
BYLAYER
 10
128.0002596793962653
 20
186.5821732346569775
 30
0.0
 11
178.0002596793962653
 21
186.5821732346569775
 31
0.0
  0
HATCH
  5
83
  8
top
 62
256
370
-1
  6
BYLAYER
100
AcDbEntity
100
AcDbHatch
 10
0.0
 20
0.0
 30
0.0
210
0.0
220
0.0
230
1.0
  2
ACAD_ISO02W100
 70
0
 71
0
 91
1
 92
1
 93
4
 72
1
 10
178.0002596793962653
 20
196.5821732346569775
 11
128.0002596793962653
 21
196.5821732346569775
 72
1
 10
128.0002596793962653
 20
196.5821732346569775
 11
128.0002596793962653
 21
186.5821732346569775
 72
1
 10
128.0002596793962653
 20
186.5821732346569775
 11
178.0002596793962653
 21
186.5821732346569775
 72
1
 10
178.0002596793962653
 20
186.5821732346569775
 11
178.0002596793962653
 21
196.5821732346569775
 97
0
 75
0
 76
1
 52
225.0
 41
0.25
 77
0
 78
1
 53
45.0
 43
0.0
 44
0.0
 45
-0.0883883476483184
 46
0.0883883476483185
 79
0
 98
0
  0
LINE
  5
84
100
AcDbEntity
100
AcDbLine
  8
top
 62
256
370
-1
  6
BYLAYER
 10
178.0002596793962653
 20
216.5821732346569775
 30
0.0
 11
128.0002596793963221
 21
216.5821732346569775
 31
0.0
  0
LINE
  5
85
100
AcDbEntity
100
AcDbLine
  8
top
 62
256
370
-1
  6
BYLAYER
 10
128.0002596793963221
 20
216.5821732346569775
 30
0.0
 11
128.0002596793962653
 21
166.5821732346569775
 31
0.0
  0
LINE
  5
86
100
AcDbEntity
100
AcDbLine
  8
top
 62
256
370
-1
  6
BYLAYER
 10
128.0002596793962653
 20
166.5821732346569775
 30
0.0
 11
178.0002596793962653
 21
166.582173234656949
 31
0.0
  0
LINE
  5
87
100
AcDbEntity
100
AcDbLine
  8
top
 62
256
370
-1
  6
BYLAYER
 10
178.0002596793962653
 20
166.582173234656949
 30
0.0
 11
178.0002596793962653
 21
216.5821732346569775
 31
0.0
  0
LINE
  5
88
100
AcDbEntity
100
AcDbLine
  8
0
 62
256
370
-1
  6
BYLAYER
 10
178.0002596793962653
 20
216.5821732346569775
 30
0.0
 11
173.5002596793962653
 21
216.5821732346569775
 31
0.0
  0
LINE
  5
89
100
AcDbEntity
100
AcDbLine
  8
0
 62
256
370
-1
  6
BYLAYER
 10
178.0002596793962653
 20
204.5821732346569775
 30
0.0
 11
178.0002596793962653
 21
216.5821732346569775
 31
0.0
  0
DIMENSION
  5
8A
100
AcDbEntity
  8
bemassung_top
 62
256
370
-1
  6
BYLAYER
100
AcDbDimension
 10
139.0609198511760951
 20
205.6428334064367789
 30
0.0
 11
140.043012602824092
 21
209.276576587534322
 31
0.0
 70
131
 71
8
 72
1
 41
1.0
 42
0.0
  1
M3c
  3
Standard
100
AcDbDiametricDimension
 15
136.9395995076164922
 25
203.5215130628771476
 35
0.0
 40
0.0
  0
DIMENSION
  5
8B
100
AcDbEntity
  8
bemassung_top
 62
256
370
-1
  6
BYLAYER
100
AcDbDimension
 10
139.0609198511760951
 20
179.6428334064368073
 30
0.0
 11
140.043012602824092
 21
183.276576587534322
 31
0.0
 70
131
 71
8
 72
1
 41
1.0
 42
0.0
  1
M3c
  3
Standard
100
AcDbDiametricDimension
 15
136.9395995076164922
 25
177.5215130628771476
 35
0.0
 40
0.0
  0
DIMENSION
  5
8C
100
AcDbEntity
  8
bemassung_top
 62
256
370
-1
  6
BYLAYER
100
AcDbDimension
 10
181.7708107873837662
 20
195.837476538621388
 30
0.0
 11
179.8958107873837662
 21
191.5821732346569775
 31
0.0
 70
128
 71
8
 72
1
 41
1.0
 42
0.0
  1

  3
Standard
100
AcDbAlignedDimension
 13
178.0002596793962653
 23
186.582173234656949
 33
0.0
 14
178.0002596793962653
 24
196.5821732346569775
 34
0.0
 50
90.0
100
AcDbRotatedDimension
  0
DIMENSION
  5
8D
100
AcDbEntity
  8
bemassung_top
 62
256
370
-1
  6
BYLAYER
100
AcDbDimension
 10
181.7708107873837662
 20
167.2567903461527976
 30
0.0
 11
179.8958107873837662
 21
176.582173234656949
 31
0.0
 70
128
 71
8
 72
1
 41
1.0
 42
0.0
  1

  3
Standard
100
AcDbAlignedDimension
 13
178.0002596793962653
 23
186.582173234656949
 33
0.0
 14
178.0002596793962653
 24
166.582173234656949
 34
0.0
 50
90.0
100
AcDbRotatedDimension
  0
DIMENSION
  5
8E
100
AcDbEntity
  8
bemassung_top
 62
256
370
-1
  6
BYLAYER
100
AcDbDimension
 10
181.7708107873837662
 20
215.940840555357795
 30
0.0
 11
179.8958107873837662
 21
206.5821732346569775
 31
0.0
 70
128
 71
8
 72
1
 41
1.0
 42
0.0
  1

  3
Standard
100
AcDbAlignedDimension
 13
178.0002596793962653
 23
196.5821732346569775
 33
0.0
 14
178.0002596793963221
 24
216.5821732346569775
 34
0.0
 50
90.0
100
AcDbRotatedDimension
  0
DIMENSION
  5
8F
100
AcDbEntity
  8
bemassung_top
 62
256
370
-1
  6
BYLAYER
100
AcDbDimension
 10
178.5009865196013266
 20
158.5372589653996727
 30
0.0
 11
153.0002596793962653
 21
160.4122589653996727
 31
0.0
 70
128
 71
8
 72
1
 41
1.0
 42
0.0
  1

  3
Standard
100
AcDbAlignedDimension
 13
128.0002596793962653
 23
166.5821732346569775
 33
0.0
 14
178.0002596793962653
 24
166.582173234656949
 34
0.0
 50
0.0
100
AcDbRotatedDimension
  0
DIMENSION
  5
90
100
AcDbEntity
  8
bemassung_top
 62
256
370
-1
  6
BYLAYER
100
AcDbDimension
 10
128.6445764777603813
 20
162.2640288398766586
 30
0.0
 11
133.0002596793963221
 21
164.1390288398766586
 31
0.0
 70
128
 71
8
 72
1
 41
1.0
 42
0.0
  1

  3
Standard
100
AcDbAlignedDimension
 13
138.0002596793962653
 23
204.5821732346569775
 33
0.0
 14
128.0002596793963221
 24
204.5821732346569775
 34
0.0
 50
0.0
100
AcDbRotatedDimension
  0
DIMENSION
  5
91
100
AcDbEntity
  8
bemassung_top
 62
256
370
-1
  6
BYLAYER
100
AcDbDimension
 10
124.9755690133252273
 20
177.0543455595419289
 30
0.0
 11
123.1005690133252273
 21
172.582173234656949
 31
0.0
 70
128
 71
8
 72
1
 41
1.0
 42
0.0
  1

  3
Standard
100
AcDbAlignedDimension
 13
138.0002596793962653
 23
166.5821732346569775
 33
0.0
 14
138.0002596793962653
 24
178.582173234656949
 34
0.0
 50
90.0
100
AcDbRotatedDimension
  0
DIMENSION
  5
92
100
AcDbEntity
  8
bemassung_top
 62
256
370
-1
  6
BYLAYER
100
AcDbDimension
 10
124.9755690133252273
 20
215.2022953503368967
 30
0.0
 11
123.1005690133252273
 21
210.5821732346569775
 31
0.0
 70
128
 71
8
 72
1
 41
1.0
 42
0.0
  1

  3
Standard
100
AcDbAlignedDimension
 13
138.0002596793962653
 23
204.5821732346569775
 33
0.0
 14
138.0002596793962653
 24
216.5821732346569775
 34
0.0
 50
90.0
100
AcDbRotatedDimension
  0
LINE
  5
93
100
AcDbEntity
100
AcDbLine
  8
0
 62
256
370
-1
  6
BYLAYER
 10
28.2037009364159061
 20
244.2525329495769313
 30
0.0
 11
78.2037009364159132
 21
244.2525329495769313
 31
0.0
  0
LINE
  5
94
100
AcDbEntity
100
AcDbLine
  8
0
 62
256
370
-1
  6
BYLAYER
 10
78.2037009364159132
 20
244.2525329495769313
 30
0.0
 11
78.2037009364159132
 21
254.2525329495769029
 31
0.0
  0
LINE
  5
95
100
AcDbEntity
100
AcDbLine
  8
0
 62
256
370
-1
  6
BYLAYER
 10
78.2037009364159132
 20
254.2525329495769029
 30
0.0
 11
28.2037009364159061
 21
254.2525329495769029
 31
0.0
  0
LINE
  5
96
100
AcDbEntity
100
AcDbLine
  8
0
 62
256
370
-1
  6
BYLAYER
 10
28.2037009364159061
 20
254.2525329495769029
 30
0.0
 11
28.2037009364159061
 21
244.2525329495769313
 31
0.0
  0
LINE
  5
97
100
AcDbEntity
100
AcDbLine
  8
0
 62
256
370
-1
  6
BYLAYER
 10
32.8537009364159047
 20
244.2525329495769313
 30
0.0
 11
32.8537009364159047
 21
244.2525329495769313
 31
0.0
  0
LINE
  5
98
100
AcDbEntity
100
AcDbLine
  8
0
 62
256
370
-1
  6
BYLAYER
 10
32.8537009364159047
 20
254.2525329495769029
 30
0.0
 11
32.8537009364159047
 21
254.2525329495769029
 31
0.0
  0
LINE
  5
99
100
AcDbEntity
100
AcDbLine
  8
0
 62
256
370
-1
  6
DASHDOT2
 10
58.8537009364159047
 20
244.2525329495769313
 30
0.0
 11
58.8537009364159047
 21
254.2525329495769029
 31
0.0
  0
LINE
  5
9A
100
AcDbEntity
100
AcDbLine
  8
0
 62
256
370
-1
  6
BYLAYER
 10
58.8537009364159047
 20
254.2525329495769029
 30
0.0
 11
58.8537009364159047
 21
254.2525329495769029
 31
0.0
  0
LINE
  5
9B
100
AcDbEntity
100
AcDbLine
  8
0
 62
256
370
-1
  6
DASHDOT2
 10
68.2037009364159132
 20
244.2525329495769313
 30
0.0
 11
68.2037009364159132
 21
254.2525329495769029
 31
0.0
  0
LINE
  5
9C
100
AcDbEntity
100
AcDbLine
  8
0
 62
256
370
-1
  6
DASHDOT2
 10
32.8537009364159047
 20
244.2525329495769313
 30
0.0
 11
32.8537009364159047
 21
254.2525329495769029
 31
0.0
  0
LINE
  5
9D
100
AcDbEntity
100
AcDbLine
  8
0
 62
256
370
-1
  6
BYLAYER
 10
31.3537009364159047
 20
244.2525329495769313
 30
0.0
 11
31.3537009364159047
 21
254.2525329495769029
 31
0.0
  0
LINE
  5
9E
100
AcDbEntity
100
AcDbLine
  8
0
 62
256
370
-1
  6
BYLAYER
 10
34.3537009364159047
 20
244.2525329495769313
 30
0.0
 11
34.3537009364159047
 21
254.2525329495769029
 31
0.0
  0
LINE
  5
9F
100
AcDbEntity
100
AcDbLine
  8
0
 62
256
370
-1
  6
BYLAYER
 10
57.3537009364159047
 20
244.2525329495769313
 30
0.0
 11
57.3537009364159047
 21
254.2525329495769029
 31
0.0
  0
LINE
  5
A0
100
AcDbEntity
100
AcDbLine
  8
0
 62
256
370
-1
  6
BYLAYER
 10
60.3537009364159047
 20
244.2525329495769313
 30
0.0
 11
60.3537009364159047
 21
254.2525329495769029
 31
0.0
  0
LINE
  5
A1
100
AcDbEntity
100
AcDbLine
  8
0
 62
256
370
-1
  6
BYLAYER
 10
66.703700936415899
 20
244.2525329495769313
 30
0.0
 11
66.703700936415899
 21
254.2525329495769029
 31
0.0
  0
LINE
  5
A2
100
AcDbEntity
100
AcDbLine
  8
0
 62
256
370
-1
  6
BYLAYER
 10
69.7037009364159132
 20
244.2525329495769313
 30
0.0
 11
69.7037009364159132
 21
254.2525329495769029
 31
0.0
  0
LINE
  5
A3
100
AcDbEntity
100
AcDbLine
  8
0
 62
256
370
-1
  6
BYLAYER
 10
67.1037009364159047
 20
244.2525329495769313
 30
0.0
 11
67.1037009364159047
 21
254.2525329495769029
 31
0.0
  0
LINE
  5
A4
100
AcDbEntity
100
AcDbLine
  8
0
 62
256
370
-1
  6
BYLAYER
 10
69.3037009364159076
 20
244.2525329495769313
 30
0.0
 11
69.3037009364159076
 21
254.2525329495769029
 31
0.0
  0
LINE
  5
A5
100
AcDbEntity
100
AcDbLine
  8
0
 62
256
370
-1
  6
BYLAYER
 10
78.2037009364159132
 20
244.2525329495769313
 30
0.0
 11
58.0669502090186143
 21
244.2525329495769313
 31
0.0
  0
LINE
  5
A6
100
AcDbEntity
100
AcDbLine
  8
0
 62
256
370
-1
  6
BYLAYER
 10
58.0669502090186143
 20
244.2525329495769313
 30
0.0
 11
58.0669502090186143
 21
248.7256160320400795
 31
0.0
  0
LINE
  5
A7
100
AcDbEntity
100
AcDbLine
  8
0
 62
256
370
-1
  6
BYLAYER
 10
58.0669502090186143
 20
248.7256160320400795
 30
0.0
 11
78.0669502090186143
 21
248.7256160320400795
 31
0.0
  0
LINE
  5
A8
100
AcDbEntity
100
AcDbLine
  8
0
 62
256
370
-1
  6
BYLAYER
 10
78.2037009364159132
 20
248.7256160320400795
 30
0.0
 11
78.2037009364159132
 21
244.2525329495769313
 31
0.0
  0
HATCH
  5
A9
  8
0
 62
256
370
-1
  6
BYLAYER
100
AcDbEntity
100
AcDbHatch
 10
0.0
 20
0.0
 30
0.0
210
0.0
220
0.0
230
1.0
  2
ACAD_ISO02W100
 70
0
 71
0
 91
1
 92
1
 93
4
 72
1
 10
58.8537009364159047
 20
244.2525329495769313
 11
78.2037009364159132
 21
244.2525329495769313
 72
1
 10
78.2037009364159132
 20
244.2525329495769313
 11
78.0669502090186143
 21
248.7256160320400795
 72
1
 10
78.0669502090186143
 20
248.7256160320400795
 11
58.8537009364159047
 21
248.7256160320400795
 72
1
 10
58.8537009364159047
 20
248.7256160320400795
 11
58.8537009364159047
 21
244.2525329495769313
 97
0
 75
0
 76
1
 52
45.0
 41
0.25
 77
0
 78
1
 53
45.0
 43
0.0
 44
0.0
 45
-0.0883883476483184
 46
0.0883883476483185
 79
0
 98
0
  0
DIMENSION
  5
AA
100
AcDbEntity
  8
bemassung_0
 62
256
370
-1
  6
BYLAYER
100
AcDbDimension
 10
24.9250415663956417
 20
244.9518371860787624
 30
0.0
 11
23.0500415663956417
 21
249.2525329495769313
 31
0.0
 70
128
 71
8
 72
2
 41
1.0
 42
0.0
  1

  3
Standard
100
AcDbAlignedDimension
 13
28.2037009364159061
 23
254.2525329495769029
 33
0.0
 14
28.2037009364159061
 24
244.2525329495769313
 34
0.0
 50
90.0
100
AcDbRotatedDimension
  0
DIMENSION
  5
AB
100
AcDbEntity
  8
bemassung_0
 62
256
370
-1
  6
BYLAYER
100
AcDbDimension
 10
32.6992447898270058
 20
240.0314553990968989
 30
0.0
 11
36.5342564919714619
 21
241.9064553990968989
 31
0.0
 70
128
 71
8
 72
2
 41
1.0
 42
0.0
  1

  3
Standard
100
AcDbAlignedDimension
 13
28.2037009364159061
 23
244.2525329495769313
 33
0.0
 14
32.8537009364159047
 24
244.2525329495769313
 34
0.0
 50
0.0
100
AcDbRotatedDimension
  0
DIMENSION
  5
AC
100
AcDbEntity
  8
bemassung_0
 62
256
370
-1
  6
BYLAYER
100
AcDbDimension
 10
56.9075231817778473
 20
235.6031117908131876
 30
0.0
 11
43.5287009364159019
 21
237.4781117908131876
 31
0.0
 70
128
 71
8
 72
2
 41
1.0
 42
0.0
  1

  3
Standard
100
AcDbAlignedDimension
 13
28.2037009364159061
 23
244.2525329495769313
 33
0.0
 14
58.8537009364159047
 24
244.2525329495769313
 34
0.0
 50
0.0
100
AcDbRotatedDimension
  0
DIMENSION
  5
AD
100
AcDbEntity
  8
bemassung_0
 62
256
370
-1
  6
BYLAYER
100
AcDbDimension
 10
67.8307707488776259
 20
231.0763605467898856
 30
0.0
 11
48.2037009364159132
 21
232.9513605467898856
 31
0.0
 70
128
 71
8
 72
2
 41
1.0
 42
0.0
  1

  3
Standard
100
AcDbAlignedDimension
 13
28.2037009364159061
 23
244.2525329495769313
 33
0.0
 14
68.2037009364159132
 24
244.2525329495769313
 34
0.0
 50
0.0
100
AcDbRotatedDimension
  0
DIMENSION
  5
AE
100
AcDbEntity
  8
bemassung_0
 62
256
370
-1
  6
BYLAYER
100
AcDbDimension
 10
77.0810885084035817
 20
226.0575711240683461
 30
0.0
 11
53.2037009364159132
 21
227.9325711240683461
 31
0.0
 70
128
 71
8
 72
2
 41
1.0
 42
0.0
  1

  3
Standard
100
AcDbAlignedDimension
 13
28.2037009364159061
 23
244.2525329495769313
 33
0.0
 14
78.2037009364159132
 24
244.2525329495769313
 34
0.0
 50
0.0
100
AcDbRotatedDimension
  0
LINE
  5
AF
100
AcDbEntity
100
AcDbLine
  8
0
 62
256
370
-1
  6
DASHDOT2
 10
53.2042454872434831
 20
270.1816970687212347
 30
0.0
 11
53.2042454872434831
 21
280.1816970687212347
 31
0.0
  0
LINE
  5
B0
100
AcDbEntity
100
AcDbLine
  8
0
 62
256
370
-1
  6
BYLAYER
 10
58.8542454872434817
 20
280.1816970687212347
 30
0.0
 11
58.8542454872434817
 21
280.1816970687212347
 31
0.0
  0
LINE
  5
B1
100
AcDbEntity
100
AcDbLine
  8
0
 62
256
370
-1
  6
DASHDOT2
 10
66.2042454872434831
 20
270.1816970687212347
 30
0.0
 11
66.2042454872434831
 21
280.1816970687212347
 31
0.0
  0
LINE
  5
B2
100
AcDbEntity
100
AcDbLine
  8
0
 62
256
370
-1
  6
DASHDOT2
 10
40.2042454872434831
 20
270.1816970687212347
 30
0.0
 11
40.2042454872434831
 21
280.1816970687212347
 31
0.0
  0
LINE
  5
B3
100
AcDbEntity
100
AcDbLine
  8
0
 62
256
370
-1
  6
BYLAYER
 10
38.7042454872434831
 20
270.1816970687212347
 30
0.0
 11
38.7042454872434831
 21
280.1816970687212347
 31
0.0
  0
LINE
  5
B4
100
AcDbEntity
100
AcDbLine
  8
0
 62
256
370
-1
  6
BYLAYER
 10
41.7042454872434831
 20
270.1816970687212347
 30
0.0
 11
41.7042454872434831
 21
280.1816970687212347
 31
0.0
  0
LINE
  5
B5
100
AcDbEntity
100
AcDbLine
  8
0
 62
256
370
-1
  6
BYLAYER
 10
64.7042454872434831
 20
270.1816970687212347
 30
0.0
 11
64.7042454872434831
 21
280.1816970687212347
 31
0.0
  0
LINE
  5
B6
100
AcDbEntity
100
AcDbLine
  8
0
 62
256
370
-1
  6
BYLAYER
 10
67.7042454872434831
 20
270.1816970687212347
 30
0.0
 11
67.7042454872434831
 21
280.1816970687212347
 31
0.0
  0
LINE
  5
B7
100
AcDbEntity
100
AcDbLine
  8
0
 62
256
370
-1
  6
BYLAYER
 10
65.1042454872434746
 20
270.1816970687212347
 30
0.0
 11
65.1042454872434746
 21
280.1816970687212347
 31
0.0
  0
LINE
  5
B8
100
AcDbEntity
100
AcDbLine
  8
0
 62
256
370
-1
  6
BYLAYER
 10
67.3042454872434774
 20
270.1816970687212347
 30
0.0
 11
67.3042454872434774
 21
280.1816970687212347
 31
0.0
  0
LINE
  5
B9
100
AcDbEntity
100
AcDbLine
  8
0
 62
256
370
-1
  6
BYLAYER
 10
58.2042454872434831
 20
270.1816970687212347
 30
0.0
 11
48.2042454872434831
 21
270.1816970687212347
 31
0.0
  0
LINE
  5
BA
100
AcDbEntity
100
AcDbLine
  8
0
 62
256
370
-1
  6
BYLAYER
 10
28.2042454872434831
 20
270.1816970687212347
 30
0.0
 11
78.2042454872434831
 21
270.1816970687212347
 31
0.0
  0
LINE
  5
BB
100
AcDbEntity
100
AcDbLine
  8
0
 62
256
370
-1
  6
BYLAYER
 10
78.2042454872434831
 20
270.1816970687212347
 30
0.0
 11
78.2042454872434831
 21
280.1816970687212347
 31
0.0
  0
LINE
  5
BC
100
AcDbEntity
100
AcDbLine
  8
0
 62
256
370
-1
  6
BYLAYER
 10
78.2042454872434831
 20
280.1816970687212347
 30
0.0
 11
28.2042454872434831
 21
280.1816970687212347
 31
0.0
  0
LINE
  5
BD
100
AcDbEntity
100
AcDbLine
  8
0
 62
256
370
-1
  6
BYLAYER
 10
28.2042454872434831
 20
280.1816970687212347
 30
0.0
 11
28.2042454872434831
 21
270.1816970687212347
 31
0.0
  0
LINE
  5
BE
100
AcDbEntity
100
AcDbLine
  8
0
 62
256
370
-1
  6
BYLAYER
 10
40.2042454872434831
 20
270.1816970687212347
 30
0.0
 11
40.2042454872434831
 21
270.1816970687212347
 31
0.0
  0
LINE
  5
BF
100
AcDbEntity
100
AcDbLine
  8
0
 62
256
370
-1
  6
BYLAYER
 10
40.2042454872434831
 20
280.1816970687212347
 30
0.0
 11
40.2042454872434831
 21
280.1816970687212347
 31
0.0
  0
LINE
  5
C0
100
AcDbEntity
100
AcDbLine
  8
0
 62
256
370
-1
  6
BYLAYER
 10
41.3042454872434845
 20
270.1816970687212347
 30
0.0
 11
41.3042454872434845
 21
280.1816970687212347
 31
0.0
  0
LINE
  5
C1
100
AcDbEntity
100
AcDbLine
  8
0
 62
256
370
-1
  6
BYLAYER
 10
39.1042454872434817
 20
270.1816970687212347
 30
0.0
 11
39.1042454872434817
 21
280.1816970687212347
 31
0.0
  0
LINE
  5
C2
100
AcDbEntity
100
AcDbLine
  8
0
 62
256
370
-1
  6
BYLAYER
 10
50.7042454872434831
 20
270.1816970687212347
 30
0.0
 11
50.7042454872434831
 21
280.1816970687212347
 31
0.0
  0
LINE
  5
C3
100
AcDbEntity
100
AcDbLine
  8
0
 62
256
370
-1
  6
BYLAYER
 10
55.7042454872434831
 20
270.1816970687212347
 30
0.0
 11
55.7042454872434831
 21
280.1816970687212347
 31
0.0
  0
DIMENSION
  5
C4
100
AcDbEntity
  8
bemassung_0
 62
256
370
-1
  6
BYLAYER
100
AcDbDimension
 10
39.5408051244497329
 20
266.0721942002339233
 30
0.0
 11
34.2042454872434831
 21
267.9471942002339233
 31
0.0
 70
128
 71
8
 72
2
 41
1.0
 42
0.0
  1

  3
Standard
100
AcDbAlignedDimension
 13
28.2042454872434831
 23
270.1816970687212347
 33
0.0
 14
40.2042454872434831
 24
270.1816970687212347
 34
0.0
 50
0.0
100
AcDbRotatedDimension
  0
DIMENSION
  5
C5
100
AcDbEntity
  8
bemassung_0
 62
256
370
-1
  6
BYLAYER
100
AcDbDimension
 10
47.3346898750290279
 20
261.3958633498863833
 30
0.0
 11
38.2042454872434831
 21
263.2708633498863833
 31
0.0
 70
128
 71
8
 72
2
 41
1.0
 42
0.0
  1

  3
Standard
100
AcDbAlignedDimension
 13
28.2042454872434831
 23
270.1816970687212347
 33
0.0
 14
48.2042454872434902
 24
270.1816970687212347
 34
0.0
 50
0.0
100
AcDbRotatedDimension
  0
DIMENSION
  5
C6
100
AcDbEntity
  8
bemassung_0
 62
256
370
-1
  6
BYLAYER
100
AcDbDimension
 10
57.8210075394448069
 20
261.3958633498863833
 30
0.0
 11
53.2042454872434902
 21
263.2708633498863833
 31
0.0
 70
128
 71
8
 72
2
 41
1.0
 42
0.0
  1
<10
  3
Standard
100
AcDbAlignedDimension
 13
48.2042454872434902
 23
270.1816970687212347
 33
0.0
 14
58.2042454872434902
 24
270.1816970687212347
 34
0.0
 50
0.0
100
AcDbRotatedDimension
  0
DIMENSION
  5
C7
100
AcDbEntity
  8
bemassung_0
 62
256
370
-1
  6
BYLAYER
100
AcDbDimension
 10
59.0963704986305061
 20
283.2187406515084263
 30
0.0
 11
40.7042454872434831
 21
285.0937406515084263
 31
0.0
 70
0
 71
8
 72
2
 41
1.0
 42
0.0
  1

  3
Standard
100
AcDbAlignedDimension
 13
28.2042454872434831
 23
280.1816970687212347
 33
0.0
 14
53.2042454872434831
 24
280.1816970687212347
 34
0.0
 50
0.0
100
AcDbRotatedDimension
  0
DIMENSION
  5
C8
100
AcDbEntity
  8
bemassung_0
 62
256
370
-1
  6
BYLAYER
100
AcDbDimension
 10
77.5182799090906656
 20
266.0721942002339233
 30
0.0
 11
72.2042454872434831
 21
267.9471942002339233
 31
0.0
 70
128
 71
8
 72
2
 41
1.0
 42
0.0
  1

  3
Standard
100
AcDbAlignedDimension
 13
66.2042454872434831
 23
270.1816970687212347
 33
0.0
 14
78.2042454872434831
 24
270.1816970687212347
 34
0.0
 50
0.0
100
AcDbRotatedDimension
  0
DIMENSION
  5
C9
100
AcDbEntity
  8
bemassung_0
 62
256
370
-1
  6
BYLAYER
100
AcDbDimension
 10
54.9868676301432515
 20
266.3556081911640945
 30
0.0
 11
53.2042454872434831
 21
268.2306081911640945
 31
0.0
 70
128
 71
8
 72
2
 41
1.0
 42
0.0
  1

  3
Standard
100
AcDbAlignedDimension
 13
50.704245487243476
 23
270.1816970687212347
 33
0.0
 14
55.7042454872434831
 24
270.1816970687212347
 34
0.0
 50
0.0
100
AcDbRotatedDimension
  0
DIMENSION
  5
CA
100
AcDbEntity
  8
bemassung_0
 62
256
370
-1
  6
BYLAYER
100
AcDbDimension
 10
78.26082456532761
 20
261.4412095884352425
 30
0.0
 11
68.2042454872434831
 21
263.3162095884352425
 31
0.0
 70
128
 71
8
 72
2
 41
1.0
 42
0.0
  1

  3
Standard
100
AcDbAlignedDimension
 13
58.2042454872434902
 23
270.1816970687212347
 33
0.0
 14
78.2042454872434831
 24
270.1816970687212347
 34
0.0
 50
0.0
100
AcDbRotatedDimension
  0
DIMENSION
  5
CB
100
AcDbEntity
  8
bemassung_0
 62
256
370
-1
  6
BYLAYER
100
AcDbDimension
 10
25.0130039493698533
 20
269.3257868161121564
 30
0.0
 11
23.1380039493698533
 21
275.1816970687212347
 31
0.0
 70
128
 71
8
 72
2
 41
1.0
 42
0.0
  1

  3
Standard
100
AcDbAlignedDimension
 13
28.2042454872434831
 23
280.1816970687212347
 33
0.0
 14
28.2042454872434831
 24
270.1816970687212347
 34
0.0
 50
90.0
100
AcDbRotatedDimension
  0
LINE
  5
CC
100
AcDbEntity
100
AcDbLine
  8
0
 62
256
370
-1
  6
DASHDOT2
 10
53.2037009364159132
 20
244.2525329495769313
 30
0.0
 11
53.2037009364159132
 21
254.2525329495769029
 31
0.0
  0
LINE
  5
CD
100
AcDbEntity
100
AcDbLine
  8
0
 62
256
370
-1
  6
BYLAYER
 10
50.7037009364159132
 20
244.2525329495769313
 30
0.0
 11
50.7037009364159132
 21
254.2525329495769029
 31
0.0
  0
LINE
  5
CE
100
AcDbEntity
100
AcDbLine
  8
0
 62
256
370
-1
  6
BYLAYER
 10
55.7037009364159132
 20
244.2525329495769313
 30
0.0
 11
55.7037009364159132
 21
254.2525329495769029
 31
0.0
  0
DIMENSION
  5
CF
100
AcDbEntity
  8
bemassung_top
 62
256
370
-1
  6
BYLAYER
100
AcDbDimension
 10
157.678866372583343
 20
261.4494956489805872
 30
0.0
 11
153.0621043203820477
 21
263.3244956489806441
 31
0.0
 70
128
 71
8
 72
2
 41
1.0
 42
0.0
  1
<10
  3
Standard
100
AcDbAlignedDimension
 13
148.0621043203820477
 23
270.2353293678154387
 33
0.0
 14
158.0621043203820477
 24
270.2353293678154387
 34
0.0
 50
0.0
100
AcDbRotatedDimension
  0
LINE
  5
D0
100
AcDbEntity
100
AcDbLine
  8
top
 62
256
370
-1
  6
BYLAYER
 10
178.0615597695544352
 20
244.3061652486711637
 30
0.0
 11
128.0615597695544352
 21
244.3061652486711637
 31
0.0
  0
LINE
  5
D1
100
AcDbEntity
100
AcDbLine
  8
top
 62
256
370
-1
  6
BYLAYER
 10
128.0615597695544352
 20
244.3061652486711637
 30
0.0
 11
128.0615597695544352
 21
248.7792483311343119
 31
0.0
  0
DIMENSION
  5
D2
100
AcDbEntity
  8
bemassung_top
 62
256
370
-1
  6
BYLAYER
100
AcDbDimension
 10
177.3761387422292159
 20
266.1258264993281841
 30
0.0
 11
172.0621043203819909
 21
268.000826499328241
 31
0.0
 70
128
 71
8
 72
2
 41
1.0
 42
0.0
  1

  3
Standard
100
AcDbAlignedDimension
 13
166.0621043203819909
 23
270.2353293678154955
 33
0.0
 14
178.0621043203819909
 24
270.2353293678154387
 34
0.0
 50
0.0
100
AcDbRotatedDimension
  0
LINE
  5
D3
100
AcDbEntity
100
AcDbLine
  8
top
 62
256
370
-1
  6
BYLAYER
 10
128.0615597695544352
 20
248.7792483311343119
 30
0.0
 11
177.9248090421571646
 21
248.7792483311343119
 31
0.0
  0
LINE
  5
D4
100
AcDbEntity
100
AcDbLine
  8
top
 62
256
370
-1
  6
BYLAYER
 10
178.0615597695544352
 20
248.7792483311343119
 30
0.0
 11
178.0615597695544352
 21
244.3061652486711637
 31
0.0
  0
DIMENSION
  5
D5
100
AcDbEntity
  8
bemassung_top
 62
256
370
-1
  6
BYLAYER
100
AcDbDimension
 10
178.1186833984661462
 20
261.4948418875294465
 30
0.0
 11
168.0621043203820477
 21
263.3698418875294465
 31
0.0
 70
128
 71
8
 72
2
 41
1.0
 42
0.0
  1

  3
Standard
100
AcDbAlignedDimension
 13
158.0621043203820477
 23
270.2353293678154387
 33
0.0
 14
178.0621043203819909
 24
270.2353293678154387
 34
0.0
 50
0.0
100
AcDbRotatedDimension
  0
HATCH
  5
D6
  8
top
 62
256
370
-1
  6
BYLAYER
100
AcDbEntity
100
AcDbHatch
 10
0.0
 20
0.0
 30
0.0
210
0.0
220
0.0
230
1.0
  2
ACAD_ISO02W100
 70
0
 71
0
 91
1
 92
1
 93
4
 72
1
 10
128.0615597695544352
 20
244.3061652486711637
 11
178.0615597695544352
 21
244.3061652486711637
 72
1
 10
178.0615597695544352
 20
244.3061652486711637
 11
177.9248090421571646
 21
248.7792483311343119
 72
1
 10
177.9248090421571646
 20
248.7792483311343119
 11
128.0615597695544352
 21
248.7792483311342835
 72
1
 10
128.0615597695544352
 20
248.7792483311342835
 11
128.0615597695544352
 21
244.3061652486711637
 97
0
 75
0
 76
1
 52
45.0
 41
0.25
 77
0
 78
1
 53
45.0
 43
0.0
 44
0.0
 45
-0.0883883476483184
 46
0.0883883476483185
 79
0
 98
0
  0
DIMENSION
  5
D7
100
AcDbEntity
  8
bemassung_top
 62
256
370
-1
  6
BYLAYER
100
AcDbDimension
 10
124.8708627825083965
 20
269.3794191152063604
 30
0.0
 11
122.9958627825083681
 21
275.2353293678154387
 31
0.0
 70
128
 71
8
 72
2
 41
1.0
 42
0.0
  1

  3
Standard
100
AcDbAlignedDimension
 13
128.0621043203820477
 23
280.2353293678154387
 33
0.0
 14
128.0621043203820193
 24
270.2353293678154387
 34
0.0
 50
90.0
100
AcDbRotatedDimension
  0
DIMENSION
  5
D8
100
AcDbEntity
  8
bemassung_top
 62
256
370
-1
  6
BYLAYER
100
AcDbDimension
 10
124.782900399534185
 20
245.0054694851729664
 30
0.0
 11
122.9079003995341708
 21
249.3061652486711637
 31
0.0
 70
128
 71
8
 72
2
 41
1.0
 42
0.0
  1

  3
Standard
100
AcDbAlignedDimension
 13
128.0615597695544352
 23
254.3061652486711637
 33
0.0
 14
128.0615597695544352
 24
244.3061652486711637
 34
0.0
 50
90.0
100
AcDbRotatedDimension
  0
DIMENSION
  5
D9
100
AcDbEntity
  8
bemassung_top
 62
256
370
-1
  6
BYLAYER
100
AcDbDimension
 10
132.5571036229655419
 20
240.0850876981911313
 30
0.0
 11
133.0615597695544352
 21
241.9600876981911313
 31
0.0
 70
0
 71
8
 72
2
 41
1.0
 42
0.0
  1

  3
Standard
100
AcDbAlignedDimension
 13
128.0615597695544352
 23
244.3061652486711637
 33
0.0
 14
138.0615597695544352
 24
244.3061652486711637
 34
0.0
 50
0.0
100
AcDbRotatedDimension
  0
DIMENSION
  5
DA
100
AcDbEntity
  8
bemassung_top
 62
256
370
-1
  6
BYLAYER
100
AcDbDimension
 10
176.7261092753538492
 20
235.6349086723940616
 30
0.0
 11
153.0615597695544636
 21
237.5099086723940616
 31
0.0
 70
0
 71
8
 72
2
 41
1.0
 42
0.0
  1

  3
Standard
100
AcDbAlignedDimension
 13
128.0615597695544352
 23
244.3061652486711637
 33
0.0
 14
178.061559769554492
 24
244.3061652486711637
 34
0.0
 50
0.0
100
AcDbRotatedDimension
  0
LINE
  5
DB
100
AcDbEntity
100
AcDbLine
  8
top
 62
256
370
-1
  6
BYLAYER
 10
158.712104320382025
 20
280.2353293678154387
 30
0.0
 11
158.712104320382025
 21
280.2353293678154387
 31
0.0
  0
LINE
  5
DC
100
AcDbEntity
100
AcDbLine
  8
top
 62
256
370
-1
  6
DASHDOT2
 10
166.0621043203820477
 20
270.2353293678154387
 30
0.0
 11
166.0621043203820477
 21
280.2353293678154387
 31
0.0
  0
LINE
  5
DD
100
AcDbEntity
100
AcDbLine
  8
top
 62
256
370
-1
  6
BYLAYER
 10
128.0615597695544352
 20
244.3061652486711637
 30
0.0
 11
178.0615597695544352
 21
244.3061652486711637
 31
0.0
  0
LINE
  5
DE
100
AcDbEntity
100
AcDbLine
  8
top
 62
256
370
-1
  6
DASHDOT2
 10
140.0621043203820477
 20
270.2353293678154387
 30
0.0
 11
140.0621043203820477
 21
280.2353293678154387
 31
0.0
  0
LINE
  5
DF
100
AcDbEntity
100
AcDbLine
  8
top
 62
256
370
-1
  6
BYLAYER
 10
178.0615597695544352
 20
244.3061652486711637
 30
0.0
 11
178.0615597695544352
 21
254.3061652486711637
 31
0.0
  0
LINE
  5
E0
100
AcDbEntity
100
AcDbLine
  8
top
 62
256
370
-1
  6
BYLAYER
 10
138.5621043203820477
 20
270.2353293678154387
 30
0.0
 11
138.5621043203820477
 21
280.2353293678154387
 31
0.0
  0
LINE
  5
E1
100
AcDbEntity
100
AcDbLine
  8
top
 62
256
370
-1
  6
BYLAYER
 10
178.0615597695544352
 20
254.3061652486711637
 30
0.0
 11
128.0615597695544352
 21
254.3061652486711637
 31
0.0
  0
LINE
  5
E2
100
AcDbEntity
100
AcDbLine
  8
top
 62
256
370
-1
  6
BYLAYER
 10
141.5621043203820477
 20
270.2353293678154387
 30
0.0
 11
141.5621043203820477
 21
280.2353293678154387
 31
0.0
  0
LINE
  5
E3
100
AcDbEntity
100
AcDbLine
  8
top
 62
256
370
-1
  6
BYLAYER
 10
128.0615597695544352
 20
254.3061652486711637
 30
0.0
 11
128.0615597695544352
 21
244.3061652486711637
 31
0.0
  0
LINE
  5
E4
100
AcDbEntity
100
AcDbLine
  8
top
 62
256
370
-1
  6
BYLAYER
 10
132.7115597695544693
 20
244.3061652486711637
 30
0.0
 11
132.7115597695544693
 21
244.3061652486711637
 31
0.0
  0
LINE
  5
E5
100
AcDbEntity
100
AcDbLine
  8
top
 62
256
370
-1
  6
BYLAYER
 10
164.5621043203819909
 20
270.2353293678154387
 30
0.0
 11
164.5621043203819909
 21
280.2353293678154387
 31
0.0
  0
LINE
  5
E6
100
AcDbEntity
100
AcDbLine
  8
top
 62
256
370
-1
  6
BYLAYER
 10
132.7115597695544693
 20
254.3061652486711637
 30
0.0
 11
132.7115597695544693
 21
254.3061652486711637
 31
0.0
  0
LINE
  5
E7
100
AcDbEntity
100
AcDbLine
  8
top
 62
256
370
-1
  6
BYLAYER
 10
167.5621043203820477
 20
270.2353293678154387
 30
0.0
 11
167.5621043203820477
 21
280.2353293678154387
 31
0.0
  0
LINE
  5
E8
100
AcDbEntity
100
AcDbLine
  8
top
 62
256
370
-1
  6
BYLAYER
 10
158.7115597695544693
 20
254.3061652486711637
 30
0.0
 11
158.7115597695544693
 21
254.3061652486711637
 31
0.0
  0
LINE
  5
E9
100
AcDbEntity
100
AcDbLine
  8
top
 62
256
370
-1
  6
DASHDOT2
 10
138.0615597695544352
 20
244.3061652486711637
 30
0.0
 11
138.0615597695544352
 21
254.3061652486711637
 31
0.0
  0
LINE
  5
EA
100
AcDbEntity
100
AcDbLine
  8
top
 62
256
370
-1
  6
BYLAYER
 10
178.0621043203820477
 20
270.2353293678154387
 30
0.0
 11
178.0621043203820477
 21
280.2353293678154387
 31
0.0
  0
LINE
  5
EB
100
AcDbEntity
100
AcDbLine
  8
top
 62
256
370
-1
  6
BYLAYER
 10
178.0621043203820477
 20
280.2353293678154387
 30
0.0
 11
128.0621043203820193
 21
280.2353293678154387
 31
0.0
  0
LINE
  5
EC
100
AcDbEntity
100
AcDbLine
  8
top
 62
256
370
-1
  6
BYLAYER
 10
136.5615597695544352
 20
244.3061652486711637
 30
0.0
 11
136.5615597695544352
 21
254.3061652486711637
 31
0.0
  0
LINE
  5
ED
100
AcDbEntity
100
AcDbLine
  8
top
 62
256
370
-1
  6
BYLAYER
 10
128.0621043203820193
 20
280.2353293678154387
 30
0.0
 11
128.0621043203820193
 21
270.2353293678154387
 31
0.0
  0
LINE
  5
EE
100
AcDbEntity
100
AcDbLine
  8
top
 62
256
370
-1
  6
BYLAYER
 10
139.5615597695544352
 20
244.3061652486711637
 30
0.0
 11
139.5615597695544352
 21
254.3061652486711637
 31
0.0
  0
LINE
  5
EF
100
AcDbEntity
100
AcDbLine
  8
top
 62
256
370
-1
  6
BYLAYER
 10
140.0621043203820477
 20
270.2353293678154387
 30
0.0
 11
140.0621043203820477
 21
270.2353293678154387
 31
0.0
  0
LINE
  5
F0
100
AcDbEntity
100
AcDbLine
  8
top
 62
256
370
-1
  6
BYLAYER
 10
140.0621043203820477
 20
280.2353293678154387
 30
0.0
 11
140.0621043203820477
 21
280.2353293678154387
 31
0.0
  0
DIMENSION
  5
F1
100
AcDbEntity
  8
bemassung_top
 62
256
370
-1
  6
BYLAYER
100
AcDbDimension
 10
139.3986639575882691
 20
266.1258264993281841
 30
0.0
 11
134.0621043203820477
 21
268.000826499328241
 31
0.0
 70
128
 71
8
 72
2
 41
1.0
 42
0.0
  1

  3
Standard
100
AcDbAlignedDimension
 13
128.0621043203820193
 23
270.2353293678154387
 33
0.0
 14
140.0621043203819909
 24
270.2353293678154387
 34
0.0
 50
0.0
100
AcDbRotatedDimension
  0
DIMENSION
  5
F2
100
AcDbEntity
  8
bemassung_top
 62
256
370
-1
  6
BYLAYER
100
AcDbDimension
 10
147.1925487081675783
 20
261.4494956489805872
 30
0.0
 11
138.0621043203820477
 21
263.3244956489805872
 31
0.0
 70
128
 71
8
 72
2
 41
1.0
 42
0.0
  1

  3
Standard
100
AcDbAlignedDimension
 13
128.0621043203820193
 23
270.2353293678154387
 33
0.0
 14
148.0621043203820477
 24
270.2353293678154387
 34
0.0
 50
0.0
100
AcDbRotatedDimension
  0
DIMENSION
  5
F3
100
AcDbEntity
  8
bemassung_0
 62
256
370
-1
  6
BYLAYER
100
AcDbDimension
 10
183.0484250469033896
 20
244.3994671785809487
 30
0.0
 11
181.1734250469033896
 21
246.542706789902752
 31
0.0
 70
0
 71
8
 72
2
 41
1.0
 42
0.0
  1
<5
  3
Standard
100
AcDbAlignedDimension
 13
177.9248090421571646
 23
248.7792483311343119
 33
0.0
 14
178.0615597695544352
 24
244.3061652486711637
 34
0.0
 50
90.0
100
AcDbRotatedDimension
  0
DIMENSION
  5
F4
100
AcDbEntity
  8
bemassung_0
 62
256
370
-1
  6
BYLAYER
100
AcDbDimension
 10
83.0245078567516401
 20
244.4685009030957019
 30
0.0
 11
81.1495078567516401
 21
246.4890744908085196
 31
0.0
 70
0
 71
8
 72
2
 41
1.0
 42
0.0
  1
<5
  3
Standard
100
AcDbAlignedDimension
 13
78.0669502090186143
 23
248.7256160320400795
 33
0.0
 14
78.2037009364159132
 24
244.2525329495769597
 34
0.0
 50
90.0
100
AcDbRotatedDimension
  0
LINE
  5
F5
100
AcDbEntity
100
AcDbLine
  8
top
 62
256
370
-1
  6
BYLAYER
 10
32.6421795382912165
 20
93.246887363032414
 30
0.0
 11
82.6421795382912165
 21
93.246887363032414
 31
0.0
  0
LINE
  5
F6
100
AcDbEntity
100
AcDbLine
  8
top
 62
256
370
-1
  6
BYLAYER
 10
82.6421795382912165
 20
93.246887363032414
 30
0.0
 11
82.6421795382912165
 21
143.246887363032414
 31
0.0
  0
LINE
  5
F7
100
AcDbEntity
100
AcDbLine
  8
top
 62
256
370
-1
  6
BYLAYER
 10
82.6421795382912165
 20
143.246887363032414
 30
0.0
 11
32.6421795382912165
 21
143.246887363032414
 31
0.0
  0
LINE
  5
F8
100
AcDbEntity
100
AcDbLine
  8
top
 62
256
370
-1
  6
DASHED
 10
32.6421795382912165
 20
103.246887363032414
 30
0.0
 11
82.6421795382912165
 21
103.246887363032414
 31
0.0
  0
LINE
  5
F9
100
AcDbEntity
100
AcDbLine
  8
top
 62
256
370
-1
  6
BYLAYER
 10
82.6421795382912165
 20
103.246887363032414
 30
0.0
 11
82.6421795382912165
 21
113.246887363032414
 31
0.0
  0
LINE
  5
FA
100
AcDbEntity
100
AcDbLine
  8
top
 62
256
370
-1
  6
DASHED
 10
82.6421795382912165
 20
113.246887363032414
 30
0.0
 11
32.6421795382912165
 21
113.246887363032414
 31
0.0
  0
LINE
  5
FB
100
AcDbEntity
100
AcDbLine
  8
top
 62
256
370
-1
  6
BYLAYER
 10
32.6421795382912165
 20
113.246887363032414
 30
0.0
 11
32.6421795382912165
 21
103.246887363032414
 31
0.0
  0
LINE
  5
FC
100
AcDbEntity
100
AcDbLine
  8
top
 62
256
370
-1
  6
BYLAYER
 10
32.6421795382912165
 20
134.746887363032414
 30
0.0
 11
52.6421795382912165
 21
134.746887363032414
 31
0.0
  0
LINE
  5
FD
100
AcDbEntity
100
AcDbLine
  8
top
 62
256
370
-1
  6
BYLAYER
 10
52.6421795382912165
 20
134.746887363032414
 30
0.0
 11
52.6421795382912165
 21
131.746887363032414
 31
0.0
  0
LINE
  5
FE
100
AcDbEntity
100
AcDbLine
  8
top
 62
256
370
-1
  6
BYLAYER
 10
52.6421795382912165
 20
131.746887363032414
 30
0.0
 11
32.6421795382912165
 21
131.746887363032414
 31
0.0
  0
LINE
  5
FF
100
AcDbEntity
100
AcDbLine
  8
top
 62
256
370
-1
  6
BYLAYER
 10
32.6421795382912165
 20
131.746887363032414
 30
0.0
 11
32.6421795382912165
 21
134.746887363032414
 31
0.0
  0
LINE
  5
100
100
AcDbEntity
100
AcDbLine
  8
top
 62
256
370
-1
  6
DASHDOT2
 10
32.6421795382912165
 20
133.246887363032414
 30
0.0
 11
52.6421795382912165
 21
133.246887363032414
 31
0.0
  0
LINE
  5
101
100
AcDbEntity
100
AcDbLine
  8
top
 62
256
370
-1
  6
BYLAYER
 10
32.6421795382912165
 20
134.3468873630324083
 30
0.0
 11
52.6421795382912165
 21
134.3468873630324083
 31
0.0
  0
LINE
  5
102
100
AcDbEntity
100
AcDbLine
  8
top
 62
256
370
-1
  6
BYLAYER
 10
52.6421795382912165
 20
132.1468873630324197
 30
0.0
 11
32.6421795382912165
 21
132.1468873630324197
 31
0.0
  0
LINE
  5
103
100
AcDbEntity
100
AcDbLine
  8
top
 62
256
370
-1
  6
BYLAYER
 10
32.6421795382912165
 20
138.246887363032414
 30
0.0
 11
22.6421795382912165
 21
138.246887363032414
 31
0.0
  0
LINE
  5
104
100
AcDbEntity
100
AcDbLine
  8
top
 62
256
370
-1
  6
BYLAYER
 10
22.6421795382912165
 20
138.246887363032414
 30
0.0
 11
22.6421795382912165
 21
128.246887363032414
 31
0.0
  0
LINE
  5
105
100
AcDbEntity
100
AcDbLine
  8
top
 62
256
370
-1
  6
BYLAYER
 10
22.6421795382912165
 20
128.246887363032414
 30
0.0
 11
32.6421795382912165
 21
128.246887363032414
 31
0.0
  0
LINE
  5
106
100
AcDbEntity
100
AcDbLine
  8
top
 62
256
370
-1
  6
BYLAYER
 10
32.6421795382912165
 20
128.246887363032414
 30
0.0
 11
32.6421795382912165
 21
138.246887363032414
 31
0.0
  0
POINT
  5
107
100
AcDbEntity
100
AcDbPoint
  8
top
 62
256
370
-1
  6
BYLAYER
 10
32.6421795382912165
 20
131.746887363032414
 30
0.0
  0
POINT
  5
108
100
AcDbEntity
100
AcDbPoint
  8
top
 62
256
370
-1
  6
BYLAYER
 10
22.6421795382912165
 20
134.746887363032414
 30
0.0
  0
LINE
  5
109
100
AcDbEntity
100
AcDbLine
  8
top
 62
256
370
-1
  6
BYLAYER
 10
32.6421795382912165
 20
131.746887363032414
 30
0.0
 11
22.6421795382912165
 21
131.746887363032414
 31
0.0
  0
LINE
  5
10A
100
AcDbEntity
100
AcDbLine
  8
top
 62
256
370
-1
  6
BYLAYER
 10
22.6421795382912165
 20
131.746887363032414
 30
0.0
 11
22.6421795382912165
 21
134.746887363032414
 31
0.0
  0
LINE
  5
10B
100
AcDbEntity
100
AcDbLine
  8
top
 62
256
370
-1
  6
BYLAYER
 10
22.6421795382912165
 20
134.746887363032414
 30
0.0
 11
32.6421795382912165
 21
134.746887363032414
 31
0.0
  0
LINE
  5
10C
100
AcDbEntity
100
AcDbLine
  8
top
 62
256
370
-1
  6
BYLAYER
 10
32.6421795382912165
 20
134.746887363032414
 30
0.0
 11
32.6421795382912165
 21
131.746887363032414
 31
0.0
  0
POINT
  5
10D
100
AcDbEntity
100
AcDbPoint
  8
top
 62
256
370
-1
  6
BYLAYER
 10
32.6421795382912165
 20
133.246887363032414
 30
0.0
  0
POINT
  5
10E
100
AcDbEntity
100
AcDbPoint
  8
top
 62
256
370
-1
  6
BYLAYER
 10
22.6421795382912165
 20
133.246887363032414
 30
0.0
  0
LINE
  5
10F
100
AcDbEntity
100
AcDbLine
  8
top
 62
256
370
-1
  6
DASHDOT2
 10
32.6421795382912165
 20
133.246887363032414
 30
0.0
 11
22.6421795382912165
 21
133.246887363032414
 31
0.0
  0
LINE
  5
110
100
AcDbEntity
100
AcDbLine
  8
top
 62
256
370
-1
  6
BYLAYER
 10
32.6677776443382157
 20
58.6450264464458115
 30
0.0
 11
82.6677776443382157
 21
58.6450264464458115
 31
0.0
  0
LINE
  5
111
100
AcDbEntity
100
AcDbLine
  8
top
 62
256
370
-1
  6
BYLAYER
 10
82.6677776443382157
 20
58.6450264464458115
 30
0.0
 11
82.6677776443382157
 21
68.2948943671343613
 31
0.0
  0
LINE
  5
112
100
AcDbEntity
100
AcDbLine
  8
top
 62
256
370
-1
  6
BYLAYER
 10
82.6677776443382157
 20
78.6450264464458115
 30
0.0
 11
32.6677776443382157
 21
78.6450264464458115
 31
0.0
  0
LINE
  5
113
100
AcDbEntity
100
AcDbLine
  8
top
 62
256
370
-1
  6
BYLAYER
 10
32.6677776443382157
 20
78.6450264464458115
 30
0.0
 11
32.6677776443382157
 21
58.6450264464458115
 31
0.0
  0
LINE
  5
114
100
AcDbEntity
100
AcDbLine
  8
top
 62
256
370
-1
  6
BYLAYER
 10
32.6677776443382157
 20
40.6223057409316652
 30
0.0
 11
32.6705262916671444
 21
12.7176479865190011
 31
0.0
  0
LINE
  5
115
100
AcDbEntity
100
AcDbLine
  8
top
 62
256
370
-1
  6
BYLAYER
 10
32.6677776443382157
 20
20.6223057409316688
 30
0.0
 11
82.6677776443382157
 21
20.6223057409316688
 31
0.0
  0
LINE
  5
116
100
AcDbEntity
100
AcDbLine
  8
top
 62
256
370
-1
  6
BYLAYER
 10
82.6677776443382157
 20
20.6223057409316688
 30
0.0
 11
82.6677776443382157
 21
40.6223057409316652
 31
0.0
  0
LINE
  5
117
100
AcDbEntity
100
AcDbLine
  8
top
 62
256
370
-1
  6
BYLAYER
 10
82.6677776443382157
 20
40.6223057409316652
 30
0.0
 11
32.6677776443382157
 21
40.6223057409316652
 31
0.0
  0
LINE
  5
118
100
AcDbEntity
100
AcDbLine
  8
top
 62
256
370
-1
  6
BYLAYER
 10
72.6677776443382157
 20
68.9951585257572617
 30
0.0
 11
82.6798407810771749
 21
68.9951585257572617
 31
0.0
  0
LINE
  5
119
100
AcDbEntity
100
AcDbLine
  8
top
 62
256
370
-1
  6
BYLAYER
 10
82.6798407810771749
 20
68.2948943671343613
 30
0.0
 11
82.6677776443382157
 21
68.2948943671343613
 31
0.0
  0
LINE
  5
11A
100
AcDbEntity
100
AcDbLine
  8
top
 62
256
370
-1
  6
BYLAYER
 10
82.6677776443382157
 20
68.9951585257572617
 30
0.0
 11
82.6677776443382157
 21
78.6450264464458115
 31
0.0
  0
LINE
  5
11B
100
AcDbEntity
100
AcDbLine
  8
top
 62
256
370
-1
  6
BYLAYER
 10
82.6677776443382157
 20
68.2948943671343613
 30
0.0
 11
72.6677776443382157
 21
68.2948943671343613
 31
0.0
  0
LINE
  5
11C
100
AcDbEntity
100
AcDbLine
  8
top
 62
256
370
-1
  6
BYLAYER
 10
82.6677776443382157
 20
68.2948943671343613
 30
0.0
 11
82.6677776443382157
 21
68.2948943671343613
 31
0.0
  0
ARC
  5
11D
100
AcDbEntity
  8
top
 62
256
370
-1
  6
BYLAYER
100
AcDbCircle
 10
67.6677776443382157
 20
68.6450264464458115
 30
0.0
 40
5.0
100
AcDbArc
 50
4.0056790752860767
 51
355.994320924713918
  0
DIMENSION
  5
11E
100
AcDbEntity
  8
bemassung_bar
 62
256
370
-1
  6
BYLAYER
100
AcDbDimension
 10
71.2033115502709535
 20
72.1805603523785493
 30
0.0
 11
66.3419524296134426
 21
69.9708516611705846
 31
0.0
 70
3
 71
8
 72
2
 41
1.0
 42
0.0
  1

  3
Standard
100
AcDbDiametricDimension
 15
64.132243738405478
 25
65.1094925405130738
 35
0.0
 40
0.0
  0
CIRCLE
  5
11F
100
AcDbEntity
100
AcDbCircle
  8
top
 62
256
370
-1
  6
BYLAYER
 10
42.6677776443382157
 20
63.6450264464458115
 30
0.0
 40
1.5
  0
CIRCLE
  5
120
100
AcDbEntity
100
AcDbCircle
  8
top
 62
256
370
-1
  6
BYLAYER
 10
42.6677776443382157
 20
73.6450264464458115
 30
0.0
 40
1.5
  0
CIRCLE
  5
121
100
AcDbEntity
100
AcDbCircle
  8
top
 62
256
370
-1
  6
DASHED2
 10
42.6677776443382157
 20
73.6450264464458115
 30
0.0
 40
1.1000000000000001
  0
CIRCLE
  5
122
100
AcDbEntity
100
AcDbCircle
  8
top
 62
256
370
-1
  6
DASHED2
 10
42.6677776443382157
 20
63.6450264464458115
 30
0.0
 40
1.1000000000000001
  0
LINE
  5
123
100
AcDbEntity
100
AcDbLine
  8
top
 62
256
370
-1
  6
BYLAYER
 10
37.6677776443382157
 20
58.6450264464458115
 30
0.0
 11
47.6677776443382157
 21
58.6450264464458115
 31
0.0
  0
LINE
  5
124
100
AcDbEntity
100
AcDbLine
  8
top
 62
256
370
-1
  6
BYLAYER
 10
47.6677776443382157
 20
58.6450264464458115
 30
0.0
 11
47.6677776443382157
 21
78.6450264464458115
 31
0.0
  0
LINE
  5
125
100
AcDbEntity
100
AcDbLine
  8
top
 62
256
370
-1
  6
BYLAYER
 10
47.6677776443382157
 20
78.6450264464458115
 30
0.0
 11
37.6677776443382157
 21
78.6450264464458115
 31
0.0
  0
LINE
  5
126
100
AcDbEntity
100
AcDbLine
  8
top
 62
256
370
-1
  6
BYLAYER
 10
37.6677776443382157
 20
78.6450264464458115
 30
0.0
 11
37.6677776443382157
 21
58.6450264464458115
 31
0.0
  0
HATCH
  5
127
  8
top
 62
9
420
12632256
370
-1
  6
BYLAYER
100
AcDbEntity
100
AcDbHatch
 10
0.0
 20
0.0
 30
0.0
210
0.0
220
0.0
230
1.0
  2
ANSI31
 70
0
 71
0
 91
1
 92
1
 93
4
 72
1
 10
47.6677776443382157
 20
58.6450264464458115
 11
47.6677776443382157
 21
78.6450264464458115
 72
1
 10
47.6677776443382157
 20
78.6450264464458115
 11
37.6677776443382157
 21
78.6450264464458115
 72
1
 10
37.6677776443382157
 20
78.6450264464458115
 11
37.6677776443382157
 21
58.6450264464458115
 72
1
 10
37.6677776443382157
 20
58.6450264464458115
 11
47.6677776443382157
 21
58.6450264464458115
 97
0
 75
0
 76
1
 52
0.0
 41
0.25
 77
0
 78
1
 53
45.0
 43
0.0
 44
0.0
 45
-0.0883883476483184
 46
0.0883883476483185
 79
0
 98
0
  0
LINE
  5
128
100
AcDbEntity
100
AcDbLine
  8
top
 62
256
370
-1
  6
BYLAYER
 10
77.6677776443382157
 20
58.6450264464458115
 30
0.0
 11
77.6677776443382157
 21
68.2948943671343613
 31
0.0
  0
LINE
  5
129
100
AcDbEntity
100
AcDbLine
  8
top
 62
256
370
-1
  6
BYLAYER
 10
77.6738092127076953
 20
68.9951585257572617
 30
0.0
 11
77.6755266209261208
 21
78.6450264464458115
 31
0.0
  0
LINE
  5
12A
100
AcDbEntity
100
AcDbLine
  8
top
 62
256
370
-1
  6
BYLAYER
 10
76.1677776443382157
 20
58.6450264464458115
 30
0.0
 11
76.1677776443382157
 21
68.2948943671343613
 31
0.0
  0
LINE
  5
12B
100
AcDbEntity
100
AcDbLine
  8
top
 62
256
370
-1
  6
BYLAYER
 10
79.1677776443382157
 20
58.6450264464458115
 30
0.0
 11
79.1677776443382157
 21
68.2948943671343613
 31
0.0
  0
LINE
  5
12C
100
AcDbEntity
100
AcDbLine
  8
top
 62
256
370
-1
  6
BYLAYER
 10
76.1738092364632706
 20
68.9954254840522481
 30
0.0
 11
76.1755266446816961
 21
78.6452934047407837
 31
0.0
  0
LINE
  5
12D
100
AcDbEntity
100
AcDbLine
  8
top
 62
256
370
-1
  6
BYLAYER
 10
79.1738091889521201
 20
68.9948915674622896
 30
0.0
 11
79.1755265971705455
 21
78.6447594881508394
 31
0.0
  0
LINE
  5
12E
100
AcDbEntity
100
AcDbLine
  8
top
 62
256
370
-1
  6
BYLAYER
 10
78.7677776443382101
 20
58.6450264464458115
 30
0.0
 11
78.7677776443382101
 21
68.2948943671343613
 31
0.0
  0
LINE
  5
12F
100
AcDbEntity
100
AcDbLine
  8
top
 62
256
370
-1
  6
BYLAYER
 10
76.5677776443382214
 20
58.6450264464458115
 30
0.0
 11
76.5677776443382214
 21
68.2948943671343613
 31
0.0
  0
LINE
  5
130
100
AcDbEntity
100
AcDbLine
  8
top
 62
256
370
-1
  6
BYLAYER
 10
22.6570178324351161
 20
11.3413837907003803
 30
0.0
 11
22.6677776443382157
 21
40.6223057409316652
 31
0.0
  0
LINE
  5
131
100
AcDbEntity
100
AcDbLine
  8
top
 62
256
370
-1
  6
BYLAYER
 10
22.6677776443382157
 20
40.6223057409316652
 30
0.0
 11
32.6677776443382157
 21
40.6223057409316652
 31
0.0
  0
LINE
  5
132
100
AcDbEntity
100
AcDbLine
  8
top
 62
256
370
-1
  6
BYLAYER
 10
32.6677776443382157
 20
40.6223057409316652
 30
0.0
 11
32.6677776443382157
 21
20.6223057409316688
 31
0.0
  0
LINE
  5
133
100
AcDbEntity
100
AcDbLine
  8
top
 62
256
370
-1
  6
DASHDOT2
 10
32.6677776443382157
 20
25.6223057409316688
 30
0.0
 11
52.6677776443382157
 21
25.6223057409316688
 31
0.0
  0
LINE
  5
134
100
AcDbEntity
100
AcDbLine
  8
top
 62
256
370
-1
  6
DASHDOT2
 10
32.6677776443382157
 20
35.6223057409316652
 30
0.0
 11
52.6677776443382157
 21
35.6223057409316652
 31
0.0
  0
LINE
  5
135
100
AcDbEntity
100
AcDbLine
  8
top
 62
256
370
-1
  6
BYLAYER
 10
32.6677776443382157
 20
34.1223057409316652
 30
0.0
 11
52.6677776443382157
 21
34.1223057409316652
 31
0.0
  0
LINE
  5
136
100
AcDbEntity
100
AcDbLine
  8
top
 62
256
370
-1
  6
BYLAYER
 10
52.6677776443382157
 20
34.1223057409316652
 30
0.0
 11
52.6677776443382157
 21
37.1223057409316652
 31
0.0
  0
LINE
  5
137
100
AcDbEntity
100
AcDbLine
  8
top
 62
256
370
-1
  6
BYLAYER
 10
52.6677776443382157
 20
37.1223057409316652
 30
0.0
 11
32.6677776443382157
 21
37.1223057409316652
 31
0.0
  0
LINE
  5
138
100
AcDbEntity
100
AcDbLine
  8
top
 62
256
370
-1
  6
BYLAYER
 10
32.6677776443382157
 20
37.1223057409316652
 30
0.0
 11
32.6677776443382157
 21
34.1223057409316652
 31
0.0
  0
LINE
  5
139
100
AcDbEntity
100
AcDbLine
  8
top
 62
256
370
-1
  6
BYLAYER
 10
32.6677776443382157
 20
24.1223057409316688
 30
0.0
 11
52.6677776443382157
 21
24.1223057409316688
 31
0.0
  0
LINE
  5
13A
100
AcDbEntity
100
AcDbLine
  8
top
 62
256
370
-1
  6
BYLAYER
 10
52.6677776443382157
 20
24.1223057409316688
 30
0.0
 11
52.6677776443382157
 21
27.1223057409316688
 31
0.0
  0
LINE
  5
13B
100
AcDbEntity
100
AcDbLine
  8
top
 62
256
370
-1
  6
BYLAYER
 10
52.6677776443382157
 20
27.1223057409316688
 30
0.0
 11
32.6677776443382157
 21
27.1223057409316688
 31
0.0
  0
LINE
  5
13C
100
AcDbEntity
100
AcDbLine
  8
top
 62
256
370
-1
  6
BYLAYER
 10
32.6677776443382157
 20
27.1223057409316688
 30
0.0
 11
32.6677776443382157
 21
24.1223057409316688
 31
0.0
  0
LINE
  5
13D
100
AcDbEntity
100
AcDbLine
  8
top
 62
256
370
-1
  6
BYLAYER
 10
52.6677776443382157
 20
36.7223057409316738
 30
0.0
 11
32.6677776443382157
 21
36.7223057409316738
 31
0.0
  0
LINE
  5
13E
100
AcDbEntity
100
AcDbLine
  8
top
 62
256
370
-1
  6
BYLAYER
 10
32.6677776443382157
 20
34.5223057409316709
 30
0.0
 11
52.6677776443382157
 21
34.5223057409316709
 31
0.0
  0
LINE
  5
13F
100
AcDbEntity
100
AcDbLine
  8
top
 62
256
370
-1
  6
BYLAYER
 10
52.6677776443382157
 20
26.7223057409316702
 30
0.0
 11
32.6677776443382157
 21
26.7223057409316702
 31
0.0
  0
LINE
  5
140
100
AcDbEntity
100
AcDbLine
  8
top
 62
256
370
-1
  6
BYLAYER
 10
32.6677776443382157
 20
24.5223057409316674
 30
0.0
 11
52.6677776443382157
 21
24.5223057409316674
 31
0.0
  0
LINE
  5
141
100
AcDbEntity
100
AcDbLine
  8
top
 62
256
370
-1
  6
BYLAYER
 10
32.6677776443382157
 20
34.1223057409316652
 30
0.0
 11
22.6677776443382157
 21
34.1223057409316652
 31
0.0
  0
LINE
  5
142
100
AcDbEntity
100
AcDbLine
  8
top
 62
256
370
-1
  6
BYLAYER
 10
32.6677776443382157
 20
37.1223057409316652
 30
0.0
 11
22.6677776443382157
 21
37.1223057409316652
 31
0.0
  0
LINE
  5
143
100
AcDbEntity
100
AcDbLine
  8
top
 62
256
370
-1
  6
BYLAYER
 10
32.6677776443382157
 20
24.1223057409316688
 30
0.0
 11
22.6677776443382157
 21
24.1223057409316688
 31
0.0
  0
LINE
  5
144
100
AcDbEntity
100
AcDbLine
  8
top
 62
256
370
-1
  6
BYLAYER
 10
32.6677776443382157
 20
27.1223057409316688
 30
0.0
 11
22.6677776443382157
 21
27.1223057409316688
 31
0.0
  0
LINE
  5
145
100
AcDbEntity
100
AcDbLine
  8
top
 62
256
370
-1
  6
DASHDOT2
 10
57.6677776443382157
 20
20.6223057409316688
 30
0.0
 11
57.6677776443382157
 21
30.2721736616202115
 31
0.0
  0
LINE
  5
146
100
AcDbEntity
100
AcDbLine
  8
top
 62
256
370
-1
  6
DASHDOT2
 10
57.6738092127076953
 20
30.9724378202431261
 30
0.0
 11
57.6755266209261208
 21
40.6223057409316652
 31
0.0
  0
LINE
  5
147
100
AcDbEntity
100
AcDbLine
  8
top
 62
256
370
-1
  6
BYLAYER
 10
56.1677776443382157
 20
20.6223057409316688
 30
0.0
 11
56.1677776443382157
 21
30.2721736616202115
 31
0.0
  0
LINE
  5
148
100
AcDbEntity
100
AcDbLine
  8
top
 62
256
370
-1
  6
BYLAYER
 10
59.1677776443382157
 20
20.6223057409316688
 30
0.0
 11
59.1677776443382157
 21
30.2721736616202115
 31
0.0
  0
LINE
  5
149
100
AcDbEntity
100
AcDbLine
  8
top
 62
256
370
-1
  6
BYLAYER
 10
56.1738092364632706
 20
30.9727047785380982
 30
0.0
 11
56.1755266446816961
 21
40.6225726992266374
 31
0.0
  0
LINE
  5
14A
100
AcDbEntity
100
AcDbLine
  8
top
 62
256
370
-1
  6
BYLAYER
 10
59.1738091889521201
 20
30.9721708619481539
 30
0.0
 11
59.1755265971705455
 21
40.6220387826366931
 31
0.0
  0
LINE
  5
14B
100
AcDbEntity
100
AcDbLine
  8
top
 62
256
370
-1
  6
BYLAYER
 10
58.7677776443382101
 20
20.6223057409316688
 30
0.0
 11
58.7677776443382101
 21
30.2721736616202115
 31
0.0
  0
LINE
  5
14C
100
AcDbEntity
100
AcDbLine
  8
top
 62
256
370
-1
  6
BYLAYER
 10
56.5677776443382214
 20
20.6223057409316688
 30
0.0
 11
56.5677776443382214
 21
30.2721736616202115
 31
0.0
  0
LINE
  5
14D
100
AcDbEntity
100
AcDbLine
  8
top
 62
256
370
-1
  6
BYLAYER
 10
32.6280473796516617
 20
30.9383222504642283
 30
0.0
 11
82.6280473796516617
 21
30.9383222504642283
 31
0.0
  0
LINE
  5
14E
100
AcDbEntity
100
AcDbLine
  8
top
 62
256
370
-1
  6
BYLAYER
 10
32.6509338505538196
 20
30.2746145943016991
 30
0.0
 11
82.6509338505538125
 21
30.2746145943016991
 31
0.0
  0
LINE
  5
14F
100
AcDbEntity
100
AcDbLine
  8
top
 62
256
370
-1
  6
DASHED
 10
32.6677776443382157
 20
25.6223057409316688
 30
0.0
 11
82.6677776443382157
 21
25.6223057409316688
 31
0.0
  0
LINE
  5
150
100
AcDbEntity
100
AcDbLine
  8
top
 62
256
370
-1
  6
BYLAYER
 10
82.6677776443382157
 20
25.6223057409316688
 30
0.0
 11
82.6677776443382157
 21
35.6223057409316652
 31
0.0
  0
LINE
  5
151
100
AcDbEntity
100
AcDbLine
  8
top
 62
256
370
-1
  6
DASHED
 10
82.6677776443382157
 20
35.6223057409316652
 30
0.0
 11
32.6677776443382157
 21
35.6223057409316652
 31
0.0
  0
LINE
  5
152
100
AcDbEntity
100
AcDbLine
  8
top
 62
256
370
-1
  6
BYLAYER
 10
32.6677776443382157
 20
35.6223057409316652
 30
0.0
 11
32.6677776443382157
 21
25.6223057409316688
 31
0.0
  0
LINE
  5
153
100
AcDbEntity
100
AcDbLine
  8
top
 62
256
370
-1
  6
DASHDOT2
 10
32.6677776443382157
 20
35.6223057409316652
 30
0.0
 11
22.6677776443382157
 21
35.6223057409316652
 31
0.0
  0
LINE
  5
154
100
AcDbEntity
100
AcDbLine
  8
top
 62
256
370
-1
  6
DASHDOT2
 10
32.6677776443382157
 20
25.6223057409316688
 30
0.0
 11
22.6677776443382157
 21
25.6223057409316688
 31
0.0
  0
DIMENSION
  5
155
100
AcDbEntity
  8
bemassung_bar
 62
256
370
-1
  6
BYLAYER
100
AcDbDimension
 10
82.3753764507882806
 20
89.1573498671313871
 30
0.0
 11
57.6421795382912165
 21
91.0323498671313871
 31
0.0
 70
0
 71
8
 72
2
 41
1.0
 42
0.0
  1

  3
Standard
100
AcDbAlignedDimension
 13
32.6421795382912165
 23
93.246887363032414
 33
0.0
 14
82.6421795382912165
 24
93.246887363032414
 34
0.0
 50
0.0
100
AcDbRotatedDimension
  0
DIMENSION
  5
156
100
AcDbEntity
  8
bemassung_bar
 62
256
370
-1
  6
BYLAYER
100
AcDbDimension
 10
86.7966347092987291
 20
102.7612214317788926
 30
0.0
 11
84.9216347092987291
 21
98.246887363032414
 31
0.0
 70
0
 71
8
 72
2
 41
1.0
 42
0.0
  1

  3
Standard
100
AcDbAlignedDimension
 13
82.6421795382912165
 23
93.246887363032414
 33
0.0
 14
82.6421795382912165
 24
103.2468873630324282
 34
0.0
 50
90.0
100
AcDbRotatedDimension
  0
DIMENSION
  5
157
100
AcDbEntity
  8
bemassung_bar
 62
256
370
-1
  6
BYLAYER
100
AcDbDimension
 10
86.7966347092987291
 20
113.4742702889388113
 30
0.0
 11
84.9216347092987291
 21
108.246887363032414
 31
0.0
 70
0
 71
8
 72
2
 41
1.0
 42
0.0
  1

  3
Standard
100
AcDbAlignedDimension
 13
82.6421795382912165
 23
103.246887363032414
 33
0.0
 14
82.6421795382912165
 24
113.246887363032414
 34
0.0
 50
90.0
100
AcDbRotatedDimension
  0
DIMENSION
  5
158
100
AcDbEntity
  8
bemassung_bar
 62
256
370
-1
  6
BYLAYER
100
AcDbDimension
 10
91.728038151483446
 20
140.6820134182337938
 30
0.0
 11
89.853038151483446
 21
118.246887363032414
 31
0.0
 70
0
 71
8
 72
2
 41
1.0
 42
0.0
  1

  3
Standard
100
AcDbAlignedDimension
 13
82.6421795382912165
 23
93.246887363032414
 33
0.0
 14
82.6421795382912165
 24
143.246887363032414
 34
0.0
 50
90.0
100
AcDbRotatedDimension
  0
DIMENSION
  5
159
100
AcDbEntity
  8
bemassung_bar
 62
256
370
-1
  6
BYLAYER
100
AcDbDimension
 10
16.2454452337518447
 20
133.591940078464404
 30
0.0
 11
14.3704452337518447
 21
138.2468873630323856
 31
0.0
 70
0
 71
8
 72
2
 41
1.0
 42
0.0
  1

  3
Standard
100
AcDbAlignedDimension
 13
32.6421795382912165
 23
143.246887363032414
 33
0.0
 14
32.6421795382912165
 24
133.2468873630323856
 34
0.0
 50
90.0
100
AcDbRotatedDimension
  0
DIMENSION
  5
15A
100
AcDbEntity
  8
bemassung_bar
 62
256
370
-1
  6
BYLAYER
100
AcDbDimension
 10
20.1423876090414851
 20
128.5141060742990931
 30
0.0
 11
18.2673876090414851
 21
133.2468873630323856
 31
0.0
 70
0
 71
8
 72
2
 41
1.0
 42
0.0
  1

  3
Standard
100
AcDbAlignedDimension
 13
22.6421795382912165
 23
138.246887363032414
 33
0.0
 14
22.6421795382912165
 24
128.2468873630323856
 34
0.0
 50
90.0
100
AcDbRotatedDimension
  0
DIMENSION
  5
15B
100
AcDbEntity
  8
bemassung_bar
 62
256
370
-1
  6
BYLAYER
100
AcDbDimension
 10
32.7779280380109626
 20
124.1448070474591816
 30
0.0
 11
27.6421795382912165
 21
126.0198070474591816
 31
0.0
 70
0
 71
8
 72
2
 41
1.0
 42
0.0
  1

  3
Standard
100
AcDbAlignedDimension
 13
22.6421795382912165
 23
128.2468873630323856
 33
0.0
 14
32.6421795382912165
 24
128.2468873630323856
 34
0.0
 50
0.0
100
AcDbRotatedDimension
  0
DIMENSION
  5
15C
100
AcDbEntity
  8
bemassung_bar
 62
256
370
-1
  6
BYLAYER
100
AcDbDimension
 10
57.1986272086148659
 20
134.7468873630323856
 30
0.0
 11
55.3236272086148659
 21
133.2468873630323856
 31
0.0
 70
1
 71
8
 72
2
 41
1.0
 42
0.0
  1

  3
Standard
100
AcDbAlignedDimension
 13
52.6421795382912165
 23
134.7468873630323856
 33
0.0
 14
52.6421795382912165
 24
131.7468873630323856
 34
0.0
  0
DIMENSION
  5
15D
100
AcDbEntity
  8
bemassung_bar
 62
256
370
-1
  6
BYLAYER
100
AcDbDimension
 10
33.0035748029073517
 20
81.330730606214189
 30
0.0
 11
37.6677776443382157
 21
83.205730606214189
 31
0.0
 70
0
 71
8
 72
2
 41
1.0
 42
0.0
  1

  3
Standard
100
AcDbAlignedDimension
 13
42.6677776443382157
 23
63.6450264464458115
 33
0.0
 14
32.6677776443382157
 24
78.6450264464458115
 34
0.0
 50
0.0
100
AcDbRotatedDimension
  0
DIMENSION
  5
15E
100
AcDbEntity
  8
bemassung_bar
 62
256
370
-1
  6
BYLAYER
100
AcDbDimension
 10
82.6010232156847053
 20
54.5244906307369064
 30
0.0
 11
57.6677776443382157
 21
56.3994906307369064
 31
0.0
 70
0
 71
8
 72
2
 41
1.0
 42
0.0
  1

  3
Standard
100
AcDbAlignedDimension
 13
32.6677776443382157
 23
58.6450264464458044
 33
0.0
 14
82.6677776443382157
 24
58.6450264464458044
 34
0.0
 50
0.0
100
AcDbRotatedDimension
  0
DIMENSION
  5
15F
100
AcDbEntity
  8
bemassung_bar
 62
256
370
-1
  6
BYLAYER
100
AcDbDimension
 10
87.1632722124404893
 20
68.1757870297815316
 30
0.0
 11
85.2882722124404893
 21
63.6602527464818451
 31
0.0
 70
0
 71
8
 72
2
 41
1.0
 42
0.0
  1
10
  3
Standard
100
AcDbAlignedDimension
 13
82.6677776443382157
 23
58.6450264464458044
 33
0.0
 14
82.6528708532844547
 24
68.6754790465178786
 34
0.0
 50
90.0
100
AcDbRotatedDimension
  0
DIMENSION
  5
160
100
AcDbEntity
  8
bemassung_bar
 62
256
370
-1
  6
BYLAYER
100
AcDbDimension
 10
82.4785635515399065
 20
80.385335281300712
 30
0.0
 11
80.1716521326321754
 21
82.260335281300712
 31
0.0
 70
0
 71
8
 72
2
 41
1.0
 42
0.0
  1
5
  3
Standard
100
AcDbAlignedDimension
 13
77.6755266209261208
 23
78.6450264464457973
 33
0.0
 14
82.6677776443382157
 24
78.6450264464457973
 34
0.0
 50
0.0
100
AcDbRotatedDimension
  0
DIMENSION
  5
161
100
AcDbEntity
  8
bemassung_bar
 62
256
370
-1
  6
BYLAYER
100
AcDbDimension
 10
67.735308739268703
 20
84.8924014546912673
 30
0.0
 11
75.1677776443382157
 21
86.7674014546912673
 31
0.0
 70
0
 71
8
 72
2
 41
1.0
 42
0.0
  1

  3
Standard
100
AcDbAlignedDimension
 13
82.6677776443382157
 23
68.9951585257572617
 33
0.0
 14
67.6677776443382157
 24
68.6450264464458115
 34
0.0
 50
0.0
100
AcDbRotatedDimension
  0
DIMENSION
  5
162
100
AcDbEntity
  8
bemassung_bar
 62
256
370
-1
  6
BYLAYER
100
AcDbDimension
 10
36.8052746160311202
 20
56.1797929658476392
 30
0.0
 11
40.1677776443382157
 21
58.0547929658476392
 31
0.0
 70
0
 71
8
 72
2
 41
1.0
 42
0.0
  1

  3
Standard
100
AcDbAlignedDimension
 13
42.6677776443382157
 23
63.6450264464458115
 33
0.0
 14
37.6677776443382157
 24
63.6450264464458115
 34
0.0
 50
0.0
100
AcDbRotatedDimension
  0
DIMENSION
  5
163
100
AcDbEntity
  8
bemassung_bar
 62
256
370
13
  6
BYLAYER
100
AcDbDimension
 10
28.9212739842050581
 20
58.8249537672566021
 30
0.0
 11
27.0462739842050581
 21
61.1450264464458115
 31
0.0
 70
0
 71
8
 72
2
 41
1.0
 42
0.0
  1

  3
Standard
100
AcDbAlignedDimension
 13
42.6677776443382157
 23
63.6450264464458115
 33
0.0
 14
42.6677776443382157
 24
58.6450264464458115
 34
0.0
 50
90.0
100
AcDbRotatedDimension
  0
DIMENSION
  5
164
100
AcDbEntity
  8
bemassung_bar
 62
256
370
-1
  6
BYLAYER
100
AcDbDimension
 10
28.9212739842050581
 20
77.4472320582644187
 30
0.0
 11
27.0462739842050581
 21
76.0352024863879024
 31
0.0
 70
0
 71
8
 72
2
 41
1.0
 42
0.0
  1
5
  3
Standard
100
AcDbAlignedDimension
 13
42.6677776443382157
 23
73.4253785263300074
 33
0.0
 14
42.6677776443382157
 24
78.6450264464458115
 34
0.0
 50
90.0
100
AcDbRotatedDimension
  0
DIMENSION
  5
165
100
AcDbEntity
  8
bemassung_bar
 62
256
370
-1
  6
BYLAYER
100
AcDbDimension
 10
92.9910763364138262
 20
56.9619310231426823
 30
0.0
 11
91.1160763364138262
 21
68.6450264464457973
 31
0.0
 70
0
 71
8
 72
2
 41
1.0
 42
0.0
  1

  3
Standard
100
AcDbAlignedDimension
 13
82.6677776443382157
 23
78.6450264464457973
 33
0.0
 14
82.6677776443382157
 24
58.6450264464458044
 34
0.0
 50
90.0
100
AcDbRotatedDimension
  0
DIMENSION
  5
166
100
AcDbEntity
  8
bemassung_bar
 62
256
370
-1
  6
BYLAYER
100
AcDbDimension
 10
86.4905053059387114
 20
29.3204263093469528
 30
0.0
 11
84.6155053059387114
 21
35.6223057409316652
 31
0.0
 70
0
 71
8
 72
2
 41
1.0
 42
0.0
  1

  3
Standard
100
AcDbAlignedDimension
 13
82.6677776443382157
 23
40.6223057409316652
 33
0.0
 14
82.6677776443382157
 24
30.6223057409316688
 34
0.0
 50
90.0
100
AcDbRotatedDimension
  0
DIMENSION
  5
167
100
AcDbEntity
  8
bemassung_bar
 62
256
370
-1
  6
BYLAYER
100
AcDbDimension
 10
86.5518835252464953
 20
20.7960778943338234
 30
0.0
 11
84.6768835252464953
 21
25.6223057409316688
 31
0.0
 70
0
 71
8
 72
2
 41
1.0
 42
0.0
  1

  3
Standard
100
AcDbAlignedDimension
 13
86.4905053059386972
 23
30.6223057409316652
 33
0.0
 14
82.6677776443382157
 24
20.6223057409316723
 34
0.0
 50
90.0
100
AcDbRotatedDimension
  0
DIMENSION
  5
168
100
AcDbEntity
  8
bemassung_bar
 62
256
370
-1
  6
BYLAYER
100
AcDbDimension
 10
59.0321881906568535
 20
47.9772948870351144
 30
0.0
 11
70.1716521326321754
 21
49.8522948870351144
 31
0.0
 70
0
 71
8
 72
2
 41
1.0
 42
0.0
  1
25
  3
Standard
100
AcDbAlignedDimension
 13
82.6677776443382157
 23
40.6223057409316652
 33
0.0
 14
57.6755266209261208
 24
40.6223057409316652
 34
0.0
 50
0.0
100
AcDbRotatedDimension
  0
DIMENSION
  5
169
100
AcDbEntity
  8
bemassung_bar
 62
256
370
-1
  6
BYLAYER
100
AcDbDimension
 10
36.2409797533567826
 20
9.487743554777488
 30
0.0
 11
57.6677776443382157
 21
11.362743554777488
 31
0.0
 70
0
 71
8
 72
2
 41
1.0
 42
0.0
  1

  3
Standard
100
AcDbAlignedDimension
 13
82.6677776443382157
 23
18.6223057409316723
 33
0.0
 14
32.6677776443382157
 24
18.6223057409316688
 34
0.0
 50
0.0
100
AcDbRotatedDimension
  0
DIMENSION
  5
16A
100
AcDbEntity
  8
bemassung_bar
 62
256
370
-1
  6
BYLAYER
100
AcDbDimension
 10
59.2164291531249418
 20
16.8324370103762071
 30
0.0
 11
62.4316665332271086
 21
18.7074370103762071
 31
0.0
 70
0
 71
8
 72
2
 41
1.0
 42
0.0
  1
M3t
  3
Standard
100
AcDbAlignedDimension
 13
56.1677776443382086
 23
20.6223057409316688
 33
0.0
 14
59.1677776443382157
 24
20.6223057409316688
 34
0.0
 50
0.0
100
AcDbRotatedDimension
  0
DIMENSION
  5
16B
100
AcDbEntity
  8
bemassung_bar
 62
256
370
-1
  6
BYLAYER
100
AcDbDimension
 10
55.7256916298050271
 20
43.0175500457573747
 30
0.0
 11
62.4394154860594384
 21
44.8925500457573747
 31
0.0
 70
0
 71
8
 72
2
 41
1.0
 42
0.0
  1
M3c
  3
Standard
100
AcDbAlignedDimension
 13
59.1755265971705455
 23
40.6220387826366931
 33
0.0
 14
56.1755265971705384
 24
40.6223057409316723
 34
0.0
 50
0.0
100
AcDbRotatedDimension
  0
DIMENSION
  5
16C
100
AcDbEntity
  8
bemassung_bar
 62
256
370
-1
  6
BYLAYER
100
AcDbDimension
 10
33.1706615182800846
 20
43.0175500457573747
 30
0.0
 11
42.6677776443382157
 21
44.8925500457573747
 31
0.0
 70
0
 71
8
 72
2
 41
1.0
 42
0.0
  1

  3
Standard
100
AcDbAlignedDimension
 13
52.6677776443382157
 23
37.1223057409316723
 33
0.0
 14
32.6677776443382157
 24
37.1223057409316723
 34
0.0
 50
0.0
100
AcDbRotatedDimension
  0
DIMENSION
  5
16D
100
AcDbEntity
  8
bemassung_bar
 62
256
370
-1
  6
BYLAYER
100
AcDbDimension
 10
19.1180511346598365
 20
35.341754458065644
 30
0.0
 11
17.2430511346598365
 21
38.1223057409316652
 31
0.0
 70
0
 71
8
 72
2
 41
1.0
 42
0.0
  1

  3
Standard
100
AcDbAlignedDimension
 13
22.6677776443382157
 23
40.6223057409316723
 33
0.0
 14
22.6677776443382157
 24
35.6223057409316652
 34
0.0
 50
90.0
100
AcDbRotatedDimension
  0
DIMENSION
  5
16E
100
AcDbEntity
  8
bemassung_bar
 62
256
370
-1
  6
BYLAYER
100
AcDbDimension
 10
19.1180511346598365
 20
25.3041756126226076
 30
0.0
 11
17.2430511346598365
 21
30.6223057409316652
 31
0.0
 70
0
 71
8
 72
2
 41
1.0
 42
0.0
  1

  3
Standard
100
AcDbAlignedDimension
 13
22.6677776443382157
 23
35.6223057409316652
 33
0.0
 14
22.6677776443382157
 24
25.6223057409316688
 34
0.0
 50
90.0
100
AcDbRotatedDimension
  0
DIMENSION
  5
16F
100
AcDbEntity
  8
bemassung_bar
 62
256
370
-1
  6
BYLAYER
100
AcDbDimension
 10
19.1180511346598365
 20
20.5806090971200035
 30
0.0
 11
17.2430511346598365
 21
23.1223057409316688
 31
0.0
 70
0
 71
8
 72
2
 41
1.0
 42
0.0
  1

  3
Standard
100
AcDbAlignedDimension
 13
22.6677776443382157
 23
25.6223057409316688
 33
0.0
 14
22.6677776443382157
 24
20.6223057409316688
 34
0.0
 50
90.0
100
AcDbRotatedDimension
  0
LINE
  5
170
100
AcDbEntity
100
AcDbLine
  8
top
 62
256
370
-1
  6
BYLAYER
 10
22.6570178324351161
 20
11.3413837907003803
 30
0.0
 11
27.5925859829570612
 21
12.290531511954601
 31
0.0
  0
LINE
  5
171
100
AcDbEntity
100
AcDbLine
  8
top
 62
256
370
-1
  6
BYLAYER
 10
27.5925859829570612
 20
12.290531511954601
 30
0.0
 11
26.7858104198909786
 21
11.6735854931393597
 31
0.0
  0
LINE
  5
172
100
AcDbEntity
100
AcDbLine
  8
top
 62
256
370
-1
  6
BYLAYER
 10
26.7858104198909786
 20
11.6735854931393597
 30
0.0
 11
32.6705262916671444
 21
12.7176479865190011
 31
0.0
  0
LEADER
  5
173
  8
bemassung_bar
 62
256
370
-1
  6
BYLAYER
100
AcDbEntity
100
AcDbLeader
  3
Standard
 71
1
 72
0
 73
3
 74
0
 75
0
 40
1.0
 41
10.0
 76
3
 10
116.7470912752368122
 20
92.8567548265252185
 10
123.2764418024449355
 20
96.9570516799862219
 10
126.2764418024449355
 20
96.9570516799862219
  0
MTEXT
  5
174
100
AcDbEntity
100
AcDbMText
  8
bemassung_bar
 62
256
370
-1
  6
BYLAYER
 10
127.6159655929445194
 20
99.4934180152702368
 30
0.0
 40
1.0
 41
0.0
 71
1
 72
1
  1
\H1.5;Steel bar, 10mm x 10mm base\pto be fixed to aluminium part according to\pdrawing on the left
  7
textstyle0
 50
0.0
 73
2
 44
1.0
  0
LINE
  5
175
100
AcDbEntity
100
AcDbLine
  8
top
 62
256
370
-1
  6
BYLAYER
 10
106.8749386967364785
 20
106.056997592750804
 30
0.0
 11
116.8749386967364785
 21
106.056997592750804
 31
0.0
  0
LINE
  5
176
100
AcDbEntity
100
AcDbLine
  8
top
 62
256
370
-1
  6
BYLAYER
 10
116.8749386967364785
 20
106.056997592750804
 30
0.0
 11
116.8776873440654072
 21
78.1523398383381362
 31
0.0
  0
HATCH
  5
177
  8
top
 62
252
420
10526884
370
-1
  6
BYLAYER
100
AcDbEntity
100
AcDbHatch
 10
0.0
 20
0.0
 30
0.0
210
0.0
220
0.0
230
1.0
  2
ANSI31
 70
0
 71
0
 91
1
 92
1
 93
4
 72
1
 10
106.8749386967364785
 20
106.056997592750804
 11
116.8749386967364785
 21
106.056997592750804
 72
1
 10
116.8749386967364785
 20
106.056997592750804
 11
116.8207384807901406
 21
78.3212881327213921
 72
1
 10
116.8207384807901406
 20
78.3212881327213921
 11
106.8432976349657793
 21
77.0228540500456091
 72
1
 10
106.8432976349657793
 20
77.0228540500456091
 11
106.8749386967364785
 21
106.056997592750804
 97
0
 75
0
 76
1
 52
0.0
 41
0.25
 77
0
 78
1
 53
45.0
 43
0.0
 44
0.0
 45
-0.0883883476483184
 46
0.0883883476483185
 79
0
 98
0
  0
LINE
  5
178
100
AcDbEntity
100
AcDbLine
  8
top
 62
256
370
-1
  6
BYLAYER
 10
106.8641788848333789
 20
76.7760756425195154
 30
0.0
 11
106.8749386967364785
 21
106.056997592750804
 31
0.0
  0
LINE
  5
179
100
AcDbEntity
100
AcDbLine
  8
top
 62
256
370
-1
  6
BYLAYER
 10
106.8641788848333789
 20
76.7760756425195154
 30
0.0
 11
111.7997470353553098
 21
77.725223363773722
 31
0.0
  0
LINE
  5
17A
100
AcDbEntity
100
AcDbLine
  8
top
 62
256
370
-1
  6
BYLAYER
 10
111.7997470353553098
 20
77.725223363773722
 30
0.0
 11
110.9929714722892271
 21
77.1082773449584806
 31
0.0
  0
LINE
  5
17B
100
AcDbEntity
100
AcDbLine
  8
top
 62
256
370
-1
  6
BYLAYER
 10
110.9929714722892271
 20
77.1082773449584806
 30
0.0
 11
116.8776873440653929
 21
78.152339838338122
 31
0.0
  0
ARC
  5
17C
100
AcDbEntity
  8
0
 62
256
370
-1
  6
BYLAYER
100
AcDbCircle
 10
53.2042454872434831
 20
270.1816970687212347
 30
0.0
 40
5.0
100
AcDbArc
 50
0.0
 51
180.0
  0
HATCH
  5
17D
  8
0
 62
256
370
-1
  6
BYLAYER
100
AcDbEntity
100
AcDbHatch
 10
0.0
 20
0.0
 30
0.0
210
0.0
220
0.0
230
1.0
  2
ACAD_ISO02W100
 70
0
 71
0
 91
1
 92
1
 93
2
 72
2
 10
53.2042454872434831
 20
270.1816970687212347
 40
5.0
 50
0.0
 51
180.0
 73
1
 72
1
 10
48.2042454872434831
 20
270.1816970687212347
 11
58.2042454872434831
 21
270.1816970687212347
 97
0
 75
0
 76
1
 52
45.0
 41
0.25
 77
0
 78
1
 53
45.0
 43
0.0
 44
0.0
 45
-0.0883883476483184
 46
0.0883883476483185
 79
0
 98
0
  0
ARC
  5
17E
100
AcDbEntity
  8
top
 62
256
370
-1
  6
BYLAYER
100
AcDbCircle
 10
153.0621043203820477
 20
270.2353293678154387
 30
0.0
 40
5.0000000000000142
100
AcDbArc
 50
0.0
 51
180.0
  0
LINE
  5
17F
100
AcDbEntity
100
AcDbLine
  8
top
 62
256
370
-1
  6
BYLAYER
 10
158.0621043203820477
 20
270.2353293678154387
 30
0.0
 11
178.0621043203820477
 21
270.2353293678154387
 31
0.0
  0
LINE
  5
180
100
AcDbEntity
100
AcDbLine
  8
layout
 62
256
370
-1
  6
BYLAYER
 10
100.5601390148118526
 20
146.8471617126529338
 30
0.0
 11
9.9387648192064262
 21
146.8471617126529338
 31
0.0
  0
LINE
  5
181
100
AcDbEntity
100
AcDbLine
  8
layout
 62
256
370
-1
  6
BYLAYER
 10
9.9387648192064262
 20
146.8471617126529338
 30
0.0
 11
9.9387648192064262
 21
288.2447144458738535
 31
0.0
  0
LINE
  5
182
100
AcDbEntity
100
AcDbLine
  8
layout
 62
256
370
-1
  6
BYLAYER
 10
9.9387648192064262
 20
288.2447144458738535
 30
0.0
 11
100.5601390148118526
 21
288.2447144458738535
 31
0.0
  0
LINE
  5
183
100
AcDbEntity
100
AcDbLine
  8
layout
 62
256
370
-1
  6
BYLAYER
 10
100.5601390148118526
 20
288.2447144458738535
 30
0.0
 11
100.5601390148118526
 21
146.8471617126529338
 31
0.0
  0
LINE
  5
184
100
AcDbEntity
100
AcDbLine
  8
layout
 62
256
370
-1
  6
BYLAYER
 10
100.5601390148118384
 20
146.8471617126529338
 30
0.0
 11
199.9968219843088946
 21
146.8471617126529338
 31
0.0
  0
LINE
  5
185
100
AcDbEntity
100
AcDbLine
  8
layout
 62
256
370
-1
  6
BYLAYER
 10
199.9968219843088946
 20
146.8471617126529338
 30
0.0
 11
199.9968219843088946
 21
288.2447144458738535
 31
0.0
  0
LINE
  5
186
100
AcDbEntity
100
AcDbLine
  8
layout
 62
256
370
-1
  6
BYLAYER
 10
199.9968219843088946
 20
288.2447144458738535
 30
0.0
 11
100.5601390148118384
 21
288.2447144458738535
 31
0.0
  0
LINE
  5
187
100
AcDbEntity
100
AcDbLine
  8
layout
 62
256
370
-1
  6
BYLAYER
 10
100.5601390148118384
 20
288.2447144458738535
 30
0.0
 11
100.5601390148118384
 21
146.8471617126529338
 31
0.0
  0
LINE
  5
188
100
AcDbEntity
100
AcDbLine
  8
layout
 62
256
370
-1
  6
BYLAYER
 10
100.5601390148118526
 20
146.8471617126529338
 30
0.0
 11
9.9387648192063978
 21
146.8471617126529338
 31
0.0
  0
LINE
  5
189
100
AcDbEntity
100
AcDbLine
  8
layout
 62
256
370
-1
  6
BYLAYER
 10
9.9387648192063978
 20
146.8471617126529338
 30
0.0
 11
9.9387648192063978
 21
7.5652830851659871
 31
0.0
  0
LINE
  5
18A
100
AcDbEntity
100
AcDbLine
  8
layout
 62
256
370
-1
  6
BYLAYER
 10
9.9387648192063978
 20
7.5652830851659871
 30
0.0
 11
100.5601390148118526
 21
7.5652830851659871
 31
0.0
  0
LINE
  5
18B
100
AcDbEntity
100
AcDbLine
  8
layout
 62
256
370
-1
  6
BYLAYER
 10
100.5601390148118526
 20
7.5652830851659871
 30
0.0
 11
100.5601390148118526
 21
146.8471617126529338
 31
0.0
  0
IMAGE
  5
18C
  8
layout
 62
256
370
-1
  6
BYLAYER
100
AcDbEntity
100
AcDbRasterImage
 90
0
 10
111.7348262157788952
 20
13.0611152917670665
 30
0.0
 11
0.05
 21
0.0
 31
0.0
 12
0.0
 22
0.05
 32
0.0
 13
80.0
 23
60.0
340
18D
 70
15
280
0
281
50
282
50
283
0
  0
MTEXT
  5
18E
100
AcDbEntity
100
AcDbMText
  8
layout
 62
256
370
-1
  6
BYLAYER
 10
106.8038513817056128
 20
142.7648203355812768
 30
0.0
 40
1.0
 41
0.0
 71
1
 72
1
  3
\H1.5;Objects: Motor holder (2 parts on top), 90deg connector (left), table clamp (next page)\pMaterial: Aluminium; Tolerances: %%p 0.1mm; Scale: 1:1\p\pThe motor holder is fitted for a ASTROSYN MY4001 motor \p("Size 14 Mini Hybrid Stepper Motor").\p
  3
\pMotor Holder and 90deg connector are connected by a \p10mm stainless steel rod that is clamped between part 1 and 2 (hatching) and inserted and fixed in the 10mm bore of part 3.\p\pThe 90deg connector connects to a table clamp (part 5 and 6) by\pa 
  1
10x10mm stainless steel bar (grey hatching) and is used to adjust height.\p\pThe table clamp connects to the table using a M8 screw\pwith a flattened tip or protective cap.
  7
textstyle1
 50
0.0
 73
2
 44
1.0
  0
MTEXT
  5
18F
100
AcDbEntity
100
AcDbMText
  8
layout
 62
256
370
-1
  6
BYLAYER
 10
166.9821257100043113
 20
110.2154180864563386
 30
0.0
 40
1.0
 41
0.0
 71
1
 72
1
  1
\H1.5;Licenced under the CERN OHL v1.1
  7
textstyle2
 50
0.0
 73
2
 44
1.0
  0
TEXT
  5
190
100
AcDbEntity
100
AcDbText
  8
0
 62
256
370
-1
  6
BYLAYER
 10
0.0
 20
0.0
 30
0.0
 40
2.0
  1
1
 50
0.0
 41
1.0
  7
textstyle3
 71
0
 72
0
 11
11.9722305200520793
 21
285.5681004702354358
 31
0.0
 73
3
  0
TEXT
  5
191
100
AcDbEntity
100
AcDbText
  8
0
 62
256
370
-1
  6
BYLAYER
 10
0.0
 20
0.0
 30
0.0
 40
1.0
  1
1
 50
0.0
 41
1.0
  7
textstyle4
 71
0
 72
0
 11
11.9722305200520793
 21
285.5681004702354358
 31
0.0
 73
3
  0
TEXT
  5
192
100
AcDbEntity
100
AcDbText
  8
0
 62
256
370
-1
  6
BYLAYER
 10
0.0
 20
0.0
 30
0.0
 40
1.0
  1
1
 50
0.0
 41
1.0
  7
textstyle5
 71
0
 72
0
 11
11.9722305200520793
 21
285.5681004702354358
 31
0.0
 73
3
  0
TEXT
  5
193
100
AcDbEntity
100
AcDbText
  8
0
 62
256
370
-1
  6
BYLAYER
 10
90.9014666302868051
 20
0.1766098703528201
 30
0.0
 40
2.0
  1
2
 50
0.0
 41
1.0
  7
textstyle6
 71
0
 72
0
 11
102.8736971503390265
 21
285.744710340588199
 31
0.0
 73
3
  0
TEXT
  5
194
100
AcDbEntity
100
AcDbText
  8
0
 62
256
370
-1
  6
BYLAYER
 10
-0.3683090522181534
 20
-141.325305430005443
 30
0.0
 40
2.0
  1
3
 50
0.0
 41
1.0
  7
textstyle7
 71
0
 72
0
 11
11.6039214678340645
 21
144.2427950402299359
 31
0.0
 73
3
  0
ENDSEC
  0
SECTION
  2
OBJECTS
  0
DICTIONARY
  5
C
100
AcDbDictionary
280
0
281
1
  3
ACAD_GROUP
350
D
  3
ACAD_LAYOUT
350
1A
  3
ACAD_MLINESTYLE
350
17
  3
ACAD_PLOTSETTINGS
350
19
  3
ACAD_PLOTSTYLENAME
350
E
  3
AcDbVariableDictionary
350
195
  3
QCAD_OBJECTS
350
196
  0
DICTIONARY
  5
D
100
AcDbDictionary
280
0
281
1
  0
ACDBDICTIONARYWDFLT
  5
E
100
AcDbDictionary
281
1
  3
Normal
350
F
100
AcDbDictionaryWithDefault
340
F
  0
ACDBPLACEHOLDER
  5
F
  0
DICTIONARY
  5
17
100
AcDbDictionary
280
0
281
1
  3
Standard
350
18
  0
MLINESTYLE
  5
18
100
AcDbMlineStyle
  2
STANDARD
 70
0
  3

 62
256
 51
90.0
 52
90.0
 71
2
 49
0.5
 62
256
  6
BYLAYER
 49
-0.5
 62
256
  6
BYLAYER
  0
DICTIONARY
  5
19
100
AcDbDictionary
280
0
281
1
  0
DICTIONARY
  5
1A
100
AcDbDictionary
281
1
  3
Layout1
350
1E
  3
Layout2
350
26
  3
Model
350
22
  0
LAYOUT
  5
1E
100
AcDbPlotSettings
  1

  2
C:\Program Files\AutoCAD 2002\plotters\DWF ePlot (optimized for plotting).pc3
  4

  6

 40
0.0
 41
0.0
 42
0.0
 43
0.0
 44
0.0
 45
0.0
 46
0.0
 47
0.0
 48
0.0
 49
0.0
140
0.0
141
0.0
142
1.0
143
1.0
 70
688
 72
0
 73
0
 74
5
  7

 75
16
147
1.0
148
0.0
149
0.0
100
AcDbLayout
  1
Layout1
 70
1
 71
1
 10
0.0
 20
0.0
 11
420.0
 21
297.0
 12
0.0
 22
0.0
 32
0.0
 14
100000000000000000000.0
 24
100000000000000000000.0
 34
100000000000000000000.0
 15
-100000000000000000000.0
 25
-100000000000000000000.0
 35
-100000000000000000000.0
146
0.0
 13
0.0
 23
0.0
 33
0.0
 16
1.0
 26
0.0
 36
0.0
 17
0.0
 27
1.0
 37
0.0
 76
0
330
1B
  0
LAYOUT
  5
22
100
AcDbPlotSettings
  1

  2
C:\Program Files\AutoCAD 2002\plotters\DWF ePlot (optimized for plotting).pc3
  4

  6

 40
0.0
 41
0.0
 42
0.0
 43
0.0
 44
0.0
 45
0.0
 46
0.0
 47
0.0
 48
0.0
 49
0.0
140
0.0
141
0.0
142
1.0
143
1.0
 70
1712
 72
0
 73
0
 74
0
  7

 75
0
147
1.0
148
0.0
149
0.0
100
AcDbLayout
  1
Model
 70
1
 71
0
 10
0.0
 20
0.0
 11
12.0
 21
9.0
 12
0.0
 22
0.0
 32
0.0
 14
0.0
 24
0.0
 34
0.0
 15
0.0
 25
0.0
 35
0.0
146
0.0
 13
0.0
 23
0.0
 33
0.0
 16
1.0
 26
0.0
 36
0.0
 17
0.0
 27
1.0
 37
0.0
 76
0
330
1F
  0
LAYOUT
  5
26
100
AcDbPlotSettings
  1

  2
C:\Program Files\AutoCAD 2002\plotters\DWF ePlot (optimized for plotting).pc3
  4

  6

 40
0.0
 41
0.0
 42
0.0
 43
0.0
 44
0.0
 45
0.0
 46
0.0
 47
0.0
 48
0.0
 49
0.0
140
0.0
141
0.0
142
1.0
143
1.0
 70
688
 72
0
 73
0
 74
5
  7

 75
16
147
1.0
148
0.0
149
0.0
100
AcDbLayout
  1
Layout2
 70
1
 71
2
 10
0.0
 20
0.0
 11
12.0
 21
9.0
 12
0.0
 22
0.0
 32
0.0
 14
0.0
 24
0.0
 34
0.0
 15
0.0
 25
0.0
 35
0.0
146
0.0
 13
0.0
 23
0.0
 33
0.0
 16
1.0
 26
0.0
 36
0.0
 17
0.0
 27
1.0
 37
0.0
 76
0
330
23
  0
DICTIONARY
  5
195
100
AcDbDictionary
281
1
  3
DIMASSOC
350
198
  3
HIDETEXT
350
197
  0
DICTIONARYVAR
  5
197
100
DictionaryVariables
280
0
  1
2
  0
DICTIONARYVAR
  5
198
100
DictionaryVariables
280
0
  1
1
  0
DICTIONARY
  5
196
100
AcDbDictionary
281
1
  3
Grid/DisplayGrid00
350
199
  3
Grid/DisplayGrid01
350
19A
  3
Grid/DisplayGrid02
350
19B
  3
Grid/DisplayGrid03
350
19C
  3
Grid/GridSpacingX00
350
19D
  3
Grid/GridSpacingX01
350
19E
  3
Grid/GridSpacingX02
350
19F
  3
Grid/GridSpacingX03
350
1A0
  3
Grid/GridSpacingY00
350
1A1
  3
Grid/GridSpacingY01
350
1A2
  3
Grid/GridSpacingY02
350
1A3
  3
Grid/GridSpacingY03
350
1A4
  3
Grid/IsometricGrid00
350
1A5
  3
Grid/IsometricGrid01
350
1A6
  3
Grid/IsometricGrid02
350
1A7
  3
Grid/IsometricGrid03
350
1A8
  3
Grid/IsometricProjection00
350
1A9
  3
Grid/IsometricProjection01
350
1AA
  3
Grid/IsometricProjection02
350
1AB
  3
Grid/IsometricProjection03
350
1AC
  3
Grid/MetaGridSpacingX00
350
1AD
  3
Grid/MetaGridSpacingX01
350
1AE
  3
Grid/MetaGridSpacingX02
350
1AF
  3
Grid/MetaGridSpacingX03
350
1B0
  3
Grid/MetaGridSpacingY00
350
1B1
  3
Grid/MetaGridSpacingY01
350
1B2
  3
Grid/MetaGridSpacingY02
350
1B3
  3
Grid/MetaGridSpacingY03
350
1B4
  3
MultiPageSettings/Columns
350
1B5
  3
MultiPageSettings/GlueMarginsBottom
350
1B6
  3
MultiPageSettings/GlueMarginsLeft
350
1B7
  3
MultiPageSettings/GlueMarginsRight
350
1B8
  3
MultiPageSettings/GlueMarginsTop
350
1B9
  3
MultiPageSettings/PrintCropMarks
350
1BA
  3
MultiPageSettings/Rows
350
1BB
  3
PageSettings/OffsetX
350
1BC
  3
PageSettings/OffsetY
350
1BD
  3
PageSettings/PageOrientation
350
1BE
  3
PageSettings/PaperHeight
350
1BF
  3
PageSettings/PaperWidth
350
1C0
  3
PageSettings/Scale
350
1C1
  3
PageSettings/ShowPaperBorders
350
1C2
  3
UnitSettings/PaperUnit
350
1C3
  0
XRECORD
  5
199
330
196
100
AcDbXrecord
280
1
290
1
  0
XRECORD
  5
19A
330
196
100
AcDbXrecord
280
1
290
1
  0
XRECORD
  5
19B
330
196
100
AcDbXrecord
280
1
290
1
  0
XRECORD
  5
19C
330
196
100
AcDbXrecord
280
1
290
1
  0
XRECORD
  5
19D
330
196
100
AcDbXrecord
280
1
1000
auto
  0
XRECORD
  5
19E
330
196
100
AcDbXrecord
280
1
1000
auto
  0
XRECORD
  5
19F
330
196
100
AcDbXrecord
280
1
1000
auto
  0
XRECORD
  5
1A0
330
196
100
AcDbXrecord
280
1
1000
auto
  0
XRECORD
  5
1A1
330
196
100
AcDbXrecord
280
1
1000
auto
  0
XRECORD
  5
1A2
330
196
100
AcDbXrecord
280
1
1000
auto
  0
XRECORD
  5
1A3
330
196
100
AcDbXrecord
280
1
1000
auto
  0
XRECORD
  5
1A4
330
196
100
AcDbXrecord
280
1
1000
auto
  0
XRECORD
  5
1A5
330
196
100
AcDbXrecord
280
1
290
0
  0
XRECORD
  5
1A6
330
196
100
AcDbXrecord
280
1
290
0
  0
XRECORD
  5
1A7
330
196
100
AcDbXrecord
280
1
290
0
  0
XRECORD
  5
1A8
330
196
100
AcDbXrecord
280
1
290
0
  0
XRECORD
  5
1A9
330
196
100
AcDbXrecord
280
1
 90
2
  0
XRECORD
  5
1AA
330
196
100
AcDbXrecord
280
1
 90
0
  0
XRECORD
  5
1AB
330
196
100
AcDbXrecord
280
1
 90
0
  0
XRECORD
  5
1AC
330
196
100
AcDbXrecord
280
1
 90
0
  0
XRECORD
  5
1AD
330
196
100
AcDbXrecord
280
1
1000
auto
  0
XRECORD
  5
1AE
330
196
100
AcDbXrecord
280
1
1000
auto
  0
XRECORD
  5
1AF
330
196
100
AcDbXrecord
280
1
1000
auto
  0
XRECORD
  5
1B0
330
196
100
AcDbXrecord
280
1
1000
auto
  0
XRECORD
  5
1B1
330
196
100
AcDbXrecord
280
1
1000
auto
  0
XRECORD
  5
1B2
330
196
100
AcDbXrecord
280
1
1000
auto
  0
XRECORD
  5
1B3
330
196
100
AcDbXrecord
280
1
1000
auto
  0
XRECORD
  5
1B4
330
196
100
AcDbXrecord
280
1
1000
auto
  0
XRECORD
  5
1B5
330
196
100
AcDbXrecord
280
1
 90
1
  0
XRECORD
  5
1B6
330
196
100
AcDbXrecord
280
1
 40
10.0
  0
XRECORD
  5
1B7
330
196
100
AcDbXrecord
280
1
 40
10.0
  0
XRECORD
  5
1B8
330
196
100
AcDbXrecord
280
1
 40
10.0
  0
XRECORD
  5
1B9
330
196
100
AcDbXrecord
280
1
 40
10.0
  0
XRECORD
  5
1BA
330
196
100
AcDbXrecord
280
1
290
0
  0
XRECORD
  5
1BB
330
196
100
AcDbXrecord
280
1
 90
1
  0
XRECORD
  5
1BC
330
196
100
AcDbXrecord
280
1
 40
0.0
  0
XRECORD
  5
1BD
330
196
100
AcDbXrecord
280
1
 40
0.0
  0
XRECORD
  5
1BE
330
196
100
AcDbXrecord
280
1
1000
Portrait
  0
XRECORD
  5
1BF
330
196
100
AcDbXrecord
280
1
 40
297.0
  0
XRECORD
  5
1C0
330
196
100
AcDbXrecord
280
1
 40
210.0
  0
XRECORD
  5
1C1
330
196
100
AcDbXrecord
280
1
1000
1:1
  0
XRECORD
  5
1C2
330
196
100
AcDbXrecord
280
1
290
1
  0
XRECORD
  5
1C3
330
196
100
AcDbXrecord
280
1
 90
4
  0
IMAGEDEF
  5
18D
100
AcDbRasterImageDef
 90
0
  1
/home/hannes/Dokumente/Studium/Dropbox/Diplomarbeit/latex/resources/images/pictures/goniometer.jpg
 10
80.0
 20
60.0
 11
1.0
 21
1.0
280
1
281
0
  0
ENDSEC
  0
EOF
